<svg width="229" height="133" viewBox="0 0 229 133" fill="none" xmlns="http://www.w3.org/2000/svg">
<mask id="mask0_2_60" style="mask-type:luminance" maskUnits="userSpaceOnUse" x="0" y="0" width="229" height="133">
<path d="M209.98 15.5601L141.11 62.47C139.049 63.8814 136.608 64.6344 134.11 64.6299H94.74C92.2419 64.6344 89.8012 63.8814 87.74 62.47L18.9 15.54C18.4397 15.2538 17.8864 15.1565 17.3561 15.2688C16.8257 15.3811 16.3594 15.6941 16.0546 16.1423C15.7497 16.5906 15.63 17.1393 15.7205 17.6738C15.8109 18.2083 16.1046 18.6871 16.54 19.01L85.37 65.9399C88.1241 67.8225 91.3839 68.8268 94.72 68.8201H134.09C137.426 68.8268 140.686 67.8225 143.44 65.9399L212.27 19.01C212.499 18.8554 212.695 18.6569 212.847 18.426C212.999 18.1951 213.103 17.9363 213.154 17.6648C213.205 17.3932 213.202 17.1143 213.145 16.844C213.088 16.5737 212.977 16.3174 212.82 16.0901C212.666 15.8614 212.469 15.6653 212.239 15.5137C212.009 15.362 211.751 15.2577 211.48 15.2065C211.209 15.1554 210.931 15.1583 210.661 15.2156C210.392 15.2728 210.137 15.3832 209.91 15.54M10.58 0.659912C7.96482 0.665205 5.45848 1.70725 3.61023 3.55737C1.76198 5.4075 0.722612 7.91488 0.719971 10.53V122.92C0.722612 125.535 1.76198 128.042 3.61023 129.893C5.45848 131.743 7.96482 132.785 10.58 132.79H186.58C187.137 132.79 187.671 132.569 188.065 132.175C188.459 131.781 188.68 131.247 188.68 130.69C188.68 130.133 188.459 129.599 188.065 129.205C187.671 128.811 187.137 128.59 186.58 128.59H10.58C9.07618 128.59 7.63401 127.993 6.57068 126.929C5.50735 125.866 4.91003 124.424 4.91003 122.92V10.55C4.91003 9.04627 5.50735 7.6041 6.57068 6.54077C7.63401 5.47744 9.07618 4.87988 10.58 4.87988H218.23C219.733 4.88253 221.174 5.48094 222.236 6.5437C223.299 7.60646 223.897 9.04708 223.9 10.55V122.94C223.897 124.443 223.299 125.884 222.236 126.946C221.174 128.009 219.733 128.607 218.23 128.61H211.87C211.313 128.61 210.779 128.831 210.385 129.225C209.991 129.619 209.77 130.153 209.77 130.71C209.77 131.267 209.991 131.801 210.385 132.195C210.779 132.589 211.313 132.81 211.87 132.81H218.23C220.845 132.805 223.351 131.763 225.2 129.913C227.048 128.062 228.087 125.555 228.09 122.94V10.55C228.087 7.9349 227.048 5.42752 225.2 3.57739C223.351 1.72727 220.845 0.685224 218.23 0.679932L10.58 0.659912Z" fill="white"/>
</mask>
<g mask="url(#mask0_2_60)">
<path d="M152.682 -106.537L-61.3773 44.4648L76.4073 239.787L290.467 88.7848L152.682 -106.537Z" fill="url(#paint0_linear_2_60)"/>
</g>
<defs>
<linearGradient id="paint0_linear_2_60" x1="185.542" y1="19.1478" x2="35.1862" y2="125.212" gradientUnits="userSpaceOnUse">
<stop stop-color="#FF5E48"/>
<stop offset="0.166667" stop-color="#FF684D"/>
<stop offset="0.333333" stop-color="#FF7251"/>
<stop offset="0.5" stop-color="#FF7B56"/>
<stop offset="0.666667" stop-color="#FF845E"/>
<stop offset="0.833333" stop-color="#FF8160"/>
<stop offset="1" stop-color="#FE8163"/>
</linearGradient>
</defs>
</svg>
