<svg width="125" height="186" viewBox="0 0 125 186" fill="none" xmlns="http://www.w3.org/2000/svg">
<mask id="mask0_2_40" style="mask-type:luminance" maskUnits="userSpaceOnUse" x="0" y="0" width="125" height="186">
<path d="M78.9502 160.38V178.03C78.9515 178.466 78.8667 178.897 78.7009 179.3C78.5352 179.703 78.2916 180.069 77.9841 180.377C77.6766 180.685 77.3114 180.93 76.9092 181.097C76.5069 181.264 76.0757 181.35 75.6401 181.35H49.4302C48.9942 181.35 48.5625 181.264 48.1597 181.097C47.7569 180.93 47.3908 180.686 47.0825 180.378C46.7742 180.069 46.5296 179.703 46.3628 179.301C46.196 178.898 46.1101 178.466 46.1101 178.03V160.38C46.1101 159.823 45.889 159.289 45.4951 158.895C45.1013 158.501 44.567 158.28 44.01 158.28C43.4531 158.28 42.919 158.501 42.5252 158.895C42.1313 159.289 41.9102 159.823 41.9102 160.38V178.03C41.9102 180.024 42.7023 181.937 44.1126 183.347C45.5228 184.758 47.4358 185.55 49.4302 185.55H75.6401C77.6328 185.547 79.5431 184.754 80.9512 183.344C82.3593 181.934 83.1502 180.023 83.1502 178.03V160.38C83.1502 159.823 82.9287 159.289 82.5349 158.895C82.1411 158.501 81.607 158.28 81.0501 158.28C80.4931 158.28 79.959 158.501 79.5652 158.895C79.1714 159.289 78.9502 159.823 78.9502 160.38ZM107.3 118.56C107.113 118.77 106.971 119.015 106.881 119.281C106.792 119.547 106.756 119.829 106.778 120.109C106.799 120.389 106.877 120.662 107.006 120.911C107.135 121.16 107.314 121.381 107.53 121.56L120.96 133.04C121.337 133.369 121.82 133.55 122.32 133.55C122.75 133.55 123.169 133.418 123.522 133.172C123.874 132.926 124.143 132.578 124.291 132.175C124.439 131.771 124.46 131.332 124.351 130.916C124.242 130.501 124.008 130.128 123.68 129.85L110.25 118.37C109.872 118.044 109.389 117.866 108.89 117.87C108.588 117.869 108.29 117.935 108.015 118.061C107.741 118.187 107.497 118.371 107.3 118.6M14.8101 118.37L1.38013 129.85C1.16367 130.029 0.985466 130.25 0.856208 130.499C0.72695 130.748 0.64916 131.021 0.627692 131.301C0.606224 131.581 0.641467 131.863 0.731208 132.129C0.820948 132.395 0.963495 132.64 1.15015 132.85C1.34486 133.082 1.58806 133.269 1.8628 133.397C2.13754 133.525 2.43696 133.591 2.74 133.59C3.24301 133.59 3.72926 133.409 4.11011 133.08L17.54 121.6C17.9473 121.233 18.1951 120.722 18.2307 120.176C18.2663 119.629 18.0869 119.09 17.7307 118.674C17.3745 118.257 16.8696 117.997 16.324 117.948C15.7783 117.898 15.2351 118.064 14.8101 118.41M56.6702 94.28C56.6702 93.121 57.0138 91.9881 57.6577 91.0244C58.3016 90.0607 59.2168 89.3095 60.2876 88.866C61.3584 88.4224 62.5366 88.3064 63.6733 88.5325C64.8101 88.7586 65.8543 89.3167 66.6738 90.1362C67.4934 90.9558 68.0515 92 68.2776 93.1367C68.5037 94.2734 68.3876 95.4517 67.9441 96.5225C67.5006 97.5932 66.7493 98.5084 65.7857 99.1523C64.822 99.7962 63.689 100.14 62.53 100.14C60.9767 100.137 59.4878 99.519 58.3894 98.4207C57.291 97.3223 56.6728 95.8334 56.6702 94.28ZM52.4702 94.28C52.4755 96.5882 53.2727 98.8247 54.7288 100.616C56.1849 102.407 58.2117 103.644 60.4702 104.12V137.77C60.4702 138.327 60.6914 138.861 61.0852 139.255C61.479 139.649 62.0131 139.87 62.5701 139.87C63.127 139.87 63.6611 139.649 64.0549 139.255C64.4488 138.861 64.6702 138.327 64.6702 137.77V104.12C66.5279 103.723 68.2355 102.809 69.5952 101.482C70.955 100.156 71.9112 98.4717 72.3535 96.6243C72.7959 94.7769 72.7062 92.842 72.0947 91.0435C71.4833 89.2449 70.3751 87.6564 68.8984 86.4614C67.4218 85.2665 65.6367 84.5139 63.7503 84.291C61.8638 84.0682 59.9528 84.3839 58.2383 85.2019C56.5238 86.0199 55.076 87.3066 54.0623 88.9131C53.0485 90.5196 52.5103 92.3804 52.51 94.28M60.2202 29.5801C50.0534 30.062 40.2773 33.6431 32.2051 39.8428C24.1329 46.0424 18.1511 54.5636 15.0628 64.262C11.9744 73.9603 11.9274 84.3716 14.9282 94.0974C17.9291 103.823 23.8341 112.398 31.8501 118.67C37.2405 122.794 40.7786 128.884 41.6902 135.61L43.6301 150.53C43.8742 152.37 44.7764 154.059 46.1699 155.286C47.5634 156.512 49.354 157.192 51.2102 157.2H53.04C53.597 157.2 54.1313 156.979 54.5252 156.585C54.919 156.191 55.1401 155.657 55.1401 155.1C55.1401 154.543 54.919 154.009 54.5252 153.615C54.1313 153.221 53.597 153 53.04 153H51.2102C50.375 152.997 49.569 152.692 48.9419 152.14C48.3148 151.588 47.909 150.828 47.8001 150L45.8601 135.08C44.8022 127.261 40.6976 120.176 34.4402 115.37C26.955 109.514 21.4837 101.468 18.7891 92.3545C16.0944 83.2408 16.3106 73.5133 19.4077 64.5283C22.5048 55.5434 28.3283 47.7488 36.0664 42.2312C43.8045 36.7136 53.0715 33.748 62.5752 33.748C72.079 33.748 81.3457 36.7136 89.0837 42.2312C96.8218 47.7488 102.645 55.5434 105.742 64.5283C108.84 73.5133 109.056 83.2408 106.361 92.3545C103.667 101.468 98.1954 109.514 90.7102 115.37C84.4494 120.173 80.3437 127.26 79.29 135.08L77.3501 150C77.2409 150.83 76.8338 151.592 76.2046 152.144C75.5754 152.695 74.7671 153 73.9302 153H72.1101C71.5532 153 71.0191 153.221 70.6253 153.615C70.2314 154.009 70.01 154.543 70.01 155.1C70.01 155.657 70.2314 156.191 70.6253 156.585C71.0191 156.979 71.5532 157.2 72.1101 157.2H73.9402C75.7961 157.196 77.5875 156.519 78.9817 155.294C80.3759 154.069 81.2778 152.38 81.52 150.54L83.4602 135.62C84.3656 128.873 87.9073 122.761 93.3101 118.62C101.491 112.22 107.47 103.426 110.412 93.4651C113.354 83.5038 113.112 72.8725 109.72 63.0552C106.328 53.2379 99.956 44.7245 91.4924 38.7036C83.0289 32.6827 72.8967 29.4546 62.51 29.47C61.74 29.47 60.9602 29.47 60.1802 29.53M60.4302 2.62988V17.9299C60.4302 18.4869 60.6513 19.021 61.0452 19.4148C61.439 19.8086 61.9731 20.03 62.53 20.03C63.087 20.03 63.6213 19.8086 64.0151 19.4148C64.409 19.021 64.6301 18.4869 64.6301 17.9299V2.62988C64.6301 2.07293 64.409 1.53885 64.0151 1.14502C63.6213 0.751193 63.087 0.530029 62.53 0.530029C61.9731 0.530029 61.439 0.751193 61.0452 1.14502C60.6513 1.53885 60.4302 2.07293 60.4302 2.62988Z" fill="white"/>
</mask>
<g mask="url(#mask0_2_40)">
<path d="M48.6891 -60.0969L-89.7969 113.63L76.3922 246.107L214.878 72.3802L48.6891 -60.0969Z" fill="url(#paint0_linear_2_40)"/>
</g>
<defs>
<linearGradient id="paint0_linear_2_40" x1="109.159" y1="37.5614" x2="11.886" y2="159.588" gradientUnits="userSpaceOnUse">
<stop stop-color="#FF5E48"/>
<stop offset="0.166667" stop-color="#FF684D"/>
<stop offset="0.333333" stop-color="#FF7251"/>
<stop offset="0.5" stop-color="#FF7B56"/>
<stop offset="0.666667" stop-color="#FF845E"/>
<stop offset="0.833333" stop-color="#FF8160"/>
<stop offset="1" stop-color="#FE8163"/>
</linearGradient>
</defs>
</svg>
