<svg width="233" height="130" viewBox="0 0 233 130" fill="none" xmlns="http://www.w3.org/2000/svg">
<mask id="mask0_2_55" style="mask-type:luminance" maskUnits="userSpaceOnUse" x="0" y="0" width="233" height="130">
<path d="M96.11 49.0801C96.1114 52.6065 96.9798 56.0783 98.6387 59.1902C100.298 62.3021 102.696 64.9585 105.623 66.9253C108.55 68.8921 111.916 70.1089 115.424 70.469C118.932 70.829 122.474 70.3212 125.74 68.99V89.6699C125.74 90.7494 125.311 91.7846 124.548 92.5479C123.785 93.3111 122.749 93.74 121.67 93.74H93.9299C92.3881 93.74 90.9093 94.3519 89.8181 95.4412C88.7269 96.5305 88.1126 98.0082 88.11 99.55V106.94L88.71 107.56C90.1072 108.992 91.0733 110.788 91.4977 112.743C91.9221 114.699 91.7878 116.734 91.11 118.616C90.4322 120.498 89.2383 122.152 87.6649 123.388C86.0915 124.624 84.2021 125.392 82.2128 125.604C80.2234 125.817 78.2144 125.465 76.4154 124.59C74.6164 123.714 73.1002 122.35 72.04 120.654C70.9799 118.957 70.4185 116.996 70.4203 114.995C70.422 112.995 70.9868 111.035 72.0499 109.34C72.4543 108.698 72.9271 108.101 73.46 107.56L74.0499 106.95V99.5601C74.0499 98.0192 73.4379 96.5412 72.3483 95.4517C71.2587 94.3621 69.7809 93.75 68.24 93.75H40.49C39.4106 93.75 38.3753 93.3211 37.6121 92.5579C36.8488 91.7946 36.42 90.7594 36.42 89.6799V67.05C36.42 66.4931 36.1988 65.9588 35.8049 65.5649C35.4111 65.1711 34.8769 64.95 34.32 64.95C33.763 64.95 33.2289 65.1711 32.8351 65.5649C32.4413 65.9588 32.22 66.4931 32.22 67.05V89.6799C32.22 91.8715 33.0899 93.9735 34.6387 95.5242C36.1874 97.0748 38.2884 97.9473 40.48 97.95H68.23C68.6588 97.9526 69.0693 98.124 69.3726 98.4272C69.6758 98.7305 69.8474 99.1412 69.85 99.5701V105.28C69.3603 105.856 68.9094 106.464 68.5 107.1C67.0359 109.43 66.2478 112.122 66.2235 114.874C66.1992 117.626 66.9397 120.331 68.3625 122.687C69.7853 125.043 71.8344 126.958 74.2815 128.217C76.7286 129.477 79.4775 130.032 82.2217 129.821C84.9659 129.61 87.5975 128.642 89.8234 127.023C92.0492 125.404 93.7817 123.199 94.8278 120.653C95.8738 118.107 96.1924 115.321 95.7478 112.605C95.3032 109.889 94.113 107.349 92.3099 105.27V99.55C92.3099 99.3378 92.3519 99.1276 92.4335 98.9316C92.515 98.7357 92.6345 98.5576 92.785 98.408C92.9356 98.2583 93.1143 98.1399 93.3108 98.0596C93.5073 97.9793 93.7177 97.9386 93.9299 97.9399H121.67C123.863 97.9373 125.965 97.0652 127.515 95.5149C129.065 93.9645 129.937 91.8624 129.94 89.6699V65.6699C129.949 65.4398 129.919 65.2098 129.85 64.99C129.717 64.5621 129.452 64.1874 129.092 63.9197C128.733 63.652 128.298 63.5051 127.85 63.5C127.423 63.4964 127.006 63.6294 126.66 63.8799C124.035 65.4891 121.027 66.3686 117.948 66.4272C114.87 66.4859 111.831 65.7215 109.146 64.2134C106.462 62.7053 104.228 60.5079 102.676 57.8481C101.125 55.1884 100.311 52.1626 100.319 49.0833C100.328 46.0039 101.158 42.9826 102.724 40.3313C104.29 37.68 106.535 35.4947 109.228 34.0012C111.921 32.5077 114.964 31.7601 118.042 31.8354C121.121 31.9108 124.123 32.8064 126.74 34.4299C126.974 34.5757 127.235 34.674 127.508 34.719C127.78 34.764 128.058 34.7548 128.327 34.6921C128.596 34.6295 128.85 34.5143 129.074 34.3535C129.299 34.1927 129.489 33.9893 129.635 33.7549C129.781 33.5205 129.879 33.2597 129.924 32.9873C129.969 32.715 129.96 32.4366 129.897 32.1677C129.834 31.8989 129.719 31.645 129.559 31.4207C129.398 31.1963 129.194 31.0056 128.96 30.8599C125.704 28.8388 121.968 27.7245 118.137 27.6323C114.307 27.5401 110.521 28.4736 107.172 30.3357C103.823 32.1978 101.032 34.921 99.0894 38.2236C97.1462 41.5262 96.1211 45.288 96.12 49.1199M198.25 49.1199C198.246 52.6824 199.128 56.19 200.816 59.3274C202.504 62.4647 204.945 65.1337 207.919 67.094C210.894 69.0543 214.309 70.2446 217.858 70.5581C221.407 70.8716 224.978 70.2983 228.25 68.8899V89.71C228.247 90.7903 227.816 91.8256 227.051 92.5886C226.287 93.3516 225.25 93.78 224.17 93.78H196.43C194.89 93.7827 193.414 94.3956 192.325 95.4846C191.236 96.5736 190.623 98.05 190.62 99.5901V106.2C190.628 106.444 190.679 106.684 190.77 106.91C190.868 107.146 191.007 107.362 191.18 107.55C192.403 108.8 193.299 110.331 193.79 112.009C194.282 113.687 194.353 115.46 193.997 117.171C193.642 118.883 192.871 120.481 191.753 121.825C190.634 123.169 189.202 124.216 187.583 124.876C185.964 125.536 184.208 125.788 182.469 125.609C180.73 125.43 179.061 124.826 177.61 123.85C176.16 122.874 174.971 121.556 174.15 120.013C173.328 118.47 172.899 116.748 172.9 115C172.898 112.996 173.46 111.031 174.52 109.33C174.921 108.688 175.39 108.091 175.92 107.55C176.122 107.349 176.279 107.107 176.38 106.84C176.462 106.629 176.509 106.406 176.52 106.18V99.55C176.521 98.7867 176.372 98.0304 176.08 97.325C175.789 96.6195 175.361 95.9785 174.821 95.4387C174.281 94.8989 173.64 94.471 172.935 94.1794C172.229 93.8879 171.473 93.7387 170.71 93.74H142.96C141.881 93.74 140.845 93.3111 140.082 92.5479C139.319 91.7846 138.89 90.7494 138.89 89.6699V67.24C138.89 66.683 138.669 66.149 138.275 65.7551C137.881 65.3613 137.347 65.1399 136.79 65.1399C136.233 65.1399 135.699 65.3613 135.305 65.7551C134.911 66.149 134.69 66.683 134.69 67.24V89.6699C134.693 91.8624 135.565 93.9645 137.115 95.5149C138.665 97.0652 140.767 97.9373 142.96 97.9399H170.71C170.922 97.9392 171.133 97.9812 171.329 98.0637C171.525 98.1462 171.702 98.2674 171.85 98.4199C171.999 98.5697 172.118 98.7475 172.198 98.9431C172.279 99.1387 172.32 99.3485 172.32 99.5601V105.27C171.827 105.844 171.376 106.452 170.97 107.09C169.508 109.419 168.721 112.109 168.698 114.858C168.674 117.608 169.415 120.311 170.837 122.664C172.259 125.018 174.307 126.931 176.752 128.189C179.197 129.447 181.944 130.002 184.686 129.791C187.428 129.58 190.057 128.613 192.281 126.995C194.505 125.378 196.237 123.174 197.282 120.631C198.328 118.087 198.646 115.304 198.203 112.59C197.759 109.876 196.571 107.338 194.77 105.26V99.55C194.773 99.1212 194.944 98.7107 195.247 98.4075C195.551 98.1042 195.961 97.9326 196.39 97.9299H224.11C226.303 97.9273 228.404 97.0552 229.955 95.5049C231.505 93.9545 232.377 91.8524 232.38 89.6599V65.3799C232.39 65.1628 232.359 64.946 232.29 64.74C232.219 64.5007 232.103 64.2769 231.95 64.0801C231.773 63.841 231.544 63.6459 231.28 63.51C231.025 63.367 230.742 63.2817 230.45 63.26C230.201 63.2381 229.95 63.2618 229.71 63.3301C229.501 63.3947 229.302 63.4888 229.12 63.6099C226.508 65.2999 223.488 66.2544 220.38 66.3726C217.271 66.4907 214.187 65.7683 211.455 64.2815C208.722 62.7947 206.441 60.5985 204.851 57.9241C203.261 55.2497 202.422 52.1961 202.422 49.085C202.422 45.9738 203.261 42.9202 204.851 40.2458C206.441 37.5715 208.722 35.3752 211.455 33.8884C214.187 32.4016 217.271 31.6792 220.38 31.7974C223.488 31.9155 226.508 32.8701 229.12 34.5601C229.351 34.7163 229.611 34.8247 229.884 34.8794C230.158 34.9341 230.44 34.9338 230.713 34.8784C230.986 34.8231 231.246 34.7139 231.476 34.5571C231.707 34.4004 231.904 34.1991 232.056 33.9653C232.208 33.7316 232.312 33.47 232.362 33.1956C232.412 32.9211 232.407 32.6395 232.347 32.3672C232.286 32.0949 232.173 31.8372 232.012 31.6094C231.851 31.3815 231.646 31.188 231.41 31.04C228.168 28.9357 224.418 27.7447 220.556 27.5925C216.694 27.4403 212.863 28.3324 209.465 30.175C206.067 32.0177 203.23 34.7425 201.251 38.0625C199.272 41.3825 198.225 45.1749 198.22 49.04M142.92 0.189941C140.728 0.192588 138.626 1.06488 137.075 2.61523C135.525 4.16559 134.653 6.26743 134.65 8.45996V36.2C134.651 36.4122 134.611 36.6226 134.53 36.8191C134.45 37.0156 134.332 37.1944 134.182 37.345C134.032 37.4955 133.854 37.615 133.658 37.6965C133.462 37.7781 133.252 37.8201 133.04 37.8201H127.32C126.751 37.3218 126.142 36.8702 125.5 36.47C123.169 35.0058 120.478 34.2176 117.726 34.1934C114.974 34.1691 112.269 34.9097 109.913 36.3325C107.557 37.7553 105.642 39.8044 104.383 42.2515C103.123 44.6985 102.568 47.4475 102.779 50.1917C102.989 52.9358 103.958 55.5674 105.577 57.7932C107.196 60.019 109.401 61.7518 111.947 62.7979C114.493 63.8439 117.279 64.1623 119.995 63.7178C122.711 63.2732 125.251 62.0831 127.33 60.28H136.76C137.047 60.2999 137.336 60.2604 137.607 60.1641C137.878 60.0678 138.127 59.9167 138.338 59.7202C138.548 59.5237 138.716 59.2861 138.831 59.022C138.946 58.7579 139.005 58.473 139.005 58.1851C139.005 57.8971 138.946 57.612 138.831 57.3479C138.716 57.0838 138.548 56.8461 138.338 56.6497C138.127 56.4532 137.878 56.3021 137.607 56.2058C137.336 56.1095 137.047 56.0702 136.76 56.0901H126.48C126.227 56.0984 125.977 56.149 125.74 56.24C125.482 56.342 125.247 56.495 125.05 56.6899C123.618 58.0926 121.82 59.0635 119.862 59.4917C117.904 59.9199 115.865 59.7879 113.979 59.1108C112.092 58.4338 110.434 57.2391 109.196 55.6636C107.957 54.088 107.187 52.1954 106.974 50.2024C106.76 48.2094 107.113 46.1966 107.991 44.3948C108.869 42.5929 110.236 41.0747 111.937 40.0142C113.638 38.9536 115.603 38.3936 117.607 38.3982C119.612 38.4027 121.574 38.9718 123.27 40.04C123.912 40.4408 124.509 40.9102 125.05 41.4399C125.238 41.613 125.454 41.7517 125.69 41.8499C125.939 41.9465 126.203 41.9975 126.47 42H133.01C134.552 41.9974 136.03 41.3829 137.119 40.2917C138.208 39.2006 138.82 37.7218 138.82 36.1799V8.46997C138.82 7.93549 138.925 7.40615 139.13 6.91235C139.334 6.41856 139.634 5.96998 140.012 5.59204C140.39 5.21411 140.839 4.91425 141.333 4.70972C141.826 4.50518 142.356 4.3999 142.89 4.3999H224.11C225.176 4.42081 226.192 4.85865 226.94 5.61938C227.688 6.38012 228.108 7.40334 228.11 8.46997V22.5801C228.09 22.8674 228.13 23.1556 228.226 23.427C228.322 23.6984 228.473 23.9472 228.67 24.1577C228.866 24.3682 229.104 24.5361 229.368 24.6509C229.632 24.7657 229.917 24.8247 230.205 24.8247C230.493 24.8247 230.778 24.7657 231.042 24.6509C231.306 24.5361 231.544 24.3682 231.74 24.1577C231.937 23.9472 232.088 23.6984 232.184 23.427C232.28 23.1556 232.32 22.8674 232.3 22.5801V8.46997C232.297 6.27744 231.425 4.17535 229.875 2.625C228.325 1.07465 226.223 0.202598 224.03 0.199951L142.92 0.189941ZM96.1899 0.52002C96.1057 0.577781 96.0255 0.641205 95.95 0.709961C95.7242 0.906756 95.5432 1.14961 95.4191 1.42212C95.2949 1.69463 95.2304 1.99057 95.23 2.29004C95.2299 2.74606 95.3812 3.18922 95.66 3.55005C97.3286 6.16656 98.2629 9.18336 98.3655 12.2849C98.468 15.3865 97.7349 18.4587 96.2429 21.1797C94.7509 23.9007 92.5549 26.1706 89.8846 27.7517C87.2144 29.3328 84.1682 30.167 81.0649 30.167C77.9617 30.167 74.9156 29.3328 72.2454 27.7517C69.5751 26.1706 67.379 23.9007 65.887 21.1797C64.3949 18.4587 63.6618 15.3865 63.7644 12.2849C63.867 9.18336 64.8014 6.16656 66.47 3.55005C66.7413 3.18588 66.8886 2.74418 66.89 2.29004C66.8901 1.99291 66.8268 1.69919 66.7043 1.42847C66.5819 1.15774 66.4031 0.916158 66.1799 0.719971L65.9299 0.530029C65.5567 0.286651 65.1147 0.170783 64.67 0.199951H40.47C38.2792 0.205241 36.1798 1.0786 34.6316 2.62866C33.0834 4.17873 32.2126 6.27917 32.21 8.46997V36.21C32.21 36.6396 32.0393 37.0517 31.7355 37.3555C31.4317 37.6593 31.0196 37.8301 30.59 37.8301H24.87C24.2983 37.3317 23.6898 36.877 23.0499 36.47C20.7194 35.0058 18.0282 34.2176 15.276 34.1934C12.5238 34.1691 9.819 34.9097 7.46302 36.3325C5.10703 37.7553 3.19244 39.8044 1.93274 42.2515C0.673043 44.6985 0.117702 47.4475 0.328616 50.1917C0.539529 52.9358 1.50835 55.5674 3.1272 57.7932C4.74605 60.019 6.95134 61.7518 9.49707 62.7979C12.0428 63.8439 14.829 64.1623 17.5452 63.7178C20.2613 63.2732 22.8006 62.0831 24.88 60.28H34.3099C34.8406 60.2433 35.3375 60.0065 35.7004 59.6177C36.0633 59.2288 36.2651 58.7169 36.2651 58.1851C36.2651 57.6532 36.0633 57.141 35.7004 56.7522C35.3375 56.3633 34.8406 56.1268 34.3099 56.0901H24.02C23.7667 56.0984 23.5166 56.149 23.28 56.24C23.0221 56.342 22.7873 56.495 22.59 56.6899C21.158 58.0872 19.3618 59.0534 17.4066 59.4778C15.4515 59.9022 13.4163 59.7676 11.5339 59.0898C9.65155 58.4121 7.99791 57.2184 6.76209 55.645C5.52627 54.0716 4.75821 52.1822 4.54566 50.1929C4.33311 48.2035 4.68467 46.1945 5.56018 44.3955C6.43569 42.5966 7.79977 41.0802 9.49646 40.02C11.1932 38.9598 13.154 38.3986 15.1547 38.4004C17.1554 38.4021 19.1151 38.9669 20.8099 40.03C21.4473 40.4335 22.0405 40.9027 22.58 41.4299C22.7644 41.5998 22.9778 41.7354 23.21 41.8301C23.4602 41.9349 23.7287 41.9892 24 41.99H30.53C32.0719 41.9873 33.5496 41.3729 34.6389 40.2817C35.7282 39.1906 36.34 37.7118 36.34 36.1699V8.46997C36.34 7.93549 36.4452 7.40615 36.6498 6.91235C36.8543 6.41856 37.1542 5.96998 37.5321 5.59204C37.91 5.21411 38.3586 4.91425 38.8524 4.70972C39.3462 4.50518 39.8756 4.3999 40.41 4.3999H61.23C59.8324 7.66984 59.2677 11.2353 59.5866 14.7771C59.9054 18.3189 61.0977 21.7263 63.0568 24.6941C65.0158 27.6619 67.6804 30.0974 70.8119 31.7825C73.9434 33.4676 77.4439 34.3496 81 34.3496C84.5561 34.3496 88.0566 33.4676 91.1881 31.7825C94.3196 30.0974 96.9842 27.6619 98.9432 24.6941C100.902 21.7263 102.095 18.3189 102.413 14.7771C102.732 11.2353 102.168 7.66984 100.77 4.3999H121.59C122.124 4.3999 122.654 4.50518 123.147 4.70972C123.641 4.91425 124.09 5.21411 124.468 5.59204C124.846 5.96998 125.146 6.41856 125.35 6.91235C125.555 7.40615 125.66 7.93549 125.66 8.46997V22.5801C125.66 23.137 125.881 23.6711 126.275 24.0649C126.669 24.4588 127.203 24.6799 127.76 24.6799C128.317 24.6799 128.851 24.4588 129.245 24.0649C129.639 23.6711 129.86 23.137 129.86 22.5801V8.46997C129.857 6.27744 128.985 4.17535 127.435 2.625C125.884 1.07465 123.782 0.202598 121.59 0.199951H97.27C96.8668 0.202407 96.4722 0.316719 96.13 0.530029" fill="white"/>
</mask>
<g mask="url(#mask0_2_55)">
<path d="M154.756 -109.482L-60.9576 43.6484L78.1063 239.548L293.82 86.4174L154.756 -109.482Z" fill="url(#paint0_linear_2_55)"/>
</g>
<defs>
<linearGradient id="paint0_linear_2_55" x1="187.979" y1="16.8674" x2="36.4614" y2="124.426" gradientUnits="userSpaceOnUse">
<stop stop-color="#FF5E48"/>
<stop offset="0.166667" stop-color="#FF684D"/>
<stop offset="0.333333" stop-color="#FF7251"/>
<stop offset="0.5" stop-color="#FF7B56"/>
<stop offset="0.666667" stop-color="#FF845E"/>
<stop offset="0.833333" stop-color="#FF8160"/>
<stop offset="1" stop-color="#FE8163"/>
</linearGradient>
</defs>
</svg>
