<svg width="288" height="144" viewBox="0 0 288 144" fill="none" xmlns="http://www.w3.org/2000/svg">
<g clip-path="url(#clip0_266_1249)">
<path d="M238.103 0H192.962C191.688 0 190.508 0.633992 189.797 1.67821L169.862 31.3453C168.692 33.0794 166.135 33.0794 164.965 31.3453L145.03 1.67821C144.319 0.633992 143.139 0 141.865 0H96.7243C95.4509 0 94.2711 0.633992 93.5688 1.67821L0.41217 140.28C-0.65526 141.865 0.487077 144 2.40658 144H43.0532C45.5907 144 47.9596 142.741 49.3735 140.644L116.893 40.1746C118.035 38.4684 120.554 38.4684 121.697 40.1746L141.013 68.9093C142.099 70.5316 142.099 72.648 141.013 74.2703L96.6494 140.28C95.582 141.865 96.7243 144 98.6438 144H139.29C141.828 144 144.197 142.741 145.611 140.644L213.121 40.2025C214.273 38.487 216.801 38.487 217.952 40.2025L237.288 68.9652C238.355 70.5595 238.355 72.6293 237.288 74.2236L192.887 140.28C191.819 141.865 192.962 144 194.881 144H235.528C238.065 144 240.434 142.741 241.848 140.644L263.655 108.198L287.129 75.4077C288.281 73.8041 288.309 71.6597 287.214 70.0188L241.258 1.67821C240.556 0.624668 239.367 0 238.093 0H238.103Z" fill="#FF774D"/>
</g>
<defs>
<clipPath id="clip0_266_1249">
<rect width="288" height="144" fill="white"/>
</clipPath>
</defs>
</svg>
