<svg width="3686" height="325" viewBox="0 0 3686 325" fill="none" xmlns="http://www.w3.org/2000/svg">
<path d="M2316.74 25.324L2303.16 5.09804C2301.05 1.93947 2297.45 0 2293.63 0H2195.33C2191.5 0 2187.96 1.88406 2185.79 5.09804L1976.5 317.796C1974.5 320.789 1976.66 324.834 1980.27 324.834H2076.13C2079.95 324.834 2083.56 322.894 2085.72 319.736L2240.6 88.3291C2242.43 85.6138 2246.42 85.6138 2248.24 88.3291L2292.96 155.158C2295.57 159.037 2295.57 164.024 2292.96 167.903L2192.67 317.741C2190.61 320.789 2192.83 324.834 2196.43 324.834H2292.41C2296.18 324.834 2299.67 322.95 2301.77 319.847L2403.4 168.014C2406.01 164.079 2406.01 158.981 2403.4 155.102L2316.63 25.3794L2316.74 25.324Z" fill="#141F31"/>
<path d="M2812.8 7.09292C2814.85 4.04518 2812.69 0 2809.03 0H2459.26C2455.38 0 2451.72 1.93947 2449.56 5.15345L2406.17 69.9872C2404.12 73.035 2406.34 77.0801 2410 77.0801H2520.38C2524.04 77.0801 2526.2 81.1253 2524.15 84.1731L2367.94 317.63C2365.89 320.678 2368.1 324.778 2371.76 324.778H2467.46C2471.39 324.778 2475 322.839 2477.21 319.569L2636.19 82.0119C2638.24 78.9088 2641.74 77.0801 2645.39 77.0801H2759.93C2763.7 77.0801 2767.25 75.1961 2769.35 72.0375L2812.85 7.03751L2812.8 7.09292Z" fill="#141F31"/>
<path d="M2083.56 72.0929L2127.11 7.03751C2129.11 4.04518 2126.94 0 2123.34 0H1814.08C1810.26 0 1806.65 1.88406 1804.55 5.09804L1761.05 70.0426C1759 73.0904 1761.22 77.1356 1764.82 77.1356H2074.08C2077.85 77.1356 2081.39 75.2515 2083.5 72.0929H2083.56Z" fill="#141F31"/>
<path d="M1919.2 319.791L1962.64 254.847C1964.69 251.799 1962.48 247.643 1958.82 247.643H1649.72C1645.9 247.643 1642.35 249.527 1640.25 252.685L1596.75 317.685C1594.7 320.733 1596.91 324.778 1600.51 324.778H1909.78C1913.55 324.778 1917.09 322.894 1919.2 319.736V319.791Z" fill="#141F31"/>
<path d="M2000.99 195.886L2044.43 130.942C2046.48 127.894 2044.27 123.849 2040.61 123.849H1731.4C1727.58 123.849 1724.03 125.733 1721.93 128.892L1678.48 193.836C1676.43 196.884 1678.65 200.985 1682.31 200.985H1991.46C1995.28 200.985 1998.83 199.1 2000.99 195.886Z" fill="#141F31"/>
<path d="M3138.79 0.609548H3089.64C3085.82 0.609548 3082.27 2.49361 3080.17 5.65217L2921.63 242.545C2919.47 245.759 2915.86 247.698 2911.99 247.698H2823.44C2819.83 247.698 2817.67 243.708 2819.67 240.716L2975.93 7.20375C2978.04 4.1006 2975.82 0 2972.16 0H2876.41C2872.59 0 2868.99 1.88406 2866.88 5.09804L2657.64 317.741C2655.59 320.789 2657.8 324.834 2661.46 324.834H2971C2974.82 324.834 2978.37 322.95 2980.53 319.736L3189.27 7.75789C3191.33 4.71014 3189.11 0.609548 3185.45 0.609548H3138.79Z" fill="#141F31"/>
<path d="M1035.52 0H824.062C820.238 0 816.637 1.88406 814.531 5.09804L605.29 317.741C603.239 320.789 605.456 324.834 609.113 324.834H922.642C926.466 324.834 930.012 322.95 932.118 319.791L1090.99 82.6215V82.3998L1141.3 7.20375C1143.3 4.1006 1141.08 0 1137.42 0H1035.52ZM950.848 126.731L879.143 233.9C876.982 237.114 873.38 238.998 869.556 238.998H777.237C773.525 238.998 771.253 234.842 773.359 231.739L867.561 90.9335C869.723 87.7195 873.324 85.8355 877.148 85.8355H969.301C973.013 85.8355 975.285 89.9915 973.179 93.0946L950.682 126.731H950.848Z" fill="#141F31"/>
<path d="M597.088 238.112L644.023 168.014C646.628 164.135 646.628 159.147 644.023 155.269L543.448 5.09804C541.342 1.88406 537.74 0 533.972 0H435.669C431.845 0 428.299 1.88406 426.193 5.04263L377.318 78.0776C377.041 78.4655 376.432 78.4655 376.21 78.0776L327.28 5.04263C325.174 1.88406 321.628 0 317.804 0H219.445C215.677 0 212.131 1.88406 210.025 5.04263L0.783698 317.685C-1.2666 320.733 0.949938 324.834 4.60723 324.834H100.473C104.241 324.834 107.787 322.95 109.948 319.791L264.884 88.2182C266.657 85.5584 270.647 85.5584 272.421 88.2182L317.139 154.991C319.799 158.926 319.799 164.079 317.139 168.014L216.952 317.741C214.901 320.789 217.118 324.889 220.775 324.889H316.64C320.464 324.889 324.01 323.005 326.116 319.847L481.052 88.3845C482.881 85.6692 486.871 85.6692 488.699 88.3845L533.363 155.102C536.022 159.037 536.022 164.19 533.363 168.124L433.23 317.796C431.18 320.844 433.397 325 437.054 325H532.808C536.632 325 540.234 323.116 542.34 319.902L592.987 244.263L597.199 238.333L597.088 238.112Z" fill="#141F31"/>
<path d="M1591.87 238.112L1638.81 168.014C1641.41 164.135 1641.41 159.147 1638.81 155.269L1538.23 5.09804C1536.07 1.88406 1532.52 0 1528.7 0H1430.4C1426.57 0 1423.03 1.88406 1420.92 5.04263L1372.05 78.0776C1371.77 78.4655 1371.16 78.4655 1370.94 78.0776L1322.06 5.04263C1319.96 1.88406 1316.36 0 1312.59 0H1214.23C1210.41 0 1206.86 1.88406 1204.75 5.04263L995.568 317.63C993.518 320.678 995.734 324.778 999.391 324.778H1095.26C1099.02 324.778 1102.57 322.894 1104.73 319.736L1259.72 88.1628C1261.5 85.503 1265.49 85.503 1267.26 88.1628L1311.98 154.936C1314.64 158.87 1314.64 164.024 1311.98 167.958L1211.79 317.685C1209.74 320.733 1211.96 324.834 1215.61 324.834H1311.48C1315.3 324.834 1318.85 322.95 1320.96 319.791L1475.89 88.3291C1477.72 85.6138 1481.71 85.6138 1483.54 88.3291L1528.2 155.047C1530.86 158.981 1530.86 164.135 1528.2 168.069L1428.07 317.741C1426.02 320.789 1428.24 324.945 1431.89 324.945H1527.65C1531.47 324.945 1535.07 323.061 1537.18 319.847L1587.83 244.207L1592.04 238.278L1591.87 238.112Z" fill="#141F31"/>
<path d="M3636.63 238.112L3683.56 168.014C3686.17 164.135 3686.17 159.147 3683.56 155.269L3582.99 5.04263C3580.88 1.88406 3577.28 0 3573.46 0H3475.15C3471.33 0 3467.78 1.88406 3465.68 5.04263L3416.8 78.0776C3416.53 78.4655 3415.92 78.4655 3415.69 78.0776L3366.82 5.04263C3364.71 1.88406 3361.17 0 3357.34 0H3258.99C3255.16 0 3251.62 1.88406 3249.51 5.04263L3040.32 317.63C3038.27 320.678 3040.49 324.778 3044.15 324.778H3140.01C3143.78 324.778 3147.33 322.894 3149.49 319.736L3304.48 88.1628C3306.25 85.503 3310.24 85.503 3312.02 88.1628L3356.73 154.936C3359.39 158.87 3359.39 164.024 3356.73 167.958L3256.55 317.685C3254.5 320.733 3256.71 324.834 3260.37 324.834H3356.24C3360.06 324.834 3363.61 322.95 3365.71 319.791L3520.65 88.3291C3522.48 85.6138 3526.47 85.6138 3528.29 88.3291L3572.96 155.047C3575.62 158.981 3575.62 164.135 3572.96 168.069L3472.83 317.741C3470.78 320.789 3472.99 324.945 3476.65 324.945H3572.4C3576.23 324.945 3579.83 323.061 3581.94 319.847L3632.58 244.207L3636.79 238.278L3636.63 238.112Z" fill="#141F31"/>
</svg>
