<svg width="1728" height="279" viewBox="0 0 1728 279" fill="none" xmlns="http://www.w3.org/2000/svg">
<path d="M1988.83 21.7396L1977.17 4.37647C1975.37 1.66496 1972.27 0 1968.99 0H1884.6C1881.32 0 1878.28 1.61739 1876.42 4.37647L1696.75 272.816C1695.03 275.385 1696.89 278.857 1699.98 278.857H1782.28C1785.56 278.857 1788.65 277.192 1790.51 274.481L1923.47 75.8271C1925.04 73.4962 1928.46 73.4962 1930.03 75.8271L1968.42 133.197C1970.66 136.527 1970.66 140.808 1968.42 144.138L1882.32 272.768C1880.56 275.385 1882.46 278.857 1885.55 278.857H1967.95C1971.18 278.857 1974.18 277.24 1975.98 274.576L2063.23 144.233C2065.46 140.856 2065.46 136.479 2063.23 133.149L1988.73 21.7872L1988.83 21.7396Z" fill="#141F31" fill-opacity="0.6"/>
<path d="M1788.65 61.889L1826.04 6.04143C1827.75 3.47263 1825.9 0 1822.81 0H1557.32C1554.04 0 1550.94 1.61739 1549.14 4.37647L1511.79 60.1289C1510.03 62.7453 1511.94 66.2179 1515.03 66.2179H1780.52C1783.75 66.2179 1786.8 64.6005 1788.6 61.889H1788.65Z" fill="#141F31" fill-opacity="0.6"/>
<path d="M1647.56 274.528L1684.85 218.776C1686.61 216.16 1684.71 212.592 1681.57 212.592H1416.22C1412.94 212.592 1409.9 214.209 1408.09 216.921L1370.75 272.721C1368.99 275.337 1370.89 278.81 1373.98 278.81H1639.47C1642.71 278.81 1645.75 277.192 1647.56 274.481V274.528Z" fill="#141F31" fill-opacity="0.6"/>
<path d="M1717.77 168.161L1755.07 112.409C1756.83 109.792 1754.92 106.32 1751.79 106.32H1486.34C1483.06 106.32 1480.02 107.937 1478.21 110.649L1440.91 166.401C1439.15 169.018 1441.06 172.538 1444.2 172.538H1709.59C1712.87 172.538 1715.92 170.92 1717.77 168.161Z" fill="#141F31" fill-opacity="0.6"/>
<path d="M888.954 0H707.426C704.143 0 701.051 1.61739 699.244 4.37647L519.618 272.768C517.858 275.385 519.761 278.857 522.9 278.857H792.053C795.336 278.857 798.38 277.24 800.188 274.528L936.572 70.9274V70.7371L979.766 6.18414C981.478 3.5202 979.576 0 976.436 0H888.954ZM816.267 108.793L754.711 200.794C752.855 203.553 749.763 205.171 746.481 205.171H667.229C664.042 205.171 662.091 201.603 663.899 198.939L744.768 78.0629C746.624 75.3038 749.716 73.6864 752.998 73.6864H832.108C835.295 73.6864 837.245 77.2542 835.437 79.9181L816.124 108.793H816.267Z" fill="#141F31" fill-opacity="0.6"/>
<path d="M512.577 204.41L552.869 144.233C555.105 140.903 555.105 136.622 552.869 133.292L466.529 4.37647C464.721 1.61739 461.629 0 458.394 0H374.005C370.722 0 367.678 1.61739 365.87 4.3289L323.913 67.0266C323.675 67.3596 323.152 67.3596 322.962 67.0266L280.957 4.3289C279.149 1.61739 276.105 0 272.823 0H188.385C185.15 0 182.106 1.61739 180.298 4.3289L0.672774 272.721C-1.08733 275.337 0.815485 278.857 3.95513 278.857H86.2518C89.4866 278.857 92.5311 277.24 94.3863 274.528L227.393 75.732C228.915 73.4486 232.34 73.4486 233.863 75.732L272.252 133.054C274.535 136.432 274.535 140.856 272.252 144.233L186.245 272.768C184.485 275.385 186.387 278.905 189.527 278.905H271.824C275.106 278.905 278.15 277.287 279.958 274.576L412.965 75.8747C414.535 73.5437 417.96 73.5437 419.53 75.8747L457.871 133.149C460.155 136.527 460.155 140.951 457.871 144.328L371.912 272.816C370.152 275.432 372.054 279 375.194 279H457.396C460.678 279 463.77 277.383 465.578 274.624L509.057 209.69L512.672 204.6L512.577 204.41Z" fill="#141F31" fill-opacity="0.6"/>
<path d="M1366.56 204.41L1406.85 144.233C1409.09 140.903 1409.09 136.622 1406.85 133.292L1320.51 4.37647C1318.66 1.61739 1315.61 0 1312.33 0H1227.94C1224.66 0 1221.61 1.61739 1219.81 4.3289L1177.85 67.0266C1177.61 67.3596 1177.09 67.3596 1176.9 67.0266L1134.94 4.3289C1133.13 1.61739 1130.04 0 1126.81 0H1042.37C1039.09 0 1036.04 1.61739 1034.24 4.3289L854.657 272.673C852.897 275.29 854.8 278.81 857.94 278.81H940.236C943.471 278.81 946.515 277.192 948.371 274.481L1081.42 75.6844C1082.95 73.401 1086.37 73.401 1087.89 75.6844L1126.28 133.007C1128.57 136.384 1128.57 140.808 1126.28 144.186L1040.28 272.721C1038.52 275.337 1040.42 278.857 1043.56 278.857H1125.86C1129.14 278.857 1132.18 277.24 1133.99 274.528L1267 75.8271C1268.57 73.4962 1271.99 73.4962 1273.56 75.8271L1311.9 133.102C1314.19 136.479 1314.19 140.903 1311.9 144.281L1225.94 272.768C1224.18 275.385 1226.09 278.952 1229.23 278.952H1311.43C1314.71 278.952 1317.8 277.335 1319.61 274.576L1363.09 209.642L1366.7 204.552L1366.56 204.41Z" fill="#141F31" fill-opacity="0.6"/>
</svg>
