<svg width="444" height="40" viewBox="0 0 444 40" fill="none" xmlns="http://www.w3.org/2000/svg">
<path d="M278.75 3.242L277.117 0.809429C276.864 0.429549 276.431 0.196289 275.971 0.196289H264.148C263.688 0.196289 263.261 0.422884 263.001 0.809429L237.829 38.4176C237.589 38.7775 237.849 39.264 238.283 39.264H249.812C250.272 39.264 250.705 39.0307 250.965 38.6509L269.593 10.8196C269.813 10.493 270.292 10.493 270.512 10.8196L275.891 18.8571C276.204 19.3236 276.204 19.9234 275.891 20.3899L263.828 38.4109C263.581 38.7775 263.848 39.264 264.281 39.264H275.824C276.277 39.264 276.697 39.0374 276.95 38.6642L289.173 20.4033C289.486 19.9301 289.486 19.3169 289.173 18.8504L278.736 3.24866L278.75 3.242Z" fill="#FF7043"/>
<path d="M338.412 1.04935C338.658 0.682802 338.399 0.196289 337.959 0.196289H295.892C295.425 0.196289 294.986 0.429549 294.726 0.816094L289.507 8.61364C289.261 8.98019 289.527 9.4667 289.967 9.4667H303.243C303.683 9.4667 303.943 9.95322 303.696 10.3198L284.909 38.3976C284.662 38.7641 284.929 39.2573 285.369 39.2573H296.878C297.351 39.2573 297.785 39.0241 298.051 38.6309L317.172 10.0598C317.418 9.68663 317.838 9.4667 318.278 9.4667H332.054C332.507 9.4667 332.934 9.24011 333.187 8.86023L338.419 1.04269L338.412 1.04935Z" fill="#FF7043"/>
<path d="M250.706 8.86689L255.944 1.04269C256.184 0.682803 255.924 0.196289 255.491 0.196289H218.296C217.836 0.196289 217.403 0.422884 217.15 0.809429L211.918 8.6203C211.672 8.98686 211.938 9.47337 212.371 9.47337H249.566C250.019 9.47337 250.446 9.24677 250.699 8.86689H250.706Z" fill="#FF7043"/>
<path d="M230.938 38.6573L236.164 30.8464C236.41 30.4798 236.144 29.98 235.704 29.98H198.529C198.069 29.98 197.642 30.2066 197.389 30.5865L192.157 38.404C191.911 38.7705 192.177 39.2571 192.611 39.2571H229.806C230.259 39.2571 230.685 39.0305 230.938 38.6506V38.6573Z" fill="#FF7043"/>
<path d="M240.776 23.7555L246.001 15.9446C246.247 15.5781 245.981 15.0916 245.541 15.0916H208.352C207.893 15.0916 207.466 15.3181 207.213 15.698L201.988 23.5089C201.741 23.8755 202.008 24.3686 202.448 24.3686H239.629C240.089 24.3686 240.516 24.142 240.776 23.7555Z" fill="#FF7043"/>
<path d="M377.619 0.269599H371.708C371.248 0.269599 370.822 0.496195 370.568 0.876075L351.501 29.3671C351.241 29.7537 350.808 29.9869 350.341 29.9869H339.691C339.258 29.9869 338.998 29.5071 339.238 29.1472L358.032 1.06268C358.286 0.689467 358.019 0.196289 357.579 0.196289H346.063C345.603 0.196289 345.17 0.422884 344.916 0.809429L319.751 38.4109C319.504 38.7775 319.771 39.264 320.211 39.264H357.439C357.899 39.264 358.326 39.0374 358.585 38.6509L383.691 1.12933C383.937 0.762777 383.671 0.269599 383.231 0.269599H377.619Z" fill="#FF7043"/>
<path d="M124.658 0.196289H99.2263C98.7664 0.196289 98.3332 0.422884 98.08 0.809429L72.9146 38.4109C72.668 38.7775 72.9346 39.264 73.3744 39.264H111.083C111.542 39.264 111.969 39.0374 112.222 38.6575L131.33 10.1332V10.1065L137.381 1.06268C137.621 0.689467 137.354 0.196289 136.914 0.196289H124.658ZM114.475 15.4382L105.851 28.3274C105.591 28.714 105.158 28.9406 104.698 28.9406H93.5947C93.1482 28.9406 92.875 28.4407 93.1282 28.0675L104.458 11.1328C104.718 10.7463 105.151 10.5197 105.611 10.5197H116.694C117.141 10.5197 117.414 11.0195 117.161 11.3928L114.455 15.4382H114.475Z" fill="#FF7043"/>
<path d="M71.9284 28.8335L77.5733 20.4028C77.8865 19.9363 77.8865 19.3364 77.5733 18.8699L65.4771 0.808941C65.2238 0.422396 64.7906 0.195801 64.3374 0.195801H52.5145C52.0546 0.195801 51.6281 0.422396 51.3749 0.802277L45.4967 9.58618C45.4634 9.63283 45.3901 9.63283 45.3634 9.58618L39.4786 0.802277C39.2253 0.422396 38.7988 0.195801 38.339 0.195801H26.5093C26.0562 0.195801 25.6296 0.422396 25.3764 0.802277L0.210954 38.4038C-0.0356346 38.7703 0.230948 39.2635 0.67081 39.2635H12.2005C12.6537 39.2635 13.0802 39.0369 13.3402 38.657L31.9743 10.8058C32.1876 10.4859 32.6674 10.4859 32.8807 10.8058L38.259 18.8366C38.5789 19.3098 38.5789 19.9296 38.259 20.4028L26.2094 38.4104C25.9628 38.777 26.2294 39.2702 26.6693 39.2702H38.199C38.6589 39.2702 39.0854 39.0436 39.3386 38.6637L57.9728 10.8258C58.1927 10.4992 58.6726 10.4992 58.8925 10.8258L64.2641 18.8499C64.584 19.3231 64.584 19.9429 64.2641 20.4161L52.2212 38.4171C51.9747 38.7837 52.2412 39.2835 52.6811 39.2835H64.1975C64.6573 39.2835 65.0905 39.0569 65.3438 38.6704L71.4352 29.5732L71.9417 28.8601L71.9284 28.8335Z" fill="#FF7043"/>
<path d="M191.571 28.8339L197.216 20.4033C197.529 19.9367 197.529 19.3369 197.216 18.8704L185.12 0.809429C184.86 0.422884 184.433 0.196289 183.973 0.196289H172.15C171.691 0.196289 171.264 0.422884 171.011 0.802765L165.133 9.58667C165.099 9.63332 165.026 9.63332 164.999 9.58667L159.121 0.802765C158.868 0.422884 158.435 0.196289 157.982 0.196289H146.152C145.692 0.196289 145.266 0.422884 145.012 0.802765L119.854 38.3976C119.607 38.7642 119.874 39.2573 120.313 39.2573H131.843C132.296 39.2573 132.723 39.0307 132.983 38.6509L151.624 10.7996C151.837 10.4797 152.317 10.4797 152.53 10.7996L157.908 18.8304C158.228 19.3036 158.228 19.9234 157.908 20.3966L145.859 38.4043C145.612 38.7708 145.879 39.264 146.319 39.264H157.848C158.308 39.264 158.735 39.0374 158.988 38.6575L177.622 10.8196C177.842 10.493 178.322 10.493 178.542 10.8196L183.913 18.8438C184.233 19.3169 184.233 19.9367 183.913 20.4099L171.87 38.4109C171.624 38.7775 171.89 39.2773 172.33 39.2773H183.847C184.307 39.2773 184.74 39.0507 184.993 38.6642L191.084 29.567L191.591 28.8539L191.571 28.8339Z" fill="#FF7043"/>
<path d="M437.494 28.8339L443.139 20.4033C443.452 19.9367 443.452 19.3369 443.139 18.8704L431.043 0.802765C430.789 0.422884 430.356 0.196289 429.896 0.196289H418.073C417.613 0.196289 417.187 0.422884 416.934 0.802765L411.055 9.58667C411.022 9.63332 410.949 9.63332 410.922 9.58667L405.044 0.802765C404.791 0.422884 404.364 0.196289 403.904 0.196289H392.075C391.615 0.196289 391.188 0.422884 390.935 0.802765L365.776 38.3976C365.53 38.7642 365.796 39.2573 366.236 39.2573H377.766C378.219 39.2573 378.646 39.0307 378.906 38.6509L397.546 10.7996C397.76 10.4797 398.24 10.4797 398.453 10.7996L403.831 18.8304C404.151 19.3036 404.151 19.9234 403.831 20.3966L391.782 38.4043C391.535 38.7708 391.802 39.264 392.241 39.264H403.771C404.231 39.264 404.657 39.0374 404.911 38.6575L423.545 10.8196C423.765 10.493 424.245 10.493 424.465 10.8196L429.836 18.8438C430.156 19.3169 430.156 19.9367 429.836 20.4099L417.793 38.4109C417.547 38.7775 417.813 39.2773 418.253 39.2773H429.77C430.229 39.2773 430.663 39.0507 430.916 38.6642L437.007 29.567L437.514 28.8539L437.494 28.8339Z" fill="#FF7043"/>
</svg>
