<svg width="4044" height="357" viewBox="0 0 4044 357" fill="none" xmlns="http://www.w3.org/2000/svg">
<path d="M2541.86 27.7848L2526.97 5.59344C2524.66 2.12794 2520.71 0 2516.51 0H2408.65C2404.46 0 2400.57 2.06714 2398.2 5.59344L2168.56 348.678C2166.37 351.961 2168.74 356.399 2172.7 356.399H2277.88C2282.07 356.399 2286.02 354.271 2288.4 350.806L2458.33 96.9124C2460.33 93.9333 2464.71 93.9333 2466.72 96.9124L2515.78 170.235C2518.64 174.491 2518.64 179.963 2515.78 184.219L2405.74 348.617C2403.49 351.961 2405.92 356.399 2409.87 356.399H2515.17C2519.31 356.399 2523.14 354.332 2525.45 350.927L2636.95 184.34C2639.81 180.024 2639.81 174.43 2636.95 170.174L2541.74 27.8456L2541.86 27.7848Z" fill="#0A1D32"/>
<path d="M3086.13 7.78217C3088.38 4.43827 3086.01 0 3081.99 0H2698.23C2693.98 0 2689.97 2.12794 2687.6 5.65424L2639.99 76.7882C2637.74 80.1321 2640.17 84.5703 2644.19 84.5703H2765.3C2769.31 84.5703 2771.68 89.0086 2769.43 92.3525L2598.04 348.495C2595.79 351.839 2598.22 356.338 2602.23 356.338H2707.23C2711.55 356.338 2715.5 354.211 2717.93 350.623L2892.36 89.9814C2894.61 86.5767 2898.44 84.5703 2902.46 84.5703H3028.13C3032.26 84.5703 3036.15 82.5032 3038.46 79.0377L3086.19 7.72138L3086.13 7.78217Z" fill="#0A1D32"/>
<path d="M2286.02 79.0985L2333.81 7.72138C2336 4.43827 2333.63 0 2329.68 0H1990.36C1986.17 0 1982.21 2.06714 1979.9 5.59344L1932.18 76.849C1929.93 80.1929 1932.36 84.6311 1936.31 84.6311H2275.63C2279.76 84.6311 2283.65 82.564 2285.96 79.0985H2286.02Z" fill="#0A1D32"/>
<path d="M2105.69 350.867L2153.36 279.611C2155.61 276.267 2153.18 271.707 2149.16 271.707H1810.03C1805.84 271.707 1801.95 273.774 1799.64 277.24L1751.91 348.556C1749.66 351.9 1752.09 356.338 1756.04 356.338H2095.36C2099.49 356.338 2103.38 354.271 2105.69 350.806V350.867Z" fill="#0A1D32"/>
<path d="M2195.43 214.922L2243.1 143.666C2245.35 140.322 2242.92 135.884 2238.9 135.884H1899.65C1895.46 135.884 1891.56 137.951 1889.25 141.417L1841.59 212.672C1839.34 216.016 1841.77 220.515 1845.78 220.515H2184.98C2189.17 220.515 2193.06 218.448 2195.43 214.922Z" fill="#0A1D32"/>
<path d="M3443.8 0.668781H3389.87C3385.68 0.668781 3381.79 2.73592 3379.48 6.20142L3205.53 266.114C3203.16 269.64 3199.21 271.768 3194.96 271.768H3097.8C3093.85 271.768 3091.48 267.391 3093.67 264.108L3265.12 7.90377C3267.43 4.49907 3265 0 3260.98 0H3155.92C3151.73 0 3147.78 2.06714 3145.47 5.59344L2915.89 348.617C2913.64 351.961 2916.07 356.399 2920.09 356.399H3259.71C3263.9 356.399 3267.79 354.332 3270.16 350.806L3499.19 8.51175C3501.44 5.16785 3499.01 0.668781 3494.99 0.668781H3443.8Z" fill="#0A1D32"/>
<path d="M1136.15 0H904.139C899.944 0 895.992 2.06714 893.682 5.59344L664.108 348.617C661.858 351.961 664.29 356.399 668.303 356.399H1012.3C1016.49 356.399 1020.39 354.332 1022.7 350.867L1197 90.6502V90.407L1252.21 7.90377C1254.4 4.49907 1251.97 0 1247.95 0H1136.15ZM1043.25 139.046L964.573 256.629C962.202 260.156 958.25 262.223 954.055 262.223H852.765C848.691 262.223 846.199 257.663 848.509 254.258L951.866 99.7699C954.237 96.2436 958.189 94.1765 962.384 94.1765H1063.49C1067.56 94.1765 1070.06 98.7363 1067.75 102.141L1043.06 139.046H1043.25Z" fill="#0A1D32"/>
<path d="M655.11 261.25L706.606 184.34C709.463 180.084 709.463 174.613 706.606 170.357L596.257 5.59344C593.947 2.06714 589.995 0 585.86 0H478.004C473.809 0 469.918 2.06714 467.608 5.53264L413.984 85.6647C413.68 86.0903 413.011 86.0903 412.768 85.6647L359.083 5.53264C356.773 2.06714 352.882 0 348.687 0H240.77C236.635 0 232.744 2.06714 230.434 5.53264L0.859853 348.556C-1.38968 351.9 1.04225 356.399 5.05493 356.399H110.236C114.37 356.399 118.261 354.332 120.632 350.867L290.624 96.7908C292.57 93.8725 296.947 93.8725 298.893 96.7908L347.957 170.053C350.875 174.369 350.875 180.024 347.957 184.34L238.034 348.617C235.784 351.961 238.216 356.46 242.229 356.46H347.41C351.605 356.46 355.496 354.393 357.806 350.927L527.798 96.9732C529.804 93.9941 534.182 93.9941 536.188 96.9732L585.192 170.174C588.11 174.491 588.11 180.145 585.192 184.462L475.329 348.678C473.08 352.022 475.512 356.582 479.524 356.582H584.584C588.779 356.582 592.731 354.515 595.041 350.988L650.611 267.999L655.231 261.493L655.11 261.25Z" fill="#0A1D32"/>
<path d="M1746.56 261.25L1798.06 184.34C1800.92 180.084 1800.92 174.613 1798.06 170.357L1687.71 5.59344C1685.34 2.06714 1681.45 0 1677.25 0H1569.4C1565.2 0 1561.31 2.06714 1559 5.53264L1505.38 85.6647C1505.07 86.0903 1504.4 86.0903 1504.16 85.6647L1450.54 5.53264C1448.22 2.06714 1444.27 0 1440.14 0H1332.22C1328.03 0 1324.14 2.06714 1321.83 5.53264L1092.31 348.496C1090.06 351.839 1092.49 356.338 1096.51 356.338H1201.69C1205.82 356.338 1209.71 354.271 1212.08 350.806L1382.14 96.73C1384.08 93.8117 1388.46 93.8117 1390.41 96.73L1439.47 169.992C1442.39 174.309 1442.39 179.963 1439.47 184.279L1329.55 348.556C1327.3 351.9 1329.73 356.399 1333.74 356.399H1438.92C1443.12 356.399 1447.01 354.332 1449.32 350.867L1619.31 96.9124C1621.32 93.9333 1625.69 93.9333 1627.7 96.9124L1676.7 170.113C1679.62 174.43 1679.62 180.084 1676.7 184.401L1566.84 348.617C1564.59 351.961 1567.02 356.521 1571.04 356.521H1676.1C1680.29 356.521 1684.24 354.454 1686.55 350.927L1742.12 267.938L1746.74 261.432L1746.56 261.25Z" fill="#0A1D32"/>
<path d="M3990.02 261.25L4041.51 184.34C4044.37 180.084 4044.37 174.613 4041.51 170.357L3931.16 5.53264C3928.85 2.06714 3924.9 0 3920.71 0H3812.85C3808.65 0 3804.76 2.06714 3802.45 5.53264L3748.83 85.6647C3748.52 86.0903 3747.86 86.0903 3747.61 85.6647L3693.99 5.53264C3691.68 2.06714 3687.79 0 3683.59 0H3575.68C3571.48 0 3567.59 2.06714 3565.28 5.53264L3335.77 348.496C3333.52 351.839 3335.95 356.338 3339.96 356.338H3445.14C3449.28 356.338 3453.17 354.271 3455.54 350.806L3625.59 96.73C3627.54 93.8117 3631.91 93.8117 3633.86 96.73L3682.92 169.992C3685.84 174.309 3685.84 179.963 3682.92 184.279L3573 348.556C3570.75 351.9 3573.18 356.399 3577.2 356.399H3682.38C3686.57 356.399 3690.46 354.332 3692.77 350.867L3862.76 96.9124C3864.77 93.9333 3869.15 93.9333 3871.15 96.9124L3920.16 170.113C3923.08 174.43 3923.08 180.084 3920.16 184.401L3810.3 348.617C3808.05 351.961 3810.48 356.521 3814.49 356.521H3919.55C3923.74 356.521 3927.7 354.454 3930.01 350.927L3985.58 267.938L3990.2 261.432L3990.02 261.25Z" fill="#0A1D32"/>
</svg>
