<svg width="444" height="40" viewBox="0 0 444 40" fill="none" xmlns="http://www.w3.org/2000/svg">
<path d="M279.029 3.20977L277.396 0.777203C277.143 0.397322 276.709 0.164062 276.249 0.164062H264.427C263.967 0.164062 263.54 0.390658 263.28 0.777203L238.108 38.3854C237.868 38.7453 238.128 39.2318 238.561 39.2318H250.091C250.551 39.2318 250.984 38.9985 251.244 38.6186L269.871 10.7874C270.091 10.4608 270.571 10.4608 270.791 10.7874L276.169 18.8249C276.483 19.2914 276.483 19.8912 276.169 20.3577L264.107 38.3787C263.86 38.7453 264.127 39.2318 264.56 39.2318H276.103C276.556 39.2318 276.976 39.0052 277.229 38.632L289.452 20.371C289.765 19.8979 289.765 19.2847 289.452 18.8182L279.015 3.21644L279.029 3.20977Z" fill="#10263D"/>
<path d="M338.69 1.01713C338.936 0.650576 338.676 0.164062 338.237 0.164062H296.17C295.703 0.164062 295.263 0.397322 295.003 0.783867L289.785 8.58141C289.538 8.94796 289.805 9.43448 290.245 9.43448H303.521C303.961 9.43448 304.221 9.92099 303.974 10.2875L285.187 38.3654C284.94 38.7319 285.207 39.2251 285.646 39.2251H297.156C297.629 39.2251 298.062 38.9918 298.329 38.5986L317.45 10.0276C317.696 9.65441 318.116 9.43448 318.556 9.43448H332.332C332.785 9.43448 333.211 9.20788 333.465 8.828L338.696 1.01046L338.69 1.01713Z" fill="#10263D"/>
<path d="M250.984 8.83467L256.223 1.01046C256.462 0.650576 256.203 0.164062 255.769 0.164062H218.574C218.115 0.164062 217.681 0.390658 217.428 0.777203L212.196 8.58808C211.95 8.95463 212.216 9.44114 212.65 9.44114H249.845C250.298 9.44114 250.724 9.21455 250.978 8.83467H250.984Z" fill="#10263D"/>
<path d="M231.217 38.625L236.442 30.8141C236.689 30.4476 236.422 29.9478 235.982 29.9478H198.808C198.348 29.9478 197.921 30.1743 197.668 30.5542L192.436 38.3718C192.19 38.7383 192.456 39.2248 192.889 39.2248H230.084C230.538 39.2248 230.964 38.9982 231.217 38.6184V38.625Z" fill="#10263D"/>
<path d="M241.054 23.7233L246.279 15.9124C246.526 15.5458 246.259 15.0593 245.819 15.0593H208.631C208.171 15.0593 207.744 15.2859 207.491 15.6658L202.266 23.4767C202.02 23.8432 202.286 24.3364 202.726 24.3364H239.908C240.367 24.3364 240.794 24.1098 241.054 23.7233Z" fill="#10263D"/>
<path d="M377.898 0.237373H371.986C371.526 0.237373 371.1 0.463968 370.847 0.843849L351.779 29.3349C351.519 29.7214 351.086 29.9547 350.62 29.9547H339.97C339.536 29.9547 339.277 29.4748 339.517 29.115L358.311 1.03046C358.564 0.657241 358.297 0.164062 357.857 0.164062H346.341C345.881 0.164062 345.448 0.390658 345.195 0.777203L320.029 38.3787C319.783 38.7453 320.049 39.2318 320.489 39.2318H357.717C358.177 39.2318 358.604 39.0052 358.864 38.6186L383.969 1.0971C384.216 0.730551 383.949 0.237373 383.509 0.237373H377.898Z" fill="#10263D"/>
<path d="M124.937 0.164062H99.5051C99.0452 0.164062 98.612 0.390658 98.3588 0.777203L73.1934 38.3787C72.9468 38.7453 73.2134 39.2318 73.6532 39.2318H111.361C111.821 39.2318 112.248 39.0052 112.501 38.6253L131.608 10.1009V10.0743L137.66 1.03046C137.9 0.657241 137.633 0.164062 137.193 0.164062H124.937ZM114.754 15.4059L106.13 28.2952C105.87 28.6818 105.437 28.9083 104.977 28.9083H93.8735C93.427 28.9083 93.1538 28.4085 93.407 28.0353L104.737 11.1006C104.997 10.7141 105.43 10.4875 105.89 10.4875H116.973C117.419 10.4875 117.693 10.9873 117.439 11.3605L114.734 15.4059H114.754Z" fill="#10263D"/>
<path d="M72.2072 28.8012L77.8521 20.3705C78.1653 19.904 78.1653 19.3042 77.8521 18.8377L65.7559 0.776715C65.5026 0.39017 65.0694 0.163574 64.6162 0.163574H52.7933C52.3334 0.163574 51.9069 0.39017 51.6537 0.77005L45.7755 9.55395C45.7422 9.6006 45.6689 9.6006 45.6422 9.55395L39.7574 0.77005C39.5042 0.39017 39.0776 0.163574 38.6178 0.163574H26.7882C26.335 0.163574 25.9084 0.39017 25.6552 0.77005L0.489763 38.3715C0.243174 38.7381 0.509757 39.2313 0.949618 39.2313H12.4793C12.9325 39.2313 13.359 39.0047 13.619 38.6248L32.2531 10.7736C32.4664 10.4537 32.9462 10.4537 33.1595 10.7736L38.5378 18.8044C38.8577 19.2776 38.8577 19.8974 38.5378 20.3705L26.4882 38.3782C26.2417 38.7448 26.5082 39.2379 26.9481 39.2379H38.4778C38.9377 39.2379 39.3642 39.0113 39.6174 38.6315L58.2516 10.7936C58.4715 10.467 58.9514 10.467 59.1713 10.7936L64.5429 18.8177C64.8628 19.2909 64.8628 19.9107 64.5429 20.3839L52.5001 38.3849C52.2535 38.7514 52.5201 39.2513 52.9599 39.2513H64.4763C64.9361 39.2513 65.3693 39.0247 65.6226 38.6381L71.714 29.541L72.2205 28.8279L72.2072 28.8012Z" fill="#10263D"/>
<path d="M191.85 28.8017L197.495 20.371C197.808 19.9045 197.808 19.3047 197.495 18.8382L185.398 0.777203C185.139 0.390658 184.712 0.164062 184.252 0.164062H172.429C171.969 0.164062 171.543 0.390658 171.29 0.770538L165.411 9.55444C165.378 9.60109 165.305 9.60109 165.278 9.55444L159.4 0.770538C159.147 0.390658 158.714 0.164062 158.26 0.164062H146.431C145.971 0.164062 145.544 0.390658 145.291 0.770538L120.132 38.3654C119.886 38.7319 120.152 39.2251 120.592 39.2251H132.122C132.575 39.2251 133.002 38.9985 133.262 38.6186L151.902 10.7674C152.116 10.4475 152.595 10.4475 152.809 10.7674L158.187 18.7982C158.507 19.2714 158.507 19.8912 158.187 20.3644L146.137 38.372C145.891 38.7386 146.157 39.2318 146.597 39.2318H158.127C158.587 39.2318 159.013 39.0052 159.267 38.6253L177.901 10.7874C178.121 10.4608 178.601 10.4608 178.821 10.7874L184.192 18.8115C184.512 19.2847 184.512 19.9045 184.192 20.3777L172.149 38.3787C171.903 38.7453 172.169 39.2451 172.609 39.2451H184.126C184.585 39.2451 185.019 39.0185 185.272 38.632L191.363 29.5348L191.87 28.8217L191.85 28.8017Z" fill="#10263D"/>
<path d="M437.773 28.8017L443.418 20.371C443.731 19.9045 443.731 19.3047 443.418 18.8382L431.321 0.770538C431.068 0.390658 430.635 0.164062 430.175 0.164062H418.352C417.892 0.164062 417.466 0.390658 417.212 0.770538L411.334 9.55444C411.301 9.60109 411.228 9.60109 411.201 9.55444L405.323 0.770538C405.07 0.390658 404.643 0.164062 404.183 0.164062H392.354C391.894 0.164062 391.467 0.390658 391.214 0.770538L366.055 38.3654C365.809 38.7319 366.075 39.2251 366.515 39.2251H378.045C378.498 39.2251 378.924 38.9985 379.184 38.6186L397.825 10.7674C398.038 10.4475 398.518 10.4475 398.732 10.7674L404.11 18.7982C404.43 19.2714 404.43 19.8912 404.11 20.3644L392.06 38.372C391.814 38.7386 392.08 39.2318 392.52 39.2318H404.05C404.51 39.2318 404.936 39.0052 405.19 38.6253L423.824 10.7874C424.044 10.4608 424.523 10.4608 424.743 10.7874L430.115 18.8115C430.435 19.2847 430.435 19.9045 430.115 20.3777L418.072 38.3787C417.826 38.7453 418.092 39.2451 418.532 39.2451H430.048C430.508 39.2451 430.941 39.0185 431.195 38.632L437.286 29.5348L437.793 28.8217L437.773 28.8017Z" fill="#10263D"/>
</svg>
