<svg width="932" height="1075" viewBox="0 0 932 1075" fill="none" xmlns="http://www.w3.org/2000/svg">
<path d="M685.199 69.2546V375.57H257.606L252.052 73.6148C310.525 28.5201 385.006 1.49316 466.147 1.49316H466.057C547.048 1.49316 621.41 28.4305 679.824 73.3758" fill="url(#paint0_linear_266_2057)"/>
<path d="M252.08 73.6148C310.524 28.5201 385.035 1.49316 466.145 1.49316H466.056C547.047 1.49316 621.408 28.4305 679.822 73.3758" stroke="black" stroke-width="2.9864" stroke-miterlimit="10"/>
<path d="M207.315 678.271C177.6 688.246 138.628 651.961 120.291 597.25C101.955 542.54 111.183 490.128 140.927 480.154" fill="url(#paint1_linear_266_2057)"/>
<path d="M207.315 678.272C190.71 683.826 162.369 644.018 144.033 589.307C125.696 534.596 124.293 485.738 140.927 480.184" fill="url(#paint2_linear_266_2057)"/>
<path d="M724.022 678.271C753.737 688.246 792.71 651.961 811.046 597.25C829.383 542.54 820.155 490.128 790.41 480.154" fill="url(#paint3_linear_266_2057)"/>
<path d="M724.022 678.272C740.627 683.826 768.968 644.018 787.304 589.307C805.641 534.596 807.044 485.738 790.41 480.184" fill="url(#paint4_linear_266_2057)"/>
<path d="M465.998 508.554C465.998 508.554 465.968 508.554 465.938 508.554C465.909 508.554 465.909 508.554 465.879 508.554H465.998Z" stroke="black" stroke-width="2.9864" stroke-miterlimit="10"/>
<path d="M466.027 491.413C466.027 491.413 465.997 491.413 465.968 491.413C465.938 491.413 465.938 491.413 465.908 491.413H466.027Z" stroke="black" stroke-width="2.9864" stroke-miterlimit="10"/>
<path d="M620.633 724.979L672.716 801.909C675.314 805.731 674.597 810.898 671.103 813.884L523.396 939.88C507.389 953.558 487.021 961.054 465.937 961.054C444.883 961.054 424.516 953.558 408.479 939.88L260.772 813.884C257.248 810.898 256.561 805.731 259.159 801.909L311.242 724.979" stroke="black" stroke-width="2.9864" stroke-miterlimit="10"/>
<path d="M610.389 736.656L671.102 813.884" stroke="black" stroke-width="2.9864" stroke-miterlimit="10"/>
<path d="M319.632 736.625L258.918 813.854" stroke="black" stroke-width="2.9864" stroke-miterlimit="10"/>
<path d="M397.548 856.082H534.206" stroke="black" stroke-width="1.4932" stroke-miterlimit="10"/>
<path d="M397.548 871.342H534.206" stroke="black" stroke-width="1.4932" stroke-miterlimit="10"/>
<path d="M397.548 886.603H534.206" stroke="black" stroke-width="1.4932" stroke-miterlimit="10"/>
<path d="M465.879 767.386V826.218" stroke="black" stroke-width="1.4932" stroke-miterlimit="10"/>
<path d="M812.66 315.513L792.95 469.94L786.141 520.29C782.498 547.108 770.403 572.045 751.559 591.486L596.773 751.259" stroke="black" stroke-width="2.9864" stroke-miterlimit="10"/>
<path d="M117.365 315.513L138.957 469.94L145.766 520.29C149.409 547.108 161.504 572.045 180.348 591.486L335.134 751.259" stroke="black" stroke-width="2.9864" stroke-miterlimit="10"/>
<path d="M713.808 547.557C705.505 593.159 683.376 607.942 651.123 636.133C561.173 714.765 466.802 767.386 466.802 767.386H465.249C465.249 767.386 370.879 714.765 280.929 636.133C248.676 607.942 226.546 593.159 218.244 547.557" stroke="black" stroke-width="2.9864" stroke-miterlimit="10" stroke-linecap="square"/>
<path d="M713.808 547.557C705.505 590.65 683.376 604.597 651.123 631.265C561.173 705.567 466.802 755.291 466.802 755.291H465.249C465.249 755.291 370.879 705.567 280.929 631.265C248.676 604.627 226.546 590.65 218.244 547.557" stroke="black" stroke-width="1.4932" stroke-miterlimit="10"/>
<path d="M397.548 856.082H534.206" stroke="black" stroke-width="1.4932" stroke-miterlimit="10"/>
<path d="M534.206 886.603H397.548" stroke="black" stroke-width="1.4932" stroke-miterlimit="10"/>
<path d="M207.314 678.271C177.599 688.246 138.627 651.961 120.29 597.25C101.954 542.54 111.182 490.128 140.926 480.154" fill="url(#paint5_linear_266_2057)"/>
<path d="M724.021 678.271C753.736 688.246 792.709 651.961 811.045 597.25C829.382 542.54 820.154 490.128 790.409 480.154" fill="url(#paint6_linear_266_2057)"/>
<path d="M724.021 678.272C740.626 683.826 768.967 644.018 787.303 589.307C805.64 534.596 807.043 485.738 790.409 480.184" fill="url(#paint7_linear_266_2057)"/>
<path d="M180.019 499.983L191.068 527.577L465.25 706.612H465.877L740.058 527.577L751.108 499.983" stroke="black" stroke-width="2.9864" stroke-miterlimit="10"/>
<path d="M574.732 488.307L593.338 460.473C594.353 458.95 594.353 456.949 593.338 455.426L553.439 395.788C552.603 394.534 551.17 393.787 549.676 393.787H510.644C509.121 393.787 507.718 394.534 506.881 395.788L487.5 424.756C487.38 424.905 487.171 424.905 487.052 424.756L467.67 395.788C466.834 394.534 465.43 393.787 463.907 393.787H424.875C423.352 393.787 421.948 394.534 421.112 395.788L338.09 519.873C337.284 521.097 338.15 522.71 339.613 522.71H377.66C379.153 522.71 380.586 521.963 381.423 520.709L442.943 428.788C443.659 427.713 445.212 427.713 445.929 428.788L463.668 455.307C464.713 456.86 464.713 458.921 463.668 460.473L423.919 519.903C423.113 521.097 423.979 522.74 425.442 522.74H463.489C465.012 522.74 466.416 521.993 467.252 520.739L528.742 428.877C529.459 427.802 531.041 427.802 531.788 428.877L549.497 455.367C550.543 456.92 550.543 458.98 549.497 460.533L509.748 519.933C508.942 521.157 509.808 522.77 511.271 522.77H549.258C550.781 522.77 552.215 522.023 553.051 520.739L573.15 490.696L574.822 488.337L574.732 488.307Z" stroke="black" stroke-width="1.4932" stroke-miterlimit="10"/>
<path d="M556.157 330.923L559.263 329.042C563.115 326.115 566.908 323.069 570.491 319.784C600.923 292.04 625.62 258.473 642.434 220.815C676.389 144.691 668.445 65.0439 685.199 69.2547C780.197 93.0862 816.123 149.828 833.414 194.713C847.988 232.611 842.433 275.376 819.259 308.704C760.337 393.518 701.326 460.085 656.261 506.106C617.288 545.884 570.014 576.376 517.961 595.488C501.297 601.611 483.677 604.657 465.938 604.657C448.198 604.657 430.549 601.611 413.915 595.488C361.862 576.346 314.587 545.884 275.614 506.106C230.549 460.115 171.538 393.518 112.616 308.704C89.442 275.376 83.8873 232.581 98.4609 194.713C115.752 149.798 151.649 93.0563 246.676 69.2547C263.43 65.0439 255.456 144.721 289.441 220.815C305.06 255.815 327.488 287.292 355.023 313.841C362.041 320.59 369.716 326.593 377.749 332.088L384.08 335.492C438.194 364.55 503.656 362.818 556.157 330.953V330.923Z" stroke="black" stroke-width="2.9864" stroke-miterlimit="10"/>
<path d="M320.53 277.915C320.53 277.915 210.929 318.201 219.5 445.482" stroke="black" stroke-width="1.4932" stroke-miterlimit="10"/>
<path d="M610.39 277.915C610.39 277.915 719.991 318.201 711.42 445.482" stroke="black" stroke-width="1.4932" stroke-miterlimit="10"/>
<path d="M117.366 315.514C117.366 315.514 57.1006 173.839 258.922 105.51" stroke="black" stroke-width="1.4932" stroke-miterlimit="10"/>
<path d="M812.659 315.514C812.659 315.514 872.925 173.839 671.104 105.51" stroke="black" stroke-width="1.4932" stroke-miterlimit="10"/>
<path d="M253.933 779.779H677.703L694.098 951.557C696.487 976.703 705.775 1000.68 720.946 1020.87C760.128 1073.01 830.009 1086.81 830.009 1086.81L931.816 1091.23V1133.19C931.816 1279.7 813.047 1398.47 666.534 1398.47H265.341C118.828 1398.47 0.0585938 1279.7 0.0585938 1133.19V1091.23L101.626 1086.81C101.626 1086.81 171.508 1073.01 210.689 1020.87C225.86 1000.68 235.148 976.703 237.537 951.557L253.933 779.779Z" fill="url(#paint8_linear_266_2057)"/>
<path style="mix-blend-mode:soft-light" d="M353.379 877.345L368.49 962.398C372.791 986.647 380.943 1010.03 392.62 1031.71L405.82 1056.23C420.603 1083.68 440.731 1107.87 465.07 1127.34L465.488 1127.67C490.544 1107.96 511.27 1083.32 526.381 1055.25L539.073 1031.68C550.75 1010 558.873 986.618 563.203 962.368L578.315 877.315" fill="url(#paint9_linear_266_2057)"/>
<path d="M117.335 1086.87L166.252 1089.14L211.287 1097.65L239.001 1105.8L284.633 1123.07L364.31 1156.16L331.101 1100.25L304.582 1007.55L310.883 951.706L307.778 872.119L307.479 864.354L306.762 840.612L288.127 823.59L265.938 797.697L253.873 780.167L237.508 951.617C235.118 976.762 225.831 1000.74 210.66 1020.93C173.27 1070.68 107.957 1085.53 102.074 1086.75L117.335 1086.93V1086.87Z" fill="url(#paint10_linear_266_2057)"/>
<path d="M117.335 1086.87L166.252 1089.14L211.287 1097.65L239.001 1105.8L284.633 1123.07L364.31 1156.16L331.101 1100.25L304.582 1007.55L310.883 951.706L307.778 872.119L307.479 864.354L306.762 840.612L288.127 823.59L265.938 797.697L253.873 780.167L237.508 951.617C235.118 976.762 225.831 1000.74 210.66 1020.93C173.27 1070.68 107.957 1085.53 102.074 1086.75L117.335 1086.93V1086.87Z" fill="url(#paint11_linear_266_2057)"/>
<path d="M567.327 1156.13L595.907 1117.36C610.451 1097.62 621.5 1075.46 627.802 1051.75C633.058 1031.95 636.074 1011.61 636.761 991.038L641.808 824.665L624.875 840.553L619.828 991.038C618.634 1027.11 610.242 1062.59 595.19 1095.38L567.327 1156.13Z" fill="url(#paint12_linear_266_2057)"/>
<path d="M364.339 1156.13L335.759 1117.36C321.216 1097.62 310.166 1075.46 303.865 1051.75C298.609 1031.95 295.592 1011.61 294.905 991.038L289.858 824.665L306.791 840.553L311.838 991.038C313.033 1027.11 321.425 1062.59 336.476 1095.38L364.339 1156.13Z" fill="url(#paint13_linear_266_2057)"/>
<path d="M353.379 877.345L368.49 962.398C372.791 986.647 380.943 1010.03 392.62 1031.71L405.82 1056.23C420.603 1083.68 440.731 1107.87 465.07 1127.34L465.488 1127.67C490.544 1107.96 511.27 1083.32 526.381 1055.25L539.073 1031.68C550.75 1010 558.873 986.618 563.203 962.368L578.315 877.315" stroke="black" stroke-width="1.4932" stroke-miterlimit="10"/>
<path d="M813.436 1086.87L764.519 1089.14L719.484 1097.65L691.77 1105.8L646.138 1123.07L566.461 1156.16L599.67 1100.25L626.189 1007.55L619.888 951.706L622.994 872.119L623.292 864.354L624.009 840.612L642.644 823.59L664.833 797.697L676.898 780.167L693.264 951.617C695.653 976.762 704.94 1000.74 720.111 1020.93C757.501 1070.68 822.814 1085.53 828.697 1086.75L813.436 1086.93V1086.87Z" fill="url(#paint14_linear_266_2057)"/>
<path d="M813.436 1086.87L764.519 1089.14L719.484 1097.65L691.77 1105.8L646.138 1123.07L566.461 1156.15L594.085 1097.83L611.824 1054.2L618.723 1008.12L619.888 951.676L622.994 872.088L623.292 864.324L624.009 840.582L642.644 823.559L664.833 797.667L676.898 780.137L693.264 951.587C695.653 976.732 704.94 1000.71 720.111 1020.9C757.501 1070.65 822.814 1085.5 828.697 1086.72L813.436 1086.9V1086.87Z" fill="url(#paint15_linear_266_2057)"/>
<g style="mix-blend-mode:multiply" opacity="0.4">
<path d="M193.757 1093.59C248.766 1105.6 265.161 1115.42 265.161 1115.42L364.37 1156.13C364.37 1156.13 347.526 1131.1 338.149 1122.62C242.793 1036.49 225.651 1032.94 232.102 982.615C232.102 982.615 225.89 1000.62 210.719 1020.81C173.33 1070.57 108.017 1085.41 102.134 1086.63C124.114 1085.77 159.592 1086.03 193.786 1093.5L193.757 1093.59Z" fill="url(#paint16_linear_266_2057)"/>
</g>
<path style="mix-blend-mode:multiply" d="M117.334 1086.87L166.251 1089.14L211.286 1097.65L239 1105.8L284.632 1123.07L364.309 1156.16L334.595 1115.75L321.305 1094.52L304.85 1056.56L296.906 1016.69L293.741 964.07L292.904 926.651L291.799 887.588L291.531 853.066L289.828 825.621L265.878 797.698L253.812 780.167L237.447 951.617C235.058 976.762 225.77 1000.74 210.599 1020.93C173.209 1070.68 107.897 1085.53 102.014 1086.75L117.274 1086.93L117.334 1086.87Z" fill="url(#paint17_linear_266_2057)"/>
<path style="mix-blend-mode:multiply" opacity="0.4" d="M677.584 779.78L667.191 795.279L637.148 830.429L616.482 847.78L559.651 891.262L509.688 923.097L480.362 934.266L466.893 935.222L455.604 934.386L433.863 928.98L407.195 915.034L358.308 881.885L310.137 843.569C310.137 843.569 300.64 835.625 300.282 835.386C299.923 835.148 289.859 824.665 289.859 824.665L267.849 799.818L253.843 780.586L240.554 919.872C278.332 956.336 387.246 1052.44 463.309 1028.43C552.543 1000.27 648.526 916.139 680.331 807.225L677.703 779.75H677.554L677.584 779.78Z" fill="url(#paint18_linear_266_2057)"/>
<path d="M830.039 1086.78C830.039 1086.78 760.157 1072.98 720.975 1020.84C705.805 1000.65 696.517 976.673 694.128 951.527L677.732 779.75" stroke="black" stroke-width="2.9864" stroke-miterlimit="10"/>
<path d="M567.326 1156.13L595.189 1095.38C610.241 1062.59 618.633 1027.11 619.827 991.037L624.874 840.552" stroke="black" stroke-width="2.9864" stroke-miterlimit="10"/>
<path d="M567.326 1156.13L595.906 1117.36C610.45 1097.62 621.499 1075.46 627.801 1051.75C633.057 1031.95 636.073 1011.61 636.76 991.037L641.807 824.665" stroke="black" stroke-width="2.9864" stroke-miterlimit="10"/>
<path d="M253.932 779.78L237.537 951.557C235.148 976.703 225.86 1000.68 210.689 1020.87C171.508 1073.01 101.626 1086.81 101.626 1086.81" stroke="black" stroke-width="2.9864" stroke-miterlimit="10"/>
<path d="M364.34 1156.13L336.477 1095.38C321.425 1062.59 313.034 1027.11 311.839 991.038L306.792 840.553" stroke="black" stroke-width="2.9864" stroke-miterlimit="10"/>
<path d="M364.339 1156.13L335.759 1117.36C321.216 1097.62 310.166 1075.46 303.865 1051.75C298.609 1031.95 295.592 1011.61 294.905 991.038L289.858 824.665" stroke="black" stroke-width="2.9864" stroke-miterlimit="10"/>
<path d="M353.379 877.345L368.49 962.398C372.791 986.647 380.943 1010.03 392.62 1031.71L405.82 1056.23C420.603 1083.68 440.731 1107.87 465.07 1127.34L465.488 1127.67C490.544 1107.96 511.27 1083.32 526.381 1055.25L539.073 1031.68C550.75 1010 558.873 986.618 563.203 962.368L578.315 877.315" stroke="black" stroke-width="1.4932" stroke-miterlimit="10"/>
<path d="M246.826 854.32L259.757 894.726C260.892 898.339 261.459 902.61 261.37 906.91L258.443 1033.92C258.294 1040.1 256.8 1045.81 254.381 1049.48L235.836 1078.48" stroke="black" stroke-width="1.4932" stroke-miterlimit="10"/>
<path d="M684.035 854.32L671.104 894.726C669.969 898.339 669.402 902.61 669.492 906.91L672.418 1033.92C672.568 1040.1 674.061 1045.81 676.48 1049.48L695.025 1078.48" stroke="black" stroke-width="1.4932" stroke-miterlimit="10"/>
<path d="M572.432 488.307L591.037 460.473C592.052 458.95 592.052 456.949 591.037 455.426L551.139 395.788C550.302 394.534 548.869 393.787 547.376 393.787H508.343C506.82 393.787 505.417 394.534 504.581 395.788L485.199 424.756C485.079 424.905 484.87 424.905 484.751 424.756L465.369 395.788C464.533 394.534 463.129 393.787 461.606 393.787H422.574C421.051 393.787 419.647 394.534 418.811 395.788L335.789 519.873C334.983 521.097 335.849 522.71 337.312 522.71H375.359C376.852 522.71 378.286 521.963 379.122 520.709L440.642 428.788C441.358 427.713 442.911 427.713 443.628 428.788L461.367 455.307C462.413 456.86 462.413 458.921 461.367 460.473L421.618 519.903C420.812 521.097 421.678 522.74 423.141 522.74H461.188C462.711 522.74 464.115 521.993 464.951 520.739L526.441 428.877C527.158 427.802 528.741 427.802 529.487 428.877L547.197 455.367C548.242 456.92 548.242 458.98 547.197 460.533L507.448 519.933C506.641 521.157 507.507 522.77 508.971 522.77H546.958C548.481 522.77 549.914 522.023 550.75 520.739L570.849 490.696L572.521 488.337L572.432 488.307Z" stroke="black" stroke-width="1.4932" stroke-miterlimit="10"/>
<path d="M465.578 644.226V706.672" stroke="black" stroke-width="1.4932" stroke-miterlimit="10"/>
<path d="M465.998 508.554C465.998 508.554 465.968 508.554 465.938 508.554C465.909 508.554 465.909 508.554 465.879 508.554H465.998Z" stroke="black" stroke-width="2.9864" stroke-miterlimit="10"/>
<path d="M466.027 491.413C466.027 491.413 465.997 491.413 465.968 491.413C465.938 491.413 465.938 491.413 465.908 491.413H466.027Z" stroke="black" stroke-width="2.9864" stroke-miterlimit="10"/>
<path d="M668.833 795.129C688.662 769.626 704.072 740.21 714.166 708.285L751.108 591.337H180.795L217.737 708.285C227.831 740.18 243.211 769.596 263.04 795.1" fill="url(#paint19_linear_266_2057)"/>
<path d="M610.39 736.655L671.103 813.884" stroke="black" stroke-width="2.9864" stroke-miterlimit="10"/>
<path d="M258.919 813.854L319.632 736.625" stroke="black" stroke-width="2.9864" stroke-miterlimit="10"/>
<path d="M465.879 767.386V826.218" stroke="black" stroke-width="1.4932" stroke-miterlimit="10"/>
<path d="M218.215 547.556C226.518 590.65 248.647 604.597 280.9 631.265C370.85 705.567 465.221 755.29 465.221 755.29H466.774C466.774 755.29 561.144 705.567 651.094 631.265C683.347 604.626 705.477 590.65 713.779 547.556V544.749L465.221 706.642L218.186 547.556H218.215Z" fill="#191919"/>
<path d="M218.215 547.556C226.518 590.65 248.647 604.597 280.9 631.265C370.85 705.567 465.221 755.29 465.221 755.29H466.774C466.774 755.29 561.144 705.567 651.094 631.265C683.347 604.626 705.477 590.65 713.779 547.556V544.749L465.221 706.642L218.186 547.556H218.215Z" fill="url(#paint20_linear_266_2057)"/>
<path d="M117.365 315.513L138.957 469.94L145.766 520.29C149.409 547.108 161.504 572.045 180.348 591.486L310.615 725.964L259.189 801.908C256.591 805.731 257.308 810.897 260.802 813.884L408.509 939.88C424.517 953.558 444.884 961.053 465.968 961.053C487.052 961.053 507.389 953.558 523.426 939.88L671.134 813.884C674.658 810.897 675.344 805.731 672.746 801.908L621.32 725.964L751.587 591.486C770.402 572.045 782.526 547.108 786.17 520.29L792.979 469.94L812.689 315.513L465.609 442.077L117.425 315.513H117.365ZM319.634 736.625L315.841 731.369L320.948 736.625H319.634ZM713.809 547.556C705.507 590.65 683.378 604.597 651.125 631.265C561.174 705.567 466.804 755.29 466.804 755.29H465.251C465.251 755.29 370.881 705.567 280.93 631.265C248.677 604.626 226.548 590.65 218.246 547.556L465.281 706.642L713.839 544.749V547.556H713.809Z" fill="url(#paint21_linear_266_2057)"/>
<path style="mix-blend-mode:multiply" d="M465.938 755.261H465.221C465.221 755.261 370.851 705.537 280.901 631.235C248.647 604.597 226.518 590.62 218.216 547.526L465.251 706.612L465.938 706.164V375.569L117.365 315.513L138.957 469.94L145.766 520.29C149.409 547.108 161.504 572.045 180.348 591.486L310.615 725.964L259.189 801.908C256.591 805.731 257.308 810.897 260.802 813.884L408.509 939.88C424.517 953.558 444.884 961.053 465.968 961.053V755.29L465.938 755.261ZM319.634 736.625L315.841 731.369L320.948 736.625H319.634Z" fill="url(#paint22_linear_266_2057)"/>
<path d="M713.808 547.557C705.505 593.159 683.376 607.942 651.123 636.133C561.173 714.765 466.802 767.386 466.802 767.386H465.249C465.249 767.386 370.879 714.765 280.929 636.133C248.676 607.942 226.546 593.159 218.244 547.557" stroke="black" stroke-width="2.9864" stroke-miterlimit="10" stroke-linecap="square"/>
<path d="M276.989 185.486C331.073 150.993 396.147 130.864 466.148 130.864H466.058C536.179 130.864 601.312 151.052 655.456 185.635" stroke="black" stroke-width="1.4932" stroke-miterlimit="10"/>
<path d="M574.732 488.307L593.338 460.473C594.353 458.95 594.353 456.949 593.338 455.426L553.439 395.788C552.603 394.534 551.17 393.787 549.676 393.787H510.644C509.121 393.787 507.718 394.534 506.881 395.788L487.5 424.756C487.38 424.905 487.171 424.905 487.052 424.756L467.67 395.788C466.834 394.534 465.43 393.787 463.907 393.787H424.875C423.352 393.787 421.948 394.534 421.112 395.788L338.09 519.873C337.284 521.097 338.15 522.71 339.613 522.71H377.66C379.153 522.71 380.586 521.963 381.423 520.709L442.943 428.788C443.659 427.713 445.212 427.713 445.929 428.788L463.668 455.307C464.713 456.86 464.713 458.921 463.668 460.473L423.919 519.903C423.113 521.097 423.979 522.74 425.442 522.74H463.489C465.012 522.74 466.416 521.993 467.252 520.739L528.742 428.877C529.459 427.802 531.041 427.802 531.788 428.877L549.497 455.367C550.543 456.92 550.543 458.98 549.497 460.533L509.748 519.933C508.942 521.157 509.808 522.77 511.271 522.77H549.258C550.781 522.77 552.215 522.023 553.051 520.739L573.15 490.696L574.822 488.337L574.732 488.307Z" stroke="black" stroke-width="1.4932" stroke-miterlimit="10"/>
<path style="mix-blend-mode:multiply" d="M664.474 62.595C664.474 62.595 640.792 325.398 467.64 325.398C294.489 325.398 268.059 62.595 268.059 62.595L240.166 84.6047L270.717 293.503L467.61 375.57L661.816 293.503L691.949 84.6047L664.444 62.595H664.474Z" fill="url(#paint23_linear_266_2057)"/>
<path d="M556.157 330.923L559.263 329.042C563.115 326.115 566.908 323.069 570.491 319.784C600.923 292.04 625.62 258.473 642.434 220.815C676.389 144.691 668.445 65.0439 685.199 69.2547C780.197 93.0862 816.123 149.828 833.414 194.713C847.988 232.611 842.433 275.376 819.259 308.704C760.337 393.518 701.326 460.085 656.261 506.105C617.288 545.884 570.014 576.375 517.961 595.488C501.297 601.611 483.677 604.657 465.938 604.657C448.198 604.657 430.549 601.611 413.915 595.488C361.862 576.346 314.587 545.884 275.614 506.105C230.549 460.115 171.538 393.518 112.616 308.704C89.442 275.376 83.8873 232.581 98.4609 194.713C115.752 149.798 151.649 93.0563 246.676 69.2547C263.43 65.0439 255.456 144.721 289.441 220.815C305.06 255.815 327.488 287.292 355.023 313.841C362.041 320.59 369.716 326.593 377.749 332.088L384.08 335.492C438.194 364.55 503.656 362.818 556.157 330.953V330.923Z" fill="url(#paint24_linear_266_2057)"/>
<path d="M320.53 277.915C320.53 277.915 210.929 318.201 219.5 445.482" stroke="black" stroke-width="1.4932" stroke-miterlimit="10"/>
<path d="M610.39 277.915C610.39 277.915 719.991 318.201 711.42 445.482" stroke="black" stroke-width="1.4932" stroke-miterlimit="10"/>
<path d="M117.366 315.514C117.366 315.514 57.1006 173.839 258.922 105.51" stroke="black" stroke-width="1.4932" stroke-miterlimit="10"/>
<path d="M812.659 315.514C812.659 315.514 872.925 173.839 671.104 105.51" stroke="black" stroke-width="1.4932" stroke-miterlimit="10"/>
<path d="M465.578 644.226V706.672" stroke="black" stroke-width="1.4932" stroke-miterlimit="10"/>
<path d="M574.732 488.157L593.338 460.324C594.353 458.801 594.353 456.8 593.338 455.277L553.439 395.639C552.603 394.384 551.17 393.638 549.676 393.638H510.644C509.121 393.638 507.718 394.384 506.881 395.639L487.5 424.607C487.38 424.756 487.171 424.756 487.052 424.607L467.67 395.639C466.834 394.384 465.43 393.638 463.907 393.638H424.875C423.352 393.638 421.948 394.384 421.112 395.639L338.09 519.724C337.284 520.948 338.15 522.561 339.613 522.561H377.66C379.153 522.561 380.586 521.814 381.423 520.56L442.943 428.638C443.659 427.563 445.212 427.563 445.929 428.638L463.668 455.158C464.713 456.711 464.713 458.771 463.668 460.324L423.919 519.753C423.113 520.948 423.979 522.591 425.442 522.591H463.489C465.012 522.591 466.416 521.844 467.252 520.59L528.742 428.728C529.459 427.653 531.041 427.653 531.788 428.728L549.497 455.217C550.543 456.77 550.543 458.831 549.497 460.384L509.748 519.783C508.942 521.008 509.808 522.62 511.271 522.62H549.258C550.781 522.62 552.215 521.874 553.051 520.59L573.15 490.546L574.822 488.187L574.732 488.157Z" fill="#FF5B00"/>
<path style="mix-blend-mode:hard-light" d="M457.098 410.869H433.983L357.173 522.561H377.63C379.123 522.561 380.556 521.814 381.393 520.56L442.912 428.638C443.629 427.563 445.182 427.563 445.899 428.638L463.638 455.158C464.683 456.711 464.683 458.771 463.638 460.324L423.889 519.754C423.083 520.948 423.949 522.591 425.412 522.591H444.256L488.156 455.785L457.158 410.899L457.098 410.869Z" fill="url(#paint25_linear_266_2057)"/>
<path style="mix-blend-mode:hard-light" d="M542.689 410.869H519.574L442.764 522.561H463.221C464.714 522.561 466.147 521.814 466.983 520.56L528.503 428.638C529.22 427.563 530.773 427.563 531.49 428.638L549.229 455.158C550.274 456.711 550.274 458.771 549.229 460.324L509.48 519.754C508.674 520.948 509.54 522.591 511.003 522.591H529.847L573.747 455.785L542.748 410.899L542.689 410.869Z" fill="url(#paint26_linear_266_2057)"/>
<g style="mix-blend-mode:multiply" opacity="0.6">
<path d="M508.225 563.743C321.933 609.823 75.5552 191.578 175.391 98.7903C131.61 126.414 110.526 163.446 98.4609 194.713C83.8873 232.611 89.442 275.376 112.616 308.704C171.538 393.518 230.549 460.085 275.614 506.106C314.587 545.884 361.862 576.376 413.915 595.489C430.579 601.611 448.198 604.657 465.938 604.657C483.677 604.657 501.326 601.611 517.961 595.489C570.014 576.346 617.288 545.884 656.261 506.106C701.326 460.115 760.337 393.518 819.259 308.704C830.308 292.817 837.297 274.779 840.044 256.174C787.543 342.839 660.89 525.935 508.195 563.713L508.225 563.743Z" fill="url(#paint27_linear_266_2057)"/>
</g>
<path d="M577.21 663.847C607.104 663.847 631.353 639.628 631.353 609.704C631.353 605.822 630.935 602.029 630.129 598.356L545.494 653.485C554.423 659.965 565.354 663.818 577.21 663.818V663.847Z" fill="url(#paint28_radial_266_2057)"/>
<path style="mix-blend-mode:soft-light" d="M588.589 648.886C599.4 648.886 608.15 640.135 608.15 629.325C608.15 624.696 606.537 620.455 603.849 617.11L571.208 638.374C574.463 644.615 581.003 648.916 588.559 648.916L588.589 648.886Z" fill="url(#paint29_linear_266_2057)"/>
<path d="M577.809 666.594C609.554 666.594 635.267 640.881 635.267 609.136C635.267 605.015 634.819 600.983 633.983 597.101L544.152 655.604C553.619 662.473 565.236 666.565 577.839 666.565L577.809 666.594Z" fill="url(#paint30_radial_266_2057)"/>
<path style="mix-blend-mode:soft-light" d="M589.875 650.707C601.343 650.707 610.66 641.419 610.66 629.921C610.66 625.023 608.958 620.514 606.121 616.96L571.479 639.508C574.943 646.137 581.871 650.677 589.905 650.677L589.875 650.707Z" fill="url(#paint31_linear_266_2057)"/>
<path d="M353.229 666.594C321.483 666.594 295.771 640.881 295.771 609.136C295.771 605.015 296.218 600.983 297.055 597.101L386.886 655.604C377.419 662.473 365.802 666.565 353.199 666.565L353.229 666.594Z" fill="url(#paint32_radial_266_2057)"/>
<path style="mix-blend-mode:soft-light" d="M341.165 650.707C329.697 650.707 320.38 641.419 320.38 629.921C320.38 625.023 322.082 620.514 324.919 616.96L359.561 639.508C356.097 646.137 349.169 650.677 341.135 650.677L341.165 650.707Z" fill="url(#paint33_linear_266_2057)"/>
<path style="mix-blend-mode:soft-light" d="M743.552 113.633C725.186 103.181 704.819 114.469 700.966 137.076C694.516 175.063 685.945 232.522 689.319 253.486C692.037 270.389 708.074 288.815 722.797 302.612C737.52 316.41 756.424 317.186 769.862 305.211L805.849 273.107C827.082 254.173 830.456 217.291 813.673 189.249C797.248 161.804 773.536 130.655 743.552 113.603V113.633Z" fill="url(#paint34_linear_266_2057)"/>
<path d="M505.297 3.61353C570.998 10.8108 630.965 35.7771 679.822 73.3759" stroke="black" stroke-width="2.9864" stroke-miterlimit="10"/>
<path d="M252.08 73.6148C300.609 36.1653 360.188 11.199 425.471 3.79272" stroke="black" stroke-width="2.9864" stroke-miterlimit="10"/>
<path d="M465.998 508.554C465.998 508.554 465.968 508.554 465.938 508.554C465.909 508.554 465.909 508.554 465.879 508.554H465.998Z" stroke="black" stroke-width="2.9864" stroke-miterlimit="10"/>
<path d="M466.027 491.413C466.027 491.413 465.997 491.413 465.968 491.413C465.938 491.413 465.938 491.413 465.908 491.413H466.027Z" stroke="black" stroke-width="2.9864" stroke-miterlimit="10"/>
<path d="M620.633 724.979L672.716 801.909C675.314 805.731 674.597 810.898 671.103 813.884L523.396 939.88C507.389 953.558 487.021 961.054 465.937 961.054C444.883 961.054 424.516 953.558 408.479 939.88L260.772 813.884C257.248 810.898 256.561 805.731 259.159 801.909L311.242 724.979" stroke="black" stroke-width="2.9864" stroke-miterlimit="10"/>
<path d="M610.389 736.656L671.102 813.884" stroke="black" stroke-width="2.9864" stroke-miterlimit="10"/>
<path d="M319.632 736.625L258.918 813.854" stroke="black" stroke-width="2.9864" stroke-miterlimit="10"/>
<path d="M465.879 767.386V826.218" stroke="black" stroke-width="1.4932" stroke-miterlimit="10"/>
<path d="M812.66 315.513L792.95 469.94L786.141 520.29C782.498 547.108 770.403 572.045 751.559 591.486L596.773 751.259" stroke="black" stroke-width="2.9864" stroke-miterlimit="10"/>
<path d="M117.365 315.513L138.957 469.94L145.766 520.29C149.409 547.108 161.504 572.045 180.348 591.486L335.134 751.259" stroke="black" stroke-width="2.9864" stroke-miterlimit="10"/>
<path d="M713.808 547.556C705.505 593.159 683.376 607.941 651.123 636.133C561.173 714.765 466.802 767.385 466.802 767.385H465.249C465.249 767.385 370.879 714.765 280.929 636.133C248.676 607.941 226.546 593.159 218.244 547.556" stroke="black" stroke-width="2.9864" stroke-miterlimit="10" stroke-linecap="square"/>
<path d="M713.808 547.556C705.505 590.65 683.376 604.596 651.123 631.265C561.173 705.567 466.802 755.29 466.802 755.29H465.249C465.249 755.29 370.879 705.567 280.929 631.265C248.676 604.626 226.546 590.65 218.244 547.556" stroke="black" stroke-width="1.4932" stroke-miterlimit="10"/>
<path d="M207.314 678.271C177.599 688.246 138.627 651.961 120.29 597.25C101.954 542.54 111.182 490.128 140.926 480.154" stroke="black" stroke-width="2.9864" stroke-miterlimit="10"/>
<path d="M140.927 480.154C124.323 485.708 125.696 534.596 144.033 589.277C162.369 643.988 190.71 683.826 207.315 678.242" stroke="black" stroke-width="1.4932" stroke-miterlimit="10"/>
<path d="M724.021 678.271C753.736 688.246 792.709 651.961 811.045 597.25C829.382 542.54 820.154 490.128 790.409 480.154" stroke="black" stroke-width="2.9864" stroke-miterlimit="10"/>
<path d="M724.021 678.272C740.626 683.826 768.967 644.018 787.303 589.307C805.64 534.596 807.043 485.738 790.409 480.184" stroke="black" stroke-width="1.4932" stroke-miterlimit="10"/>
<path d="M195.609 511.451L206.629 539.075L465.252 706.613H465.879L724.023 539.404L735.043 511.78" stroke="black" stroke-width="2.9864" stroke-miterlimit="10"/>
<path d="M574.732 488.306L593.338 460.473C594.353 458.95 594.353 456.949 593.338 455.426L553.439 395.787C552.603 394.533 551.17 393.786 549.676 393.786H510.644C509.121 393.786 507.718 394.533 506.881 395.787L487.5 424.755C487.38 424.905 487.171 424.905 487.052 424.755L467.67 395.787C466.834 394.533 465.43 393.786 463.907 393.786H424.875C423.352 393.786 421.948 394.533 421.112 395.787L338.09 519.872C337.284 521.097 338.15 522.709 339.613 522.709H377.66C379.153 522.709 380.586 521.963 381.423 520.708L442.943 428.787C443.659 427.712 445.212 427.712 445.929 428.787L463.668 455.306C464.713 456.859 464.713 458.92 463.668 460.473L423.919 519.902C423.113 521.097 423.979 522.739 425.442 522.739H463.489C465.012 522.739 466.416 521.993 467.252 520.738L528.742 428.877C529.459 427.801 531.041 427.801 531.788 428.877L549.497 455.366C550.543 456.919 550.543 458.98 549.497 460.532L509.748 519.932C508.942 521.156 509.808 522.769 511.271 522.769H549.258C550.781 522.769 552.215 522.022 553.051 520.738L573.15 490.695L574.822 488.336L574.732 488.306Z" stroke="black" stroke-width="1.4932" stroke-miterlimit="10"/>
<path d="M556.157 330.923L559.263 329.042C563.115 326.115 566.908 323.069 570.491 319.784C600.923 292.04 625.62 258.473 642.434 220.815C676.389 144.691 668.445 65.0439 685.199 69.2547C780.197 93.0862 816.123 149.828 833.414 194.713C847.988 232.611 842.433 275.376 819.259 308.704C760.337 393.518 701.326 460.085 656.261 506.106C617.288 545.884 570.014 576.376 517.961 595.488C501.297 601.611 483.677 604.657 465.938 604.657C448.198 604.657 430.549 601.611 413.915 595.488C361.862 576.346 314.587 545.884 275.614 506.106C230.549 460.115 171.538 393.518 112.616 308.704C89.442 275.376 83.8873 232.581 98.4609 194.713C115.752 149.798 151.649 93.0563 246.676 69.2547C263.43 65.0439 255.456 144.721 289.441 220.815C305.06 255.815 327.488 287.292 355.023 313.841C362.041 320.59 369.716 326.593 377.749 332.088L384.08 335.492C438.194 364.55 503.656 362.818 556.157 330.953V330.923Z" stroke="black" stroke-width="2.9864" stroke-miterlimit="10"/>
<path d="M320.53 277.915C320.53 277.915 210.929 318.201 219.5 445.482" stroke="black" stroke-width="1.4932" stroke-miterlimit="10"/>
<path d="M610.39 277.915C610.39 277.915 719.991 318.201 711.42 445.482" stroke="black" stroke-width="1.4932" stroke-miterlimit="10"/>
<path d="M117.366 315.514C117.366 315.514 57.1006 173.839 258.922 105.51" stroke="black" stroke-width="1.4932" stroke-miterlimit="10"/>
<path d="M812.659 315.514C812.659 315.514 872.925 173.839 671.104 105.51" stroke="black" stroke-width="1.4932" stroke-miterlimit="10"/>
<path d="M505.297 3.61353C570.998 10.8108 630.965 35.7771 679.822 73.3759" stroke="black" stroke-width="2.9864" stroke-miterlimit="10"/>
<path d="M252.08 73.6148C300.609 36.1653 360.188 11.199 425.471 3.79272" stroke="black" stroke-width="2.9864" stroke-miterlimit="10"/>
<path d="M465.998 508.554C465.998 508.554 465.968 508.554 465.938 508.554C465.909 508.554 465.909 508.554 465.879 508.554H465.998Z" stroke="black" stroke-width="2.9864" stroke-miterlimit="10"/>
<path d="M466.027 491.413C466.027 491.413 465.997 491.413 465.968 491.413C465.938 491.413 465.938 491.413 465.908 491.413H466.027Z" stroke="black" stroke-width="2.9864" stroke-miterlimit="10"/>
<path d="M263.043 795.1C243.244 769.596 227.834 740.21 217.74 708.285L180.798 591.337" stroke="black" stroke-width="2.9864" stroke-miterlimit="10"/>
<path d="M751.11 591.337L714.169 708.285C704.074 740.21 688.665 769.655 668.835 795.129" stroke="black" stroke-width="2.9864" stroke-miterlimit="10"/>
<path d="M465.879 767.386V826.218" stroke="black" stroke-width="1.4932" stroke-miterlimit="10"/>
<path d="M713.808 547.556C705.505 593.159 683.376 607.941 651.123 636.133C561.173 714.765 466.802 767.385 466.802 767.385H465.249C465.249 767.385 370.879 714.765 280.929 636.133C248.676 607.941 226.546 593.159 218.244 547.556" stroke="black" stroke-width="2.9864" stroke-miterlimit="10" stroke-linecap="square"/>
<path d="M499.386 132.387C556.784 137.703 610.002 156.577 655.455 185.635" stroke="black" stroke-width="1.4932" stroke-miterlimit="10"/>
<path d="M276.989 185.486C322.711 156.338 376.287 137.434 434.044 132.298" stroke="black" stroke-width="1.4932" stroke-miterlimit="10"/>
<path d="M386.917 859.844H543.106" stroke="black" stroke-width="2.9864" stroke-miterlimit="10" stroke-linecap="square"/>
<path d="M386.917 875.195H543.106" stroke="black" stroke-width="2.9864" stroke-miterlimit="10" stroke-linecap="square"/>
<path d="M386.917 844.465H543.106" stroke="black" stroke-width="2.9864" stroke-miterlimit="10" stroke-linecap="square"/>
<defs>
<linearGradient id="paint0_linear_266_2057" x1="252.082" y1="188.531" x2="685.229" y2="188.531" gradientUnits="userSpaceOnUse">
<stop stop-color="#92938E"/>
<stop offset="1" stop-color="#FAFAF7"/>
</linearGradient>
<linearGradient id="paint1_linear_266_2057" x1="110.854" y1="580.049" x2="207.315" y2="580.049" gradientUnits="userSpaceOnUse">
<stop stop-color="#344256"/>
<stop offset="1" stop-color="#3A445E"/>
</linearGradient>
<linearGradient id="paint2_linear_266_2057" x1="129.31" y1="579.481" x2="2.98524" y2="579.481" gradientUnits="userSpaceOnUse">
<stop stop-color="#344256"/>
<stop offset="1" stop-color="#3A445E"/>
</linearGradient>
<linearGradient id="paint3_linear_266_2057" x1="724.022" y1="580.049" x2="820.453" y2="580.049" gradientUnits="userSpaceOnUse">
<stop stop-color="#344256"/>
<stop offset="1" stop-color="#3A445E"/>
</linearGradient>
<linearGradient id="paint4_linear_266_2057" x1="724.022" y1="579.481" x2="801.997" y2="579.481" gradientUnits="userSpaceOnUse">
<stop stop-color="#344256"/>
<stop offset="1" stop-color="#3A445E"/>
</linearGradient>
<linearGradient id="paint5_linear_266_2057" x1="207.314" y1="580.049" x2="110.853" y2="580.049" gradientUnits="userSpaceOnUse">
<stop stop-color="#8D8F8A"/>
<stop offset="1" stop-color="#B0B1B1"/>
</linearGradient>
<linearGradient id="paint6_linear_266_2057" x1="724.021" y1="580.049" x2="820.452" y2="580.049" gradientUnits="userSpaceOnUse">
<stop stop-color="#CECFC6"/>
<stop offset="1" stop-color="#FEFDFB"/>
</linearGradient>
<linearGradient id="paint7_linear_266_2057" x1="-0.00179912" y1="579.481" x2="801.996" y2="579.481" gradientUnits="userSpaceOnUse">
<stop stop-color="#CECFC6"/>
<stop offset="1" stop-color="#FEFDFB"/>
</linearGradient>
<linearGradient id="paint8_linear_266_2057" x1="0.0585938" y1="1089.14" x2="931.846" y2="1089.14" gradientUnits="userSpaceOnUse">
<stop stop-color="#344256"/>
<stop offset="1" stop-color="#3A445E"/>
</linearGradient>
<linearGradient id="paint9_linear_266_2057" x1="353.379" y1="1002.54" x2="578.315" y2="1002.54" gradientUnits="userSpaceOnUse">
<stop stop-color="#797B77"/>
<stop offset="1" stop-color="#FEFDFB"/>
</linearGradient>
<linearGradient id="paint10_linear_266_2057" x1="0.0587635" y1="968.131" x2="931.846" y2="968.131" gradientUnits="userSpaceOnUse">
<stop stop-color="#344256"/>
<stop offset="1" stop-color="#3A445E"/>
</linearGradient>
<linearGradient id="paint11_linear_266_2057" x1="102.104" y1="968.131" x2="364.34" y2="968.131" gradientUnits="userSpaceOnUse">
<stop stop-color="#CECFC6"/>
<stop offset="1" stop-color="#FEFDFB"/>
</linearGradient>
<linearGradient id="paint12_linear_266_2057" x1="567.327" y1="990.411" x2="641.778" y2="990.411" gradientUnits="userSpaceOnUse">
<stop stop-color="#CECFC6"/>
<stop offset="0.47" stop-color="#FEFDFB"/>
</linearGradient>
<linearGradient id="paint13_linear_266_2057" x1="289.888" y1="990.411" x2="364.339" y2="990.411" gradientUnits="userSpaceOnUse">
<stop stop-color="#CECFC6"/>
<stop offset="0.47" stop-color="#FEFDFB"/>
</linearGradient>
<linearGradient id="paint14_linear_266_2057" x1="930.742" y1="968.131" x2="-1.04485" y2="968.131" gradientUnits="userSpaceOnUse">
<stop stop-color="#344256"/>
<stop offset="1" stop-color="#3A445E"/>
</linearGradient>
<linearGradient id="paint15_linear_266_2057" x1="828.697" y1="968.131" x2="566.461" y2="968.131" gradientUnits="userSpaceOnUse">
<stop stop-color="#CECFC6"/>
<stop offset="1" stop-color="#FEFDFB"/>
</linearGradient>
<linearGradient id="paint16_linear_266_2057" x1="102.104" y1="1069.4" x2="364.34" y2="1069.4" gradientUnits="userSpaceOnUse">
<stop stop-color="#000004"/>
<stop offset="1" stop-color="#3A445E"/>
</linearGradient>
<linearGradient id="paint17_linear_266_2057" x1="102.103" y1="968.132" x2="364.339" y2="968.132" gradientUnits="userSpaceOnUse">
<stop offset="0.19" stop-color="#4D4F4D"/>
<stop offset="0.96" stop-color="#FEFDFB"/>
</linearGradient>
<linearGradient id="paint18_linear_266_2057" x1="217.14" y1="906.015" x2="684.363" y2="906.015" gradientUnits="userSpaceOnUse">
<stop/>
<stop offset="0.65" stop-color="#3D4761"/>
</linearGradient>
<linearGradient id="paint19_linear_266_2057" x1="751.108" y1="693.233" x2="180.795" y2="693.233" gradientUnits="userSpaceOnUse">
<stop offset="0.63" stop-color="#D4E0E1"/>
<stop offset="0.93" stop-color="#566567"/>
</linearGradient>
<linearGradient id="paint20_linear_266_2057" x1="218.215" y1="649.99" x2="713.809" y2="649.99" gradientUnits="userSpaceOnUse">
<stop/>
<stop offset="0.51" stop-color="#322D31"/>
<stop offset="1"/>
</linearGradient>
<linearGradient id="paint21_linear_266_2057" x1="117.365" y1="638.253" x2="812.659" y2="638.253" gradientUnits="userSpaceOnUse">
<stop stop-color="#CECFC6"/>
<stop offset="1" stop-color="#FEFDFB"/>
</linearGradient>
<linearGradient id="paint22_linear_266_2057" x1="117.365" y1="638.253" x2="465.938" y2="638.253" gradientUnits="userSpaceOnUse">
<stop stop-color="#515350"/>
<stop offset="1" stop-color="#FEFDFB"/>
</linearGradient>
<linearGradient id="paint23_linear_266_2057" x1="240.166" y1="219.082" x2="691.979" y2="219.082" gradientUnits="userSpaceOnUse">
<stop stop-color="#727471"/>
<stop offset="0.96" stop-color="#FEFDFB"/>
</linearGradient>
<linearGradient id="paint24_linear_266_2057" x1="90.4275" y1="336.866" x2="841.448" y2="336.866" gradientUnits="userSpaceOnUse">
<stop stop-color="#111B2B"/>
<stop offset="0.17" stop-color="#1F2E43"/>
<stop offset="0.38" stop-color="#2E415B"/>
<stop offset="0.58" stop-color="#364C69"/>
<stop offset="0.75" stop-color="#3A516F"/>
</linearGradient>
<linearGradient id="paint25_linear_266_2057" x1="357.173" y1="466.715" x2="488.097" y2="466.715" gradientUnits="userSpaceOnUse">
<stop stop-color="#626362"/>
<stop offset="1" stop-color="#B6B7B8"/>
</linearGradient>
<linearGradient id="paint26_linear_266_2057" x1="442.764" y1="0.000277101" x2="573.687" y2="0.000277101" gradientUnits="userSpaceOnUse">
<stop stop-color="#626362"/>
<stop offset="1" stop-color="#B6B7B8"/>
</linearGradient>
<linearGradient id="paint27_linear_266_2057" x1="840.074" y1="351.738" x2="90.4275" y2="351.738" gradientUnits="userSpaceOnUse">
<stop stop-color="#D4E0E1"/>
<stop offset="1" stop-color="#657375"/>
</linearGradient>
<radialGradient id="paint28_radial_266_2057" cx="0" cy="0" r="1" gradientUnits="userSpaceOnUse" gradientTransform="translate(588.409 631.117) scale(38.1662 38.1662)">
<stop stop-color="#FFF8AC"/>
<stop offset="0.32" stop-color="#FAAF40"/>
<stop offset="0.44" stop-color="#F9AB3F"/>
<stop offset="0.57" stop-color="#F89E3E"/>
<stop offset="0.7" stop-color="#F68A3C"/>
<stop offset="0.83" stop-color="#F36E3A"/>
<stop offset="0.95" stop-color="#EF4A36"/>
<stop offset="0.99" stop-color="#EE4036"/>
</radialGradient>
<linearGradient id="paint29_linear_266_2057" x1="571.238" y1="632.998" x2="608.15" y2="632.998" gradientUnits="userSpaceOnUse">
<stop stop-color="#CECFC6"/>
<stop offset="1" stop-color="#FEFDFB"/>
</linearGradient>
<radialGradient id="paint30_radial_266_2057" cx="0" cy="0" r="1" gradientUnits="userSpaceOnUse" gradientTransform="translate(589.695 631.863) scale(40.5255 40.5255)">
<stop stop-color="#FFF8AC"/>
<stop offset="0.32" stop-color="#FAAF40"/>
<stop offset="0.44" stop-color="#F9AB3F"/>
<stop offset="0.57" stop-color="#F89E3E"/>
<stop offset="0.7" stop-color="#F68A3C"/>
<stop offset="0.83" stop-color="#F36E3A"/>
<stop offset="0.95" stop-color="#EF4A36"/>
<stop offset="0.99" stop-color="#EE4036"/>
</radialGradient>
<linearGradient id="paint31_linear_266_2057" x1="571.479" y1="633.863" x2="610.66" y2="633.863" gradientUnits="userSpaceOnUse">
<stop stop-color="#CECFC6"/>
<stop offset="1" stop-color="#FEFDFB"/>
</linearGradient>
<radialGradient id="paint32_radial_266_2057" cx="0" cy="0" r="1" gradientUnits="userSpaceOnUse" gradientTransform="translate(341.343 631.863) rotate(180) scale(40.5255 40.5255)">
<stop stop-color="#FFF8AC"/>
<stop offset="0.32" stop-color="#FAAF40"/>
<stop offset="0.44" stop-color="#F9AB3F"/>
<stop offset="0.57" stop-color="#F89E3E"/>
<stop offset="0.7" stop-color="#F68A3C"/>
<stop offset="0.83" stop-color="#F36E3A"/>
<stop offset="0.95" stop-color="#EF4A36"/>
<stop offset="0.99" stop-color="#EE4036"/>
</radialGradient>
<linearGradient id="paint33_linear_266_2057" x1="359.591" y1="633.863" x2="320.41" y2="633.863" gradientUnits="userSpaceOnUse">
<stop stop-color="#CECFC6"/>
<stop offset="1" stop-color="#FEFDFB"/>
</linearGradient>
<linearGradient id="paint34_linear_266_2057" x1="682.54" y1="224.914" x2="818.176" y2="192.976" gradientUnits="userSpaceOnUse">
<stop stop-color="#CECFC6"/>
<stop offset="1" stop-color="#FEFDFB"/>
</linearGradient>
</defs>
</svg>
