<svg width="1176" height="104" viewBox="0 0 1176 104" fill="none" xmlns="http://www.w3.org/2000/svg">
<path d="M738.861 8.0764L734.531 1.62588C733.859 0.618543 732.711 0 731.491 0H700.14C698.921 0 697.789 0.60087 697.1 1.62588L630.351 101.353C629.714 102.307 630.404 103.597 631.552 103.597H662.126C663.345 103.597 664.494 102.979 665.183 101.971L714.578 28.1702C715.162 27.3042 716.434 27.3042 717.017 28.1702L731.279 49.4834C732.11 50.7205 732.11 52.311 731.279 53.5481L699.292 101.335C698.638 102.307 699.345 103.597 700.493 103.597H731.102C732.304 103.597 733.418 102.996 734.089 102.007L766.501 53.5835C767.331 52.3287 767.331 50.7028 766.501 49.4657L738.825 8.09407L738.861 8.0764Z" fill="#F56D42"/>
<path d="M897.066 2.2621C897.72 1.2901 897.031 0 895.865 0H784.315C783.078 0 781.911 0.618543 781.222 1.64356L767.384 22.3206C766.731 23.2925 767.438 24.5827 768.604 24.5827H803.808C804.974 24.5827 805.663 25.8728 805.01 26.8448L755.19 101.3C754.536 102.272 755.243 103.579 756.41 103.579H786.93C788.185 103.579 789.334 102.961 790.041 101.918L840.744 26.1555C841.398 25.1658 842.511 24.5827 843.677 24.5827H880.207C881.408 24.5827 882.539 23.9818 883.211 22.9744L897.084 2.24443L897.066 2.2621Z" fill="#F56D42"/>
<path d="M664.494 22.9921L678.384 2.24443C679.021 1.2901 678.331 0 677.183 0H578.552C577.332 0 576.184 0.60087 575.512 1.62588L561.639 22.3382C560.985 23.3102 561.692 24.6003 562.841 24.6003H661.472C662.673 24.6003 663.805 23.9995 664.476 22.9921H664.494Z" fill="#F56D42"/>
<path d="M612.077 101.989L625.932 81.2765C626.586 80.3045 625.879 78.979 624.713 78.979H526.135C524.915 78.979 523.784 79.5799 523.113 80.5872L509.24 101.317C508.586 102.289 509.293 103.579 510.441 103.579H609.072C610.274 103.579 611.405 102.978 612.077 101.971V101.989Z" fill="#F56D42"/>
<path d="M638.162 62.473L652.017 41.7606C652.671 40.7886 651.964 39.4985 650.798 39.4985H552.184C550.965 39.4985 549.834 40.0994 549.162 41.1067L535.307 61.8191C534.653 62.7911 535.36 64.0989 536.526 64.0989H635.122C636.342 64.0989 637.473 63.498 638.162 62.473Z" fill="#F56D42"/>
<path d="M1001.03 0.194399H985.358C984.139 0.194399 983.008 0.795269 982.336 1.80261L931.775 77.3532C931.086 78.3782 929.937 78.9967 928.7 78.9967H900.459C899.31 78.9967 898.621 77.7243 899.257 76.77L949.094 2.29744C949.766 1.30778 949.059 0 947.892 0H917.354C916.135 0 914.986 0.60087 914.314 1.62588L847.582 101.335C846.929 102.307 847.635 103.597 848.802 103.597H947.521C948.741 103.597 949.872 102.996 950.561 101.971L1017.13 2.47417C1017.79 1.50217 1017.08 0.194399 1015.91 0.194399H1001.03Z" fill="#F56D42"/>
<path d="M330.251 0H262.813C261.593 0 260.444 0.60087 259.773 1.62588L193.041 101.335C192.387 102.307 193.094 103.597 194.26 103.597H294.252C295.472 103.597 296.603 102.996 297.274 101.989L347.942 26.3499V26.2792L363.988 2.29744C364.625 1.30778 363.918 0 362.751 0H330.251ZM303.248 40.4173L280.379 74.5962C279.69 75.6213 278.541 76.2221 277.322 76.2221H247.879C246.695 76.2221 245.971 74.8967 246.642 73.907L276.686 29.0008C277.375 27.9758 278.524 27.3749 279.743 27.3749H309.133C310.317 27.3749 311.041 28.7004 310.37 29.69L303.195 40.4173H303.248Z" fill="#F56D42"/>
<path d="M190.425 75.9394L205.394 53.5835C206.225 52.3464 206.225 50.7558 205.394 49.5188L173.318 1.62588C172.647 0.60087 171.498 0 170.296 0H138.945C137.725 0 136.594 0.60087 135.923 1.60821L120.336 24.9008C120.247 25.0245 120.053 25.0245 119.982 24.9008L104.377 1.60821C103.706 0.60087 102.575 0 101.355 0H69.9862C68.7845 0 67.6534 0.60087 66.9819 1.60821L0.24994 101.317C-0.403948 102.289 0.302957 103.597 1.46935 103.597H32.043C33.2448 103.597 34.3758 102.996 35.0651 101.989L84.4778 28.1349C85.0433 27.2866 86.3157 27.2866 86.8812 28.1349L101.143 49.4304C101.991 50.6852 101.991 52.3287 101.143 53.5835L69.1909 101.335C68.537 102.307 69.2439 103.615 70.4103 103.615H100.984C102.203 103.615 103.334 103.014 104.006 102.007L153.419 28.1879C154.002 27.3219 155.274 27.3219 155.858 28.1879L170.102 49.4657C170.95 50.7205 170.95 52.3641 170.102 53.6188L138.167 101.353C137.513 102.325 138.22 103.65 139.387 103.65H169.925C171.144 103.65 172.293 103.049 172.965 102.024L189.118 77.901L190.461 76.0101L190.425 75.9394Z" fill="#F56D42"/>
<path d="M507.685 75.9394L522.653 53.5835C523.484 52.3464 523.484 50.7558 522.653 49.5188L490.577 1.62588C489.888 0.60087 488.757 0 487.538 0H456.186C454.967 0 453.836 0.60087 453.164 1.60821L437.577 24.9008C437.489 25.0245 437.294 25.0245 437.224 24.9008L421.636 1.60821C420.965 0.60087 419.816 0 418.614 0H387.245C386.026 0 384.895 0.60087 384.223 1.60821L317.509 101.3C316.855 102.272 317.562 103.579 318.729 103.579H349.302C350.504 103.579 351.635 102.979 352.324 101.971L401.755 28.1172C402.32 27.2689 403.593 27.2689 404.158 28.1172L418.42 49.4127C419.268 50.6675 419.268 52.311 418.42 53.5658L386.468 101.317C385.814 102.289 386.521 103.597 387.687 103.597H418.261C419.48 103.597 420.611 102.996 421.283 101.989L470.696 28.1702C471.279 27.3042 472.551 27.3042 473.135 28.1702L487.379 49.4481C488.227 50.7028 488.227 52.3464 487.379 53.6011L455.444 101.335C454.79 102.307 455.497 103.632 456.664 103.632H487.202C488.421 103.632 489.57 103.032 490.242 102.007L506.394 77.8834L507.738 75.9924L507.685 75.9394Z" fill="#F56D42"/>
<path d="M1159.81 75.9394L1174.77 53.5835C1175.6 52.3464 1175.6 50.7558 1174.77 49.5188L1142.7 1.60821C1142.03 0.60087 1140.88 0 1139.66 0H1108.31C1107.09 0 1105.96 0.60087 1105.29 1.60821L1089.7 24.9008C1089.61 25.0245 1089.42 25.0245 1089.34 24.9008L1073.76 1.60821C1073.09 0.60087 1071.95 0 1070.74 0H1039.37C1038.15 0 1037.02 0.60087 1036.34 1.60821L969.63 101.3C968.976 102.272 969.683 103.579 970.849 103.579H1001.42C1002.62 103.579 1003.76 102.979 1004.44 101.971L1053.88 28.1172C1054.44 27.2689 1055.71 27.2689 1056.28 28.1172L1070.54 49.4127C1071.39 50.6675 1071.39 52.311 1070.54 53.5658L1038.59 101.317C1037.93 102.289 1038.64 103.597 1039.81 103.597H1070.38C1071.6 103.597 1072.73 102.996 1073.4 101.989L1122.82 28.1702C1123.4 27.3042 1124.67 27.3042 1125.26 28.1702L1139.5 49.4481C1140.35 50.7028 1140.35 52.3464 1139.5 53.6011L1107.56 101.335C1106.91 102.307 1107.62 103.632 1108.78 103.632H1139.32C1140.54 103.632 1141.69 103.032 1142.36 102.007L1158.52 77.8834L1159.86 75.9924L1159.81 75.9394Z" fill="#F56D42"/>
</svg>
