<svg width="622" height="55" viewBox="0 0 622 55" fill="none" xmlns="http://www.w3.org/2000/svg">
<path d="M390.896 4.27358L388.606 0.860912C388.25 0.327975 387.643 0.000732422 386.998 0.000732422H370.411C369.766 0.000732422 369.167 0.318625 368.803 0.860912L333.489 53.6217C333.152 54.1266 333.517 54.8091 334.125 54.8091H350.3C350.945 54.8091 351.553 54.4819 351.917 53.9489L378.05 14.9043C378.358 14.4461 379.031 14.4461 379.34 14.9043L386.885 26.1801C387.325 26.8346 387.325 27.6761 386.885 28.3305L369.962 53.6123C369.616 54.1266 369.99 54.8091 370.598 54.8091H386.792C387.428 54.8091 388.017 54.4912 388.372 53.9676L405.519 28.3492C405.959 27.6854 405.959 26.8252 405.519 26.1707L390.878 4.28293L390.896 4.27358Z" fill="#FE8163"/>
<path d="M474.596 1.1975C474.941 0.683266 474.577 0.000732422 473.96 0.000732422H414.944C414.289 0.000732422 413.672 0.327975 413.308 0.870261L405.987 11.8095C405.641 12.3237 406.015 13.0063 406.632 13.0063H425.257C425.874 13.0063 426.239 13.6888 425.893 14.203L399.536 53.5936C399.19 54.1079 399.564 54.7998 400.181 54.7998H416.328C416.992 54.7998 417.599 54.4725 417.973 53.9209L444.798 13.8384C445.144 13.3148 445.733 13.0063 446.35 13.0063H465.676C466.312 13.0063 466.91 12.6884 467.265 12.1554L474.605 1.18815L474.596 1.1975Z" fill="#FE8163"/>
<path d="M351.552 12.1648L358.901 1.18815C359.238 0.683266 358.873 0.000732422 358.265 0.000732422H306.084C305.439 0.000732422 304.831 0.318625 304.476 0.860912L297.136 11.8188C296.79 12.3331 297.164 13.0156 297.772 13.0156H349.953C350.589 13.0156 351.187 12.6977 351.543 12.1648H351.552Z" fill="#FE8163"/>
<path d="M323.821 53.9578L331.151 42.9999C331.497 42.4857 331.123 41.7844 330.506 41.7844H278.353C277.708 41.7844 277.11 42.1023 276.754 42.6353L269.415 53.6025C269.069 54.1168 269.443 54.7993 270.05 54.7993H322.232C322.867 54.7993 323.466 54.4814 323.821 53.9485V53.9578Z" fill="#FE8163"/>
<path d="M337.622 33.0522L344.952 22.0942C345.298 21.58 344.924 20.8975 344.307 20.8975H292.136C291.49 20.8975 290.892 21.2154 290.537 21.7483L283.206 32.7062C282.861 33.2205 283.235 33.9123 283.852 33.9123H336.014C336.659 33.9123 337.258 33.5945 337.622 33.0522Z" fill="#FE8163"/>
<path d="M529.601 0.10358H521.308C520.663 0.10358 520.065 0.421472 519.709 0.954409L492.96 40.9247C492.595 41.467 491.987 41.7942 491.333 41.7942H476.392C475.784 41.7942 475.42 41.121 475.756 40.6161L502.122 1.2162C502.478 0.692616 502.104 0.000732422 501.487 0.000732422H485.33C484.685 0.000732422 484.077 0.318625 483.722 0.860912L448.417 53.6123C448.071 54.1266 448.445 54.8091 449.063 54.8091H501.29C501.936 54.8091 502.534 54.4912 502.899 53.9489L538.119 1.3097C538.465 0.795463 538.091 0.10358 537.474 0.10358H529.601Z" fill="#FE8163"/>
<path d="M174.72 0.000732422H139.042C138.397 0.000732422 137.789 0.318625 137.434 0.860912L102.129 53.6123C101.783 54.1266 102.157 54.8091 102.774 54.8091H155.675C156.32 54.8091 156.919 54.4912 157.274 53.9583L184.08 13.9412V13.9038L192.569 1.2162C192.906 0.692616 192.532 0.000732422 191.915 0.000732422H174.72ZM160.434 21.3837L148.335 39.4661C147.971 40.0084 147.363 40.3263 146.718 40.3263H131.141C130.515 40.3263 130.131 39.6251 130.487 39.1015L146.381 15.3437C146.746 14.8014 147.354 14.4835 147.999 14.4835H163.547C164.174 14.4835 164.557 15.1848 164.202 15.7084L160.406 21.3837H160.434Z" fill="#FE8163"/>
<path d="M100.745 40.176L108.664 28.3485C109.104 27.694 109.104 26.8526 108.664 26.1981L91.6946 0.860179C91.3393 0.317892 90.7315 0 90.0958 0H73.5093C72.8641 0 72.2657 0.317892 71.9105 0.850829L63.6639 13.1738C63.6172 13.2393 63.5144 13.2393 63.477 13.1738L55.2211 0.850829C54.8658 0.317892 54.2674 0 53.6223 0H37.0264C36.3907 0 35.7923 0.317892 35.437 0.850829L0.132231 53.6023C-0.21371 54.1165 0.160281 54.8084 0.777366 54.8084H16.9525C17.5883 54.8084 18.1866 54.4905 18.5513 53.9575L44.6933 14.8848C44.9924 14.4361 45.6656 14.4361 45.9648 14.8848L53.5101 26.1513C53.9589 26.8152 53.9589 27.6847 53.5101 28.3485L36.6057 53.6116C36.2598 54.1258 36.6338 54.8177 37.2508 54.8177H53.4259C54.0711 54.8177 54.6695 54.4998 55.0248 53.9669L81.1667 14.9129C81.4753 14.4548 82.1485 14.4548 82.457 14.9129L89.9929 26.17C90.4417 26.8339 90.4417 27.7034 89.9929 28.3672L73.0979 53.621C72.7519 54.1352 73.1259 54.8364 73.743 54.8364H89.8994C90.5446 54.8364 91.1523 54.5185 91.5076 53.9762L100.053 41.2138L100.764 40.2134L100.745 40.176Z" fill="#FE8163"/>
<path d="M268.593 40.1767L276.512 28.3493C276.951 27.6948 276.951 26.8533 276.512 26.1988L259.542 0.860912C259.178 0.318625 258.579 0.000732422 257.934 0.000732422H241.348C240.702 0.000732422 240.104 0.318625 239.749 0.851562L231.502 13.1746C231.456 13.24 231.353 13.24 231.315 13.1746L223.069 0.851562C222.713 0.318625 222.106 0.000732422 221.47 0.000732422H204.874C204.229 0.000732422 203.631 0.318625 203.275 0.851562L167.98 53.5936C167.634 54.1079 168.008 54.7998 168.625 54.7998H184.8C185.436 54.7998 186.034 54.4819 186.399 53.9489L212.55 14.8762C212.849 14.4274 213.523 14.4274 213.822 14.8762L221.367 26.1427C221.816 26.8065 221.816 27.6761 221.367 28.3399L204.463 53.603C204.117 54.1172 204.491 54.8091 205.108 54.8091H221.283C221.928 54.8091 222.526 54.4912 222.882 53.9583L249.024 14.9043C249.332 14.4461 250.005 14.4461 250.314 14.9043L257.85 26.1614C258.299 26.8252 258.299 27.6948 257.85 28.3586L240.955 53.6123C240.609 54.1266 240.983 54.8278 241.6 54.8278H257.756C258.402 54.8278 259.009 54.5099 259.365 53.9676L267.91 41.2052L268.621 40.2048L268.593 40.1767Z" fill="#FE8163"/>
<path d="M613.599 40.1767L621.518 28.3493C621.958 27.6948 621.958 26.8533 621.518 26.1988L604.549 0.851562C604.193 0.318625 603.586 0.000732422 602.94 0.000732422H586.354C585.709 0.000732422 585.11 0.318625 584.755 0.851562L576.509 13.1746C576.462 13.24 576.359 13.24 576.322 13.1746L568.075 0.851562C567.72 0.318625 567.121 0.000732422 566.476 0.000732422H549.88C549.235 0.000732422 548.637 0.318625 548.282 0.851562L512.986 53.5936C512.64 54.1079 513.014 54.7998 513.631 54.7998H529.807C530.442 54.7998 531.041 54.4819 531.405 53.9489L557.557 14.8762C557.856 14.4274 558.529 14.4274 558.828 14.8762L566.373 26.1427C566.822 26.8065 566.822 27.6761 566.373 28.3399L549.469 53.603C549.123 54.1172 549.497 54.8091 550.114 54.8091H566.289C566.934 54.8091 567.533 54.4912 567.888 53.9583L594.03 14.9043C594.339 14.4461 595.012 14.4461 595.32 14.9043L602.856 26.1614C603.305 26.8252 603.305 27.6948 602.856 28.3586L585.961 53.6123C585.615 54.1266 585.989 54.8278 586.606 54.8278H602.763C603.408 54.8278 604.016 54.5099 604.371 53.9676L612.917 41.2052L613.627 40.2048L613.599 40.1767Z" fill="#FE8163"/>
</svg>
