<svg width="767" height="767" viewBox="0 0 767 767" fill="none" xmlns="http://www.w3.org/2000/svg">
<mask id="mask0_266_2732" style="mask-type:alpha" maskUnits="userSpaceOnUse" x="0" y="0" width="767" height="767">
<circle cx="383.5" cy="383.5" r="383.5" fill="#D9D9D9"/>
</mask>
<g mask="url(#mask0_266_2732)">
<circle cx="383.5" cy="383.5" r="383.5" fill="#D9D9D9"/>
<circle cx="383.5" cy="383.5" r="383.5" fill="#CCC8BE"/>
<g clip-path="url(#clip0_266_2732)">
<path d="M531.483 79.6991V286.25H242.874L239.125 82.6392C278.592 52.2315 328.864 34.0071 383.631 34.0071H383.57C438.236 34.0071 488.427 52.1711 527.854 82.4781" fill="url(#paint0_linear_266_2732)"/>
<path d="M239.145 82.6392C278.592 52.2315 328.884 34.0071 383.63 34.0071H383.57C438.235 34.0071 488.426 52.1711 527.854 82.4781" stroke="black" stroke-width="1.67526" stroke-miterlimit="10"/>
<path d="M208.931 490.364C188.874 497.09 162.57 472.623 150.193 435.731C137.817 398.839 144.045 363.497 164.122 356.771" fill="url(#paint1_linear_266_2732)"/>
<path d="M208.93 490.364C197.723 494.11 178.594 467.266 166.218 430.374C153.841 393.482 152.894 360.537 164.121 356.792" fill="url(#paint2_linear_266_2732)"/>
<path d="M557.688 490.364C577.745 497.09 604.05 472.623 616.426 435.731C628.802 398.839 622.574 363.497 602.498 356.771" fill="url(#paint3_linear_266_2732)"/>
<path d="M557.688 490.364C568.896 494.11 588.025 467.266 600.401 430.374C612.778 393.482 613.725 360.537 602.498 356.792" fill="url(#paint4_linear_266_2732)"/>
<path d="M383.53 375.923C383.53 375.923 383.51 375.923 383.49 375.923C383.47 375.923 383.47 375.923 383.45 375.923H383.53Z" stroke="black" stroke-width="1.67526" stroke-miterlimit="10"/>
<path d="M383.551 364.364C383.551 364.364 383.531 364.364 383.511 364.364C383.491 364.364 383.491 364.364 383.471 364.364H383.551Z" stroke="black" stroke-width="1.67526" stroke-miterlimit="10"/>
<path d="M487.903 521.859L523.057 573.733C524.81 576.311 524.326 579.795 521.968 581.809L422.271 666.769C411.467 675.992 397.72 681.046 383.489 681.046C369.279 681.046 355.531 675.992 344.707 666.769L245.011 581.809C242.632 579.795 242.168 576.311 243.922 573.733L279.076 521.859" stroke="black" stroke-width="1.67526" stroke-miterlimit="10"/>
<path d="M480.988 529.733L521.968 581.809" stroke="black" stroke-width="1.67526" stroke-miterlimit="10"/>
<path d="M284.74 529.712L243.761 581.788" stroke="black" stroke-width="1.67526" stroke-miterlimit="10"/>
<path d="M337.329 610.262H429.568" stroke="black" stroke-width="0.837631" stroke-miterlimit="10"/>
<path d="M337.329 620.553H429.568" stroke="black" stroke-width="0.837631" stroke-miterlimit="10"/>
<path d="M337.329 630.843H429.568" stroke="black" stroke-width="0.837631" stroke-miterlimit="10"/>
<path d="M383.45 550.455V590.126" stroke="black" stroke-width="0.837631" stroke-miterlimit="10"/>
<path d="M617.515 245.753L604.211 349.884L599.615 383.836C597.156 401.919 588.993 418.734 576.274 431.844L471.8 539.58" stroke="black" stroke-width="1.67526" stroke-miterlimit="10"/>
<path d="M148.219 245.753L162.792 349.884L167.388 383.836C169.847 401.919 178.011 418.734 190.73 431.844L295.204 539.58" stroke="black" stroke-width="1.67526" stroke-miterlimit="10"/>
<path d="M550.792 402.222C545.189 432.972 530.252 442.94 508.483 461.95C447.77 514.972 384.074 550.454 384.074 550.454H383.025C383.025 550.454 319.329 514.972 258.616 461.95C236.847 442.94 221.91 432.972 216.307 402.222" stroke="black" stroke-width="1.67526" stroke-miterlimit="10" stroke-linecap="square"/>
<path d="M550.792 402.222C545.189 431.281 530.252 440.685 508.483 458.668C447.77 508.77 384.074 542.299 384.074 542.299H383.025C383.025 542.299 319.329 508.77 258.616 458.668C236.847 440.705 221.91 431.281 216.307 402.222" stroke="black" stroke-width="0.837631" stroke-miterlimit="10"/>
<path d="M337.329 610.262H429.568" stroke="black" stroke-width="0.837631" stroke-miterlimit="10"/>
<path d="M429.568 630.843H337.329" stroke="black" stroke-width="0.837631" stroke-miterlimit="10"/>
<path d="M208.929 490.364C188.872 497.09 162.568 472.623 150.191 435.731C137.815 398.839 144.043 363.497 164.12 356.771" fill="url(#paint5_linear_266_2732)"/>
<path d="M557.687 490.364C577.743 497.09 604.048 472.623 616.424 435.731C628.8 398.839 622.572 363.497 602.496 356.771" fill="url(#paint6_linear_266_2732)"/>
<path d="M557.687 490.364C568.894 494.11 588.023 467.266 600.399 430.375C612.776 393.483 613.723 360.538 602.496 356.792" fill="url(#paint7_linear_266_2732)"/>
<path d="M190.506 370.143L197.964 388.75L383.026 509.474H383.449L568.511 388.75L575.969 370.143" stroke="black" stroke-width="1.67526" stroke-miterlimit="10"/>
<path d="M456.923 362.269L469.481 343.501C470.166 342.474 470.166 341.125 469.481 340.098L442.551 299.883C441.987 299.037 441.019 298.534 440.011 298.534H413.666C412.638 298.534 411.69 299.037 411.126 299.883L398.044 319.416C397.964 319.517 397.822 319.517 397.742 319.416L384.66 299.883C384.096 299.037 383.148 298.534 382.12 298.534H355.775C354.747 298.534 353.8 299.037 353.235 299.883L297.199 383.554C296.654 384.38 297.239 385.467 298.227 385.467H323.907C324.915 385.467 325.882 384.964 326.446 384.118L367.97 322.135C368.454 321.41 369.502 321.41 369.986 322.135L381.959 340.017C382.664 341.064 382.664 342.454 381.959 343.501L355.13 383.574C354.586 384.38 355.17 385.488 356.158 385.488H381.838C382.866 385.488 383.813 384.984 384.378 384.138L425.881 322.195C426.365 321.47 427.433 321.47 427.937 322.195L439.89 340.057C440.596 341.104 440.596 342.494 439.89 343.541L413.061 383.595C412.517 384.42 413.101 385.508 414.089 385.508H439.729C440.757 385.508 441.724 385.004 442.289 384.138L455.855 363.88L456.983 362.289L456.923 362.269Z" stroke="black" stroke-width="0.837631" stroke-miterlimit="10"/>
<path d="M444.384 256.144L446.48 254.876C449.08 252.902 451.64 250.848 454.059 248.633C474.599 229.925 491.269 207.291 502.617 181.897C525.536 130.567 520.174 76.8598 531.482 79.6992C595.602 95.7689 619.85 134.03 631.521 164.297C641.358 189.851 637.609 218.688 621.967 241.162C582.197 298.352 542.367 343.239 511.95 374.271C485.645 401.094 453.736 421.655 418.603 434.543C407.355 438.671 395.462 440.725 383.489 440.725C371.516 440.725 359.603 438.671 348.376 434.543C313.242 421.634 281.333 401.094 255.028 374.271C224.611 343.259 184.781 298.352 145.011 241.162C129.37 218.688 125.62 189.831 135.457 164.297C147.128 134.01 171.357 95.7488 235.496 79.6992C246.804 76.8598 241.422 130.587 264.361 181.897C274.903 205.498 290.041 226.723 308.626 244.626C313.363 249.177 318.543 253.224 323.965 256.93L328.239 259.225C364.763 278.819 408.947 277.651 444.384 256.164V256.144Z" stroke="black" stroke-width="1.67526" stroke-miterlimit="10"/>
<path d="M285.345 220.4C285.345 220.4 211.368 247.566 217.153 333.392" stroke="black" stroke-width="0.837631" stroke-miterlimit="10"/>
<path d="M480.988 220.4C480.988 220.4 554.965 247.566 549.18 333.392" stroke="black" stroke-width="0.837631" stroke-miterlimit="10"/>
<path d="M148.217 245.753C148.217 245.753 107.54 150.221 243.762 104.146" stroke="black" stroke-width="0.837631" stroke-miterlimit="10"/>
<path d="M617.512 245.753C617.512 245.753 658.189 150.221 521.968 104.146" stroke="black" stroke-width="0.837631" stroke-miterlimit="10"/>
<path d="M240.395 558.812H526.423L537.489 674.643C539.102 691.598 545.371 707.769 555.61 721.382C582.056 756.542 629.224 765.845 629.224 765.845L697.939 768.826V797.119C697.939 895.914 617.775 976.001 518.884 976.001H248.095C149.205 976.001 69.04 895.914 69.04 797.119V768.826L137.594 765.845C137.594 765.845 184.762 756.542 211.208 721.382C221.447 707.769 227.716 691.598 229.329 674.643L240.395 558.812Z" fill="url(#paint8_linear_266_2732)"/>
<path style="mix-blend-mode:soft-light" d="M307.518 624.601L317.717 681.952C320.62 698.304 326.123 714.072 334.004 728.692L342.913 745.224C352.891 763.731 366.477 780.042 382.905 793.172L383.187 793.393C400.099 780.103 414.088 763.489 424.287 744.56L432.854 728.671C440.735 714.052 446.218 698.284 449.141 681.932L459.34 624.581" fill="url(#paint9_linear_266_2732)"/>
<path d="M148.199 765.885L181.216 767.416L211.613 773.155L230.318 778.653L261.118 790.292L314.897 812.604L292.483 774.907L274.583 712.4L278.836 674.743L276.74 621.076L276.538 615.841L276.055 599.831L263.477 588.353L248.5 570.894L240.357 559.073L229.311 674.683C227.698 691.638 221.429 707.809 211.189 721.422C185.953 754.971 141.869 764.979 137.898 765.805L148.199 765.926V765.885Z" fill="url(#paint10_linear_266_2732)"/>
<path d="M148.199 765.885L181.216 767.416L211.613 773.155L230.318 778.653L261.118 790.292L314.897 812.604L292.483 774.907L274.583 712.4L278.836 674.743L276.74 621.076L276.538 615.841L276.055 599.831L263.477 588.353L248.5 570.894L240.357 559.073L229.311 674.683C227.698 691.638 221.429 707.809 211.189 721.422C185.953 754.971 141.869 764.979 137.898 765.805L148.199 765.926V765.885Z" fill="url(#paint11_linear_266_2732)"/>
<path d="M451.925 812.585L471.215 786.446C481.032 773.135 488.49 758.193 492.743 742.204C496.29 728.853 498.326 715.139 498.79 701.265L502.196 589.078L490.767 599.791L487.361 701.265C486.555 725.591 480.89 749.514 470.731 771.625L451.925 812.585Z" fill="url(#paint12_linear_266_2732)"/>
<path d="M314.915 812.585L295.625 786.446C285.808 773.135 278.35 758.193 274.097 742.204C270.55 728.853 268.514 715.139 268.05 701.265L264.644 589.078L276.073 599.791L279.479 701.265C280.285 725.591 285.95 749.514 296.109 771.625L314.915 812.585Z" fill="url(#paint13_linear_266_2732)"/>
<path d="M307.518 624.601L317.717 681.952C320.62 698.304 326.123 714.072 334.004 728.692L342.913 745.224C352.891 763.731 366.477 780.042 382.905 793.172L383.187 793.393C400.099 780.103 414.088 763.489 424.287 744.56L432.854 728.671C440.735 714.052 446.218 698.284 449.141 681.932L459.34 624.581" stroke="black" stroke-width="0.837631" stroke-miterlimit="10"/>
<path d="M697.959 768.826L624.165 766.026C589.313 764.697 554.582 770.779 522.271 783.848L426.202 822.693C408.928 829.681 396.874 845.59 394.838 864.096L385.284 951.09H381.736L372.182 864.096C370.146 845.59 358.092 829.681 340.817 822.693L244.749 783.848C212.417 770.779 177.707 764.718 142.855 766.026L69.04 768.826" stroke="black" stroke-width="1.67526" stroke-miterlimit="10"/>
<path d="M618.038 765.886L585.021 767.416L554.624 773.156L535.919 778.653L505.119 790.293L451.34 812.605L473.754 774.908L491.654 712.401L487.401 674.743L489.497 621.077L489.699 615.841L490.182 599.832L502.76 588.353L517.737 570.894L525.881 559.073L536.927 674.683C538.539 691.639 544.808 707.809 555.048 721.422C580.284 754.971 624.368 764.98 628.339 765.805L618.038 765.926V765.886Z" fill="url(#paint14_linear_266_2732)"/>
<path d="M618.038 765.885L585.021 767.416L554.624 773.155L535.919 778.653L505.119 790.292L451.34 812.605L469.985 773.276L481.958 743.855L486.615 712.783L487.401 674.723L489.497 621.056L489.699 615.821L490.182 599.811L502.76 588.333L517.737 570.874L525.881 559.053L536.927 674.663C538.539 691.618 544.808 707.789 555.048 721.402C580.284 754.951 624.368 764.959 628.339 765.785L618.038 765.906V765.885Z" fill="url(#paint15_linear_266_2732)"/>
<g style="mix-blend-mode:multiply" opacity="0.4">
<path d="M199.779 770.417C236.908 778.512 247.975 785.137 247.975 785.137L314.936 812.584C314.936 812.584 303.568 795.709 297.238 789.99C232.877 731.914 221.307 729.517 225.661 695.585C225.661 695.585 221.468 707.728 211.228 721.341C185.992 754.89 141.908 764.899 137.938 765.724C152.773 765.14 176.72 765.322 199.799 770.356L199.779 770.417Z" fill="url(#paint16_linear_266_2732)"/>
<path d="M131.023 766.127L129.592 766.188H129.672C130.096 766.188 130.559 766.148 131.023 766.127Z" fill="url(#paint17_linear_266_2732)"/>
</g>
<path style="mix-blend-mode:multiply" d="M148.197 765.886L181.214 767.416L211.611 773.155L230.317 778.653L261.117 790.292L314.896 812.605L294.839 785.359L285.869 771.041L274.763 745.446L269.401 718.562L267.265 683.08L266.7 657.848L265.954 631.508L265.773 608.229L264.624 589.723L248.458 570.894L240.315 559.073L229.269 674.683C227.656 691.639 221.387 707.809 211.147 721.422C185.911 754.971 141.827 764.979 137.856 765.805L148.157 765.926L148.197 765.886Z" fill="url(#paint18_linear_266_2732)"/>
<path style="mix-blend-mode:multiply" opacity="0.4" d="M526.343 558.812L519.329 569.263L499.051 592.965L485.102 604.665L446.743 633.985L413.02 655.452L393.226 662.983L384.135 663.628L376.516 663.064L361.842 659.419L343.841 650.015L310.844 627.662L278.331 601.826C278.331 601.826 271.921 596.469 271.679 596.308C271.437 596.147 264.644 589.079 264.644 589.079L249.789 572.324L240.335 559.356L231.365 653.277C256.864 677.865 330.377 742.667 381.716 726.477C441.946 707.487 506.73 650.76 528.198 577.318L526.424 558.792H526.323L526.343 558.812Z" fill="url(#paint19_linear_266_2732)"/>
<path d="M629.244 765.825C629.244 765.825 582.077 756.522 555.631 721.361C545.391 707.748 539.122 691.578 537.51 674.622L526.443 558.791" stroke="black" stroke-width="1.67526" stroke-miterlimit="10"/>
<path d="M451.923 812.584L470.729 771.625C480.888 749.514 486.553 725.59 487.359 701.264L490.765 599.791" stroke="black" stroke-width="1.67526" stroke-miterlimit="10"/>
<path d="M451.923 812.585L471.213 786.446C481.03 773.135 488.488 758.193 492.741 742.204C496.288 728.853 498.324 715.139 498.788 701.265L502.194 589.078" stroke="black" stroke-width="1.67526" stroke-miterlimit="10"/>
<path d="M240.395 558.812L229.328 674.643C227.716 691.598 221.447 707.769 211.207 721.382C184.761 756.542 137.594 765.845 137.594 765.845" stroke="black" stroke-width="1.67526" stroke-miterlimit="10"/>
<path d="M314.915 812.585L296.108 771.626C285.949 749.515 280.285 725.591 279.479 701.265L276.072 599.792" stroke="black" stroke-width="1.67526" stroke-miterlimit="10"/>
<path d="M314.915 812.585L295.625 786.446C285.808 773.135 278.35 758.193 274.097 742.204C270.55 728.853 268.514 715.139 268.05 701.265L264.644 589.078" stroke="black" stroke-width="1.67526" stroke-miterlimit="10"/>
<path d="M307.518 624.601L317.717 681.952C320.62 698.304 326.123 714.072 334.004 728.692L342.913 745.224C352.891 763.731 366.477 780.042 382.905 793.172L383.187 793.393C400.099 780.103 414.088 763.489 424.287 744.56L432.854 728.671C440.735 714.052 446.218 698.284 449.141 681.932L459.34 624.581" stroke="black" stroke-width="0.837631" stroke-miterlimit="10"/>
<path d="M69.04 768.826L142.835 766.026C177.686 764.697 212.417 770.779 244.729 783.848L340.797 822.693C358.072 829.681 370.126 845.59 372.161 864.096L381.716 951.09" stroke="black" stroke-width="1.67526" stroke-miterlimit="10"/>
<path d="M697.959 768.826L624.164 766.027C589.313 764.698 554.582 770.779 522.27 783.848L426.202 822.694C408.927 829.681 396.873 845.59 394.838 864.096L385.283 951.091" stroke="black" stroke-width="1.67526" stroke-miterlimit="10"/>
<path d="M454.141 811.376L497.377 775.914C511.487 764.255 529.588 758.818 547.568 760.549C558.756 761.637 569.902 762.885 581.13 763.53L624.165 766.007" stroke="black" stroke-width="0.837631" stroke-miterlimit="10"/>
<path d="M313.402 811.376L270.166 775.914C256.056 764.255 237.955 758.818 219.975 760.549C208.787 761.637 197.641 762.885 186.413 763.53L143.378 766.007" stroke="black" stroke-width="0.837631" stroke-miterlimit="10"/>
<path d="M235.598 609.075L244.326 636.321C245.092 638.758 245.475 641.637 245.415 644.537L243.44 730.182C243.339 734.35 242.331 738.197 240.698 740.674L228.181 760.227" stroke="black" stroke-width="0.837631" stroke-miterlimit="10"/>
<path d="M530.698 609.075L521.97 636.321C521.204 638.758 520.821 641.637 520.881 644.537L522.857 730.182C522.957 734.35 523.965 738.197 525.598 740.674L538.115 760.227" stroke="black" stroke-width="0.837631" stroke-miterlimit="10"/>
<path d="M455.369 362.269L467.927 343.501C468.612 342.474 468.612 341.125 467.927 340.098L440.997 299.883C440.433 299.037 439.465 298.534 438.457 298.534H412.112C411.084 298.534 410.137 299.037 409.572 299.883L396.49 319.416C396.41 319.517 396.269 319.517 396.188 319.416L383.106 299.883C382.542 299.037 381.594 298.534 380.566 298.534H354.221C353.193 298.534 352.246 299.037 351.681 299.883L295.645 383.554C295.101 384.38 295.685 385.467 296.673 385.467H322.353C323.361 385.467 324.328 384.964 324.893 384.118L366.416 322.135C366.9 321.41 367.948 321.41 368.432 322.135L380.405 340.017C381.111 341.064 381.111 342.454 380.405 343.501L353.576 383.574C353.032 384.38 353.617 385.488 354.604 385.488H380.284C381.312 385.488 382.26 384.984 382.824 384.138L424.327 322.195C424.811 321.47 425.879 321.47 426.383 322.195L438.336 340.057C439.042 341.104 439.042 342.494 438.336 343.541L411.507 383.595C410.963 384.42 411.548 385.508 412.535 385.508H438.175C439.203 385.508 440.171 385.004 440.735 384.138L454.301 363.88L455.43 362.289L455.369 362.269Z" stroke="black" stroke-width="0.837631" stroke-miterlimit="10"/>
<path d="M383.248 467.407V509.515" stroke="black" stroke-width="0.837631" stroke-miterlimit="10"/>
<path d="M383.53 375.923C383.53 375.923 383.51 375.923 383.49 375.923C383.47 375.923 383.47 375.923 383.45 375.923H383.53Z" stroke="black" stroke-width="1.67526" stroke-miterlimit="10"/>
<path d="M383.551 364.364C383.551 364.364 383.531 364.364 383.511 364.364C383.491 364.364 383.491 364.364 383.471 364.364H383.551Z" stroke="black" stroke-width="1.67526" stroke-miterlimit="10"/>
<path d="M520.436 569.162C533.821 551.965 544.222 532.129 551.035 510.602L575.969 431.744H191.03L215.965 510.602C222.778 532.109 233.158 551.945 246.543 569.142" fill="url(#paint20_linear_266_2732)"/>
<path d="M480.99 529.732L521.969 581.808" stroke="black" stroke-width="1.67526" stroke-miterlimit="10"/>
<path d="M243.761 581.788L284.74 529.712" stroke="black" stroke-width="1.67526" stroke-miterlimit="10"/>
<path d="M383.45 550.455V590.126" stroke="black" stroke-width="0.837631" stroke-miterlimit="10"/>
<path d="M216.287 402.222C221.89 431.28 236.827 440.684 258.596 458.667C319.309 508.769 383.006 542.298 383.006 542.298H384.054C384.054 542.298 447.75 508.769 508.463 458.667C530.232 440.704 545.169 431.28 550.772 402.222V400.329L383.006 509.494L216.267 402.222H216.287Z" fill="#191919"/>
<path d="M216.287 402.222C221.89 431.28 236.827 440.684 258.596 458.667C319.309 508.769 383.006 542.298 383.006 542.298H384.054C384.054 542.298 447.75 508.769 508.463 458.667C530.232 440.704 545.169 431.28 550.772 402.222V400.329L383.006 509.494L216.267 402.222H216.287Z" fill="url(#paint21_linear_266_2732)"/>
<path d="M148.218 245.753L162.791 349.884L167.387 383.836C169.846 401.919 178.01 418.734 190.729 431.844L278.654 522.523L243.943 573.733C242.19 576.31 242.674 579.794 245.032 581.808L344.729 666.768C355.533 675.991 369.28 681.046 383.511 681.046C397.742 681.046 411.469 675.991 422.293 666.768L521.989 581.808C524.368 579.794 524.832 576.31 523.078 573.733L488.368 522.523L576.293 431.844C588.991 418.734 597.175 401.919 599.634 383.836L604.23 349.884L617.534 245.753L383.269 331.096L148.258 245.753H148.218ZM284.741 529.712L282.181 526.168L285.628 529.712H284.741ZM550.794 402.222C545.19 431.28 530.254 440.684 508.484 458.667C447.771 508.769 384.075 542.298 384.075 542.298H383.027C383.027 542.298 319.331 508.769 258.618 458.667C236.848 440.704 221.912 431.28 216.308 402.222L383.047 509.494L550.814 400.329V402.222H550.794Z" fill="url(#paint22_linear_266_2732)"/>
<path style="mix-blend-mode:multiply" d="M383.491 542.278H383.007C383.007 542.278 319.311 508.749 258.598 458.647C236.828 440.684 221.892 431.26 216.288 402.201L383.027 509.474L383.491 509.172V286.249L148.218 245.753L162.791 349.884L167.387 383.836C169.846 401.919 178.01 418.734 190.729 431.844L278.654 522.523L243.943 573.733C242.19 576.31 242.674 579.794 245.032 581.808L344.729 666.768C355.533 675.991 369.28 681.046 383.511 681.046V542.298L383.491 542.278ZM284.741 529.712L282.181 526.168L285.628 529.712H284.741Z" fill="url(#paint23_linear_266_2732)"/>
<path d="M550.792 402.222C545.189 432.972 530.252 442.94 508.483 461.95C447.77 514.972 384.074 550.454 384.074 550.454H383.025C383.025 550.454 319.329 514.972 258.616 461.95C236.847 442.94 221.91 432.972 216.307 402.222" stroke="black" stroke-width="1.67526" stroke-miterlimit="10" stroke-linecap="square"/>
<path d="M255.958 158.075C292.462 134.816 336.385 121.243 383.633 121.243H383.572C430.901 121.243 474.863 134.856 511.408 158.175" stroke="black" stroke-width="0.837631" stroke-miterlimit="10"/>
<path d="M456.923 362.269L469.481 343.501C470.166 342.474 470.166 341.125 469.481 340.098L442.551 299.883C441.987 299.037 441.019 298.534 440.011 298.534H413.666C412.638 298.534 411.69 299.037 411.126 299.883L398.044 319.416C397.964 319.517 397.822 319.517 397.742 319.416L384.66 299.883C384.096 299.037 383.148 298.534 382.12 298.534H355.775C354.747 298.534 353.8 299.037 353.235 299.883L297.199 383.554C296.654 384.38 297.239 385.467 298.227 385.467H323.907C324.915 385.467 325.882 384.964 326.446 384.118L367.97 322.135C368.454 321.41 369.502 321.41 369.986 322.135L381.959 340.017C382.664 341.064 382.664 342.454 381.959 343.501L355.13 383.574C354.586 384.38 355.17 385.488 356.158 385.488H381.838C382.866 385.488 383.813 384.984 384.378 384.138L425.881 322.195C426.365 321.47 427.433 321.47 427.937 322.195L439.89 340.057C440.596 341.104 440.596 342.494 439.89 343.541L413.061 383.595C412.517 384.42 413.101 385.508 414.089 385.508H439.729C440.757 385.508 441.724 385.004 442.289 384.138L455.855 363.88L456.983 362.289L456.923 362.269Z" stroke="black" stroke-width="0.837631" stroke-miterlimit="10"/>
<path style="mix-blend-mode:multiply" d="M517.495 75.2087C517.495 75.2087 501.51 252.419 384.64 252.419C267.769 252.419 249.93 75.2087 249.93 75.2087L231.104 90.0501L251.724 230.912L384.619 286.25L515.701 230.912L536.039 90.0501L517.474 75.2087H517.495Z" fill="url(#paint24_linear_266_2732)"/>
<path d="M444.385 256.145L446.482 254.876C449.082 252.903 451.642 250.849 454.061 248.633C474.601 229.926 491.271 207.291 502.619 181.898C525.538 130.567 520.176 76.8603 531.484 79.6997C595.603 95.7694 619.852 134.031 631.523 164.297C641.36 189.852 637.611 218.689 621.969 241.162C582.199 298.353 542.369 343.24 511.952 374.271C485.647 401.095 453.738 421.655 418.605 434.543C407.357 438.671 395.464 440.725 383.491 440.725C371.518 440.725 359.605 438.671 348.378 434.543C313.244 421.635 281.335 401.095 255.03 374.271C224.613 343.26 184.783 298.353 145.013 241.162C129.371 218.689 125.622 189.832 135.459 164.297C147.13 134.011 171.359 95.7493 235.498 79.6997C246.806 76.8603 241.424 130.587 264.363 181.898C274.905 205.499 290.043 226.724 308.628 244.626C313.365 249.177 318.545 253.225 323.967 256.93L328.241 259.226C364.765 278.82 408.949 277.652 444.385 256.165V256.145Z" fill="url(#paint25_linear_266_2732)"/>
<path d="M285.345 220.4C285.345 220.4 211.368 247.566 217.153 333.392" stroke="black" stroke-width="0.837631" stroke-miterlimit="10"/>
<path d="M480.99 220.4C480.99 220.4 554.967 247.566 549.181 333.392" stroke="black" stroke-width="0.837631" stroke-miterlimit="10"/>
<path d="M148.218 245.754C148.218 245.754 107.541 150.221 243.763 104.146" stroke="black" stroke-width="0.837631" stroke-miterlimit="10"/>
<path d="M617.513 245.754C617.513 245.754 658.19 150.221 521.969 104.146" stroke="black" stroke-width="0.837631" stroke-miterlimit="10"/>
<path d="M383.248 467.407V509.515" stroke="black" stroke-width="0.837631" stroke-miterlimit="10"/>
<path d="M456.923 362.168L469.481 343.4C470.166 342.373 470.166 341.024 469.481 339.997L442.551 299.782C441.987 298.937 441.019 298.433 440.011 298.433H413.666C412.638 298.433 411.69 298.937 411.126 299.782L398.044 319.316C397.964 319.416 397.822 319.416 397.742 319.316L384.66 299.782C384.096 298.937 383.148 298.433 382.12 298.433H355.775C354.747 298.433 353.8 298.937 353.235 299.782L297.199 383.454C296.654 384.279 297.239 385.367 298.227 385.367H323.907C324.915 385.367 325.882 384.863 326.446 384.018L367.97 322.034C368.454 321.309 369.502 321.309 369.986 322.034L381.959 339.916C382.664 340.964 382.664 342.353 381.959 343.4L355.13 383.474C354.586 384.279 355.17 385.387 356.158 385.387H381.838C382.866 385.387 383.813 384.884 384.378 384.038L425.881 322.095C426.365 321.37 427.433 321.37 427.937 322.095L439.89 339.957C440.596 341.004 440.596 342.393 439.89 343.44L413.061 383.494C412.517 384.32 413.101 385.407 414.089 385.407H439.729C440.757 385.407 441.724 384.904 442.289 384.038L455.855 363.779L456.983 362.189L456.923 362.168Z" fill="#FF5B00"/>
<path style="mix-blend-mode:hard-light" d="M377.525 310.053H361.923L310.079 385.367H323.887C324.895 385.367 325.862 384.864 326.426 384.018L367.95 322.035C368.434 321.31 369.482 321.31 369.966 322.035L381.939 339.917C382.644 340.964 382.644 342.353 381.939 343.4L355.11 383.474C354.566 384.28 355.15 385.387 356.138 385.387H368.857L398.488 340.34L377.565 310.073L377.525 310.053Z" fill="url(#paint26_linear_266_2732)"/>
<path style="mix-blend-mode:hard-light" d="M435.295 310.053H419.693L367.85 385.367H381.657C382.665 385.367 383.633 384.864 384.197 384.018L425.72 322.035C426.204 321.31 427.252 321.31 427.736 322.035L439.709 339.917C440.415 340.964 440.415 342.353 439.709 343.4L412.88 383.474C412.336 384.28 412.921 385.387 413.908 385.387H426.628L456.258 340.34L435.335 310.073L435.295 310.053Z" fill="url(#paint27_linear_266_2732)"/>
<g style="mix-blend-mode:multiply" opacity="0.6">
<path d="M412.031 413.137C286.292 444.209 119.997 162.183 187.381 99.6157C157.831 118.243 143.6 143.213 135.457 164.297C125.62 189.852 129.37 218.689 145.011 241.162C184.781 298.353 224.611 343.24 255.028 374.271C281.333 401.095 313.242 421.655 348.376 434.543C359.623 438.671 371.516 440.725 383.489 440.725C395.462 440.725 407.375 438.671 418.603 434.543C453.736 421.635 485.645 401.095 511.95 374.271C542.367 343.26 582.197 298.353 621.967 241.162C629.425 230.449 634.142 218.286 635.996 205.74C600.56 264.18 515.074 387.643 412.011 413.117L412.031 413.137Z" fill="url(#paint28_linear_266_2732)"/>
</g>
<path d="M458.594 480.638C478.771 480.638 495.139 464.306 495.139 444.129C495.139 441.511 494.857 438.953 494.312 436.476L437.188 473.65C443.214 478.02 450.592 480.618 458.594 480.618V480.638Z" fill="url(#paint29_radial_266_2732)"/>
<path style="mix-blend-mode:soft-light" d="M466.275 470.549C473.572 470.549 479.478 464.649 479.478 457.359C479.478 454.237 478.39 451.378 476.576 449.123L454.544 463.46C456.741 467.669 461.155 470.569 466.255 470.569L466.275 470.549Z" fill="url(#paint30_linear_266_2732)"/>
<path d="M458.999 482.49C480.426 482.49 497.781 465.152 497.781 443.746C497.781 440.967 497.479 438.248 496.915 435.63L436.282 475.08C442.672 479.711 450.513 482.47 459.019 482.47L458.999 482.49Z" fill="url(#paint31_radial_266_2732)"/>
<path style="mix-blend-mode:soft-light" d="M467.143 471.777C474.884 471.777 481.173 465.514 481.173 457.761C481.173 454.459 480.024 451.418 478.109 449.022L454.727 464.226C457.065 468.696 461.741 471.757 467.163 471.757L467.143 471.777Z" fill="url(#paint32_linear_266_2732)"/>
<path d="M307.417 482.49C285.99 482.49 268.635 465.152 268.635 443.746C268.635 440.967 268.937 438.248 269.502 435.63L330.134 475.08C323.744 479.711 315.903 482.47 307.397 482.47L307.417 482.49Z" fill="url(#paint33_radial_266_2732)"/>
<path style="mix-blend-mode:soft-light" d="M299.274 471.777C291.534 471.777 285.245 465.514 285.245 457.761C285.245 454.459 286.394 451.418 288.309 449.022L311.691 464.226C309.353 468.696 304.676 471.757 299.254 471.757L299.274 471.777Z" fill="url(#paint34_linear_266_2732)"/>
<path style="mix-blend-mode:soft-light" d="M570.869 109.624C558.473 102.576 544.726 110.188 542.126 125.432C537.772 151.047 531.987 189.791 534.264 203.928C536.099 215.326 546.923 227.751 556.86 237.054C566.798 246.358 579.557 246.881 588.628 238.806L612.917 217.158C627.249 204.391 629.526 179.521 618.198 160.612C607.112 142.106 591.107 121.102 570.869 109.604V109.624Z" fill="url(#paint35_linear_266_2732)"/>
<path d="M410.057 35.4373C454.402 40.2904 494.877 57.1254 527.854 82.4785" stroke="black" stroke-width="1.67526" stroke-miterlimit="10"/>
<path d="M239.146 82.6394C271.901 57.3869 312.114 40.552 356.177 35.5579" stroke="black" stroke-width="1.67526" stroke-miterlimit="10"/>
<path d="M383.531 375.922C383.531 375.922 383.511 375.922 383.491 375.922C383.471 375.922 383.471 375.922 383.451 375.922H383.531Z" stroke="black" stroke-width="1.67526" stroke-miterlimit="10"/>
<path d="M383.551 364.364C383.551 364.364 383.531 364.364 383.511 364.364C383.491 364.364 383.491 364.364 383.471 364.364H383.551Z" stroke="black" stroke-width="1.67526" stroke-miterlimit="10"/>
<path d="M487.904 521.86L523.057 573.734C524.811 576.311 524.327 579.795 521.969 581.809L422.272 666.769C411.468 675.992 397.721 681.047 383.49 681.047C369.28 681.047 355.532 675.992 344.708 666.769L245.012 581.809C242.633 579.795 242.169 576.311 243.923 573.734L279.077 521.86" stroke="black" stroke-width="1.67526" stroke-miterlimit="10"/>
<path d="M480.989 529.733L521.968 581.809" stroke="black" stroke-width="1.67526" stroke-miterlimit="10"/>
<path d="M284.741 529.713L243.762 581.788" stroke="black" stroke-width="1.67526" stroke-miterlimit="10"/>
<path d="M383.451 550.455V590.126" stroke="black" stroke-width="0.837631" stroke-miterlimit="10"/>
<path d="M617.515 245.753L604.211 349.885L599.615 383.836C597.156 401.92 588.993 418.735 576.274 431.844L471.8 539.58" stroke="black" stroke-width="1.67526" stroke-miterlimit="10"/>
<path d="M148.219 245.753L162.792 349.885L167.388 383.836C169.847 401.92 178.011 418.735 190.73 431.844L295.204 539.58" stroke="black" stroke-width="1.67526" stroke-miterlimit="10"/>
<path d="M550.793 402.222C545.19 432.972 530.253 442.94 508.484 461.95C447.771 514.972 384.075 550.454 384.075 550.454H383.026C383.026 550.454 319.33 514.972 258.617 461.95C236.848 442.94 221.911 432.972 216.308 402.222" stroke="black" stroke-width="1.67526" stroke-miterlimit="10" stroke-linecap="square"/>
<path d="M550.793 402.222C545.19 431.28 530.253 440.684 508.484 458.667C447.771 508.769 384.075 542.298 384.075 542.298H383.026C383.026 542.298 319.33 508.769 258.617 458.667C236.848 440.704 221.911 431.28 216.308 402.222" stroke="black" stroke-width="0.837631" stroke-miterlimit="10"/>
<path d="M208.93 490.364C188.873 497.09 162.569 472.623 150.192 435.731C137.816 398.839 144.044 363.498 164.121 356.772" stroke="black" stroke-width="1.67526" stroke-miterlimit="10"/>
<path d="M164.12 356.772C152.913 360.518 153.84 393.483 166.216 430.355C178.593 467.246 197.722 494.11 208.929 490.344" stroke="black" stroke-width="0.837631" stroke-miterlimit="10"/>
<path d="M557.687 490.364C577.743 497.09 604.048 472.623 616.424 435.731C628.8 398.839 622.572 363.498 602.496 356.772" stroke="black" stroke-width="1.67526" stroke-miterlimit="10"/>
<path d="M557.687 490.365C568.894 494.11 588.023 467.267 600.399 430.375C612.776 393.483 613.723 360.538 602.496 356.792" stroke="black" stroke-width="0.837631" stroke-miterlimit="10"/>
<path d="M201.029 377.876L208.467 396.503L383.027 509.474H383.45L557.688 396.724L565.126 378.097" stroke="black" stroke-width="1.67526" stroke-miterlimit="10"/>
<path d="M456.922 362.269L469.48 343.501C470.165 342.474 470.165 341.125 469.48 340.098L442.55 299.883C441.986 299.037 441.018 298.534 440.01 298.534H413.665C412.637 298.534 411.69 299.037 411.125 299.883L398.043 319.416C397.963 319.517 397.821 319.517 397.741 319.416L384.659 299.883C384.095 299.037 383.147 298.534 382.119 298.534H355.774C354.746 298.534 353.799 299.037 353.234 299.883L297.198 383.554C296.653 384.38 297.238 385.467 298.226 385.467H323.906C324.914 385.467 325.881 384.964 326.445 384.118L367.969 322.135C368.453 321.41 369.501 321.41 369.985 322.135L381.958 340.017C382.663 341.064 382.663 342.454 381.958 343.501L355.129 383.574C354.585 384.38 355.169 385.488 356.157 385.488H381.837C382.865 385.488 383.812 384.984 384.377 384.138L425.88 322.195C426.364 321.47 427.432 321.47 427.936 322.195L439.889 340.057C440.595 341.104 440.595 342.494 439.889 343.541L413.06 383.595C412.516 384.42 413.101 385.508 414.088 385.508H439.728C440.756 385.508 441.723 385.004 442.288 384.138L455.854 363.88L456.982 362.289L456.922 362.269Z" stroke="black" stroke-width="0.837631" stroke-miterlimit="10"/>
<path d="M444.384 256.144L446.481 254.876C449.081 252.902 451.641 250.848 454.06 248.633C474.6 229.925 491.27 207.291 502.618 181.897C525.537 130.567 520.175 76.86 531.483 79.6994C595.603 95.7692 619.851 134.03 631.522 164.297C641.359 189.852 637.61 218.689 621.968 241.162C582.198 298.353 542.368 343.239 511.951 374.271C485.646 401.094 453.737 421.655 418.604 434.543C407.356 438.671 395.463 440.725 383.49 440.725C371.517 440.725 359.604 438.671 348.377 434.543C313.243 421.635 281.334 401.094 255.029 374.271C224.612 343.259 184.782 298.353 145.012 241.162C129.371 218.689 125.621 189.832 135.458 164.297C147.129 134.01 171.358 95.749 235.497 79.6994C246.805 76.86 241.423 130.587 264.362 181.897C274.904 205.499 290.042 226.724 308.627 244.626C313.364 249.177 318.544 253.224 323.966 256.93L328.24 259.225C364.764 278.819 408.948 277.651 444.384 256.165V256.144Z" stroke="black" stroke-width="1.67526" stroke-miterlimit="10"/>
<path d="M285.346 220.4C285.346 220.4 211.369 247.566 217.154 333.392" stroke="black" stroke-width="0.837631" stroke-miterlimit="10"/>
<path d="M480.989 220.4C480.989 220.4 554.966 247.566 549.18 333.392" stroke="black" stroke-width="0.837631" stroke-miterlimit="10"/>
<path d="M148.218 245.754C148.218 245.754 107.541 150.221 243.763 104.146" stroke="black" stroke-width="0.837631" stroke-miterlimit="10"/>
<path d="M617.513 245.754C617.513 245.754 658.19 150.221 521.969 104.146" stroke="black" stroke-width="0.837631" stroke-miterlimit="10"/>
<path d="M410.057 35.4373C454.402 40.2904 494.877 57.1254 527.854 82.4785" stroke="black" stroke-width="1.67526" stroke-miterlimit="10"/>
<path d="M239.146 82.6394C271.901 57.3869 312.114 40.552 356.177 35.5579" stroke="black" stroke-width="1.67526" stroke-miterlimit="10"/>
<path d="M383.531 375.922C383.531 375.922 383.511 375.922 383.491 375.922C383.471 375.922 383.471 375.922 383.451 375.922H383.531Z" stroke="black" stroke-width="1.67526" stroke-miterlimit="10"/>
<path d="M383.551 364.364C383.551 364.364 383.531 364.364 383.511 364.364C383.491 364.364 383.491 364.364 383.471 364.364H383.551Z" stroke="black" stroke-width="1.67526" stroke-miterlimit="10"/>
<path d="M246.544 569.142C233.18 551.945 222.779 532.129 215.965 510.602L191.031 431.744" stroke="black" stroke-width="1.67526" stroke-miterlimit="10"/>
<path d="M575.97 431.744L551.036 510.602C544.223 532.129 533.822 551.985 520.438 569.162" stroke="black" stroke-width="1.67526" stroke-miterlimit="10"/>
<path d="M383.451 550.455V590.126" stroke="black" stroke-width="0.837631" stroke-miterlimit="10"/>
<path d="M550.793 402.222C545.19 432.972 530.253 442.94 508.484 461.95C447.771 514.972 384.075 550.454 384.075 550.454H383.026C383.026 550.454 319.33 514.972 258.617 461.95C236.848 442.94 221.911 432.972 216.308 402.222" stroke="black" stroke-width="1.67526" stroke-miterlimit="10" stroke-linecap="square"/>
<path d="M406.066 122.271C444.808 125.855 480.728 138.582 511.407 158.176" stroke="black" stroke-width="0.837631" stroke-miterlimit="10"/>
<path d="M255.957 158.075C286.817 138.421 322.979 125.674 361.963 122.21" stroke="black" stroke-width="0.837631" stroke-miterlimit="10"/>
<path d="M330.153 612.8H435.575" stroke="black" stroke-width="1.67526" stroke-miterlimit="10" stroke-linecap="square"/>
<path d="M330.153 623.151H435.575" stroke="black" stroke-width="1.67526" stroke-miterlimit="10" stroke-linecap="square"/>
<path d="M330.153 602.429H435.575" stroke="black" stroke-width="1.67526" stroke-miterlimit="10" stroke-linecap="square"/>
</g>
<circle cx="383.5" cy="383.5" r="376.5" stroke="#EAEAEA" stroke-width="14"/>
</g>
<defs>
<linearGradient id="paint0_linear_266_2732" x1="239.145" y1="160.128" x2="531.503" y2="160.128" gradientUnits="userSpaceOnUse">
<stop stop-color="#92938E"/>
<stop offset="1" stop-color="#FAFAF7"/>
</linearGradient>
<linearGradient id="paint1_linear_266_2732" x1="143.823" y1="424.131" x2="208.931" y2="424.131" gradientUnits="userSpaceOnUse">
<stop stop-color="#344256"/>
<stop offset="1" stop-color="#3A445E"/>
</linearGradient>
<linearGradient id="paint2_linear_266_2732" x1="156.28" y1="423.749" x2="71.016" y2="423.749" gradientUnits="userSpaceOnUse">
<stop stop-color="#344256"/>
<stop offset="1" stop-color="#3A445E"/>
</linearGradient>
<linearGradient id="paint3_linear_266_2732" x1="557.688" y1="424.131" x2="622.775" y2="424.131" gradientUnits="userSpaceOnUse">
<stop stop-color="#344256"/>
<stop offset="1" stop-color="#3A445E"/>
</linearGradient>
<linearGradient id="paint4_linear_266_2732" x1="557.688" y1="423.749" x2="610.318" y2="423.749" gradientUnits="userSpaceOnUse">
<stop stop-color="#344256"/>
<stop offset="1" stop-color="#3A445E"/>
</linearGradient>
<linearGradient id="paint5_linear_266_2732" x1="208.929" y1="424.132" x2="143.822" y2="424.132" gradientUnits="userSpaceOnUse">
<stop stop-color="#8D8F8A"/>
<stop offset="1" stop-color="#B0B1B1"/>
</linearGradient>
<linearGradient id="paint6_linear_266_2732" x1="557.687" y1="424.131" x2="622.774" y2="424.131" gradientUnits="userSpaceOnUse">
<stop stop-color="#CECFC6"/>
<stop offset="1" stop-color="#FEFDFB"/>
</linearGradient>
<linearGradient id="paint7_linear_266_2732" x1="68.9995" y1="423.749" x2="610.317" y2="423.749" gradientUnits="userSpaceOnUse">
<stop stop-color="#CECFC6"/>
<stop offset="1" stop-color="#FEFDFB"/>
</linearGradient>
<linearGradient id="paint8_linear_266_2732" x1="69.04" y1="767.416" x2="697.959" y2="767.416" gradientUnits="userSpaceOnUse">
<stop stop-color="#344256"/>
<stop offset="1" stop-color="#3A445E"/>
</linearGradient>
<linearGradient id="paint9_linear_266_2732" x1="307.518" y1="709.017" x2="459.34" y2="709.017" gradientUnits="userSpaceOnUse">
<stop stop-color="#797B77"/>
<stop offset="1" stop-color="#FEFDFB"/>
</linearGradient>
<linearGradient id="paint10_linear_266_2732" x1="69.042" y1="685.819" x2="697.961" y2="685.819" gradientUnits="userSpaceOnUse">
<stop stop-color="#344256"/>
<stop offset="1" stop-color="#3A445E"/>
</linearGradient>
<linearGradient id="paint11_linear_266_2732" x1="137.919" y1="685.819" x2="314.917" y2="685.819" gradientUnits="userSpaceOnUse">
<stop stop-color="#CECFC6"/>
<stop offset="1" stop-color="#FEFDFB"/>
</linearGradient>
<linearGradient id="paint12_linear_266_2732" x1="451.925" y1="700.842" x2="502.176" y2="700.842" gradientUnits="userSpaceOnUse">
<stop stop-color="#CECFC6"/>
<stop offset="0.47" stop-color="#FEFDFB"/>
</linearGradient>
<linearGradient id="paint13_linear_266_2732" x1="264.664" y1="700.842" x2="314.915" y2="700.842" gradientUnits="userSpaceOnUse">
<stop stop-color="#CECFC6"/>
<stop offset="0.47" stop-color="#FEFDFB"/>
</linearGradient>
<linearGradient id="paint14_linear_266_2732" x1="697.215" y1="685.819" x2="68.2959" y2="685.819" gradientUnits="userSpaceOnUse">
<stop stop-color="#344256"/>
<stop offset="1" stop-color="#3A445E"/>
</linearGradient>
<linearGradient id="paint15_linear_266_2732" x1="628.339" y1="685.819" x2="451.34" y2="685.819" gradientUnits="userSpaceOnUse">
<stop stop-color="#CECFC6"/>
<stop offset="1" stop-color="#FEFDFB"/>
</linearGradient>
<linearGradient id="paint16_linear_266_2732" x1="137.917" y1="754.105" x2="314.916" y2="754.105" gradientUnits="userSpaceOnUse">
<stop stop-color="#000004"/>
<stop offset="1" stop-color="#3A445E"/>
</linearGradient>
<linearGradient id="paint17_linear_266_2732" x1="129.612" y1="766.168" x2="131.023" y2="766.168" gradientUnits="userSpaceOnUse">
<stop stop-color="#1A2535"/>
<stop offset="1" stop-color="#3A445E"/>
</linearGradient>
<linearGradient id="paint18_linear_266_2732" x1="137.917" y1="685.819" x2="314.916" y2="685.819" gradientUnits="userSpaceOnUse">
<stop offset="0.19" stop-color="#4D4F4D"/>
<stop offset="0.96" stop-color="#FEFDFB"/>
</linearGradient>
<linearGradient id="paint19_linear_266_2732" x1="215.562" y1="643.933" x2="530.919" y2="643.933" gradientUnits="userSpaceOnUse">
<stop/>
<stop offset="0.65" stop-color="#3D4761"/>
</linearGradient>
<linearGradient id="paint20_linear_266_2732" x1="575.969" y1="500.453" x2="191.03" y2="500.453" gradientUnits="userSpaceOnUse">
<stop offset="0.63" stop-color="#D4E0E1"/>
<stop offset="0.93" stop-color="#566567"/>
</linearGradient>
<linearGradient id="paint21_linear_266_2732" x1="216.287" y1="471.293" x2="550.793" y2="471.293" gradientUnits="userSpaceOnUse">
<stop/>
<stop offset="0.51" stop-color="#322D31"/>
<stop offset="1"/>
</linearGradient>
<linearGradient id="paint22_linear_266_2732" x1="148.218" y1="463.379" x2="617.514" y2="463.379" gradientUnits="userSpaceOnUse">
<stop stop-color="#CECFC6"/>
<stop offset="1" stop-color="#FEFDFB"/>
</linearGradient>
<linearGradient id="paint23_linear_266_2732" x1="148.218" y1="463.379" x2="383.491" y2="463.379" gradientUnits="userSpaceOnUse">
<stop stop-color="#515350"/>
<stop offset="1" stop-color="#FEFDFB"/>
</linearGradient>
<linearGradient id="paint24_linear_266_2732" x1="231.104" y1="180.729" x2="536.059" y2="180.729" gradientUnits="userSpaceOnUse">
<stop stop-color="#727471"/>
<stop offset="0.96" stop-color="#FEFDFB"/>
</linearGradient>
<linearGradient id="paint25_linear_266_2732" x1="130.037" y1="260.152" x2="636.945" y2="260.152" gradientUnits="userSpaceOnUse">
<stop stop-color="#111B2B"/>
<stop offset="0.17" stop-color="#1F2E43"/>
<stop offset="0.38" stop-color="#2E415B"/>
<stop offset="0.58" stop-color="#364C69"/>
<stop offset="0.75" stop-color="#3A516F"/>
</linearGradient>
<linearGradient id="paint26_linear_266_2732" x1="310.079" y1="347.71" x2="398.448" y2="347.71" gradientUnits="userSpaceOnUse">
<stop stop-color="#626362"/>
<stop offset="1" stop-color="#B6B7B8"/>
</linearGradient>
<linearGradient id="paint27_linear_266_2732" x1="367.85" y1="33.0006" x2="456.218" y2="33.0006" gradientUnits="userSpaceOnUse">
<stop stop-color="#626362"/>
<stop offset="1" stop-color="#B6B7B8"/>
</linearGradient>
<linearGradient id="paint28_linear_266_2732" x1="636.016" y1="270.181" x2="130.035" y2="270.181" gradientUnits="userSpaceOnUse">
<stop stop-color="#D4E0E1"/>
<stop offset="1" stop-color="#657375"/>
</linearGradient>
<radialGradient id="paint29_radial_266_2732" cx="0" cy="0" r="1" gradientUnits="userSpaceOnUse" gradientTransform="translate(466.153 458.567) scale(25.7607 25.7358)">
<stop stop-color="#FFF8AC"/>
<stop offset="0.32" stop-color="#FAAF40"/>
<stop offset="0.44" stop-color="#F9AB3F"/>
<stop offset="0.57" stop-color="#F89E3E"/>
<stop offset="0.7" stop-color="#F68A3C"/>
<stop offset="0.83" stop-color="#F36E3A"/>
<stop offset="0.95" stop-color="#EF4A36"/>
<stop offset="0.99" stop-color="#EE4036"/>
</radialGradient>
<linearGradient id="paint30_linear_266_2732" x1="454.564" y1="459.836" x2="479.478" y2="459.836" gradientUnits="userSpaceOnUse">
<stop stop-color="#CECFC6"/>
<stop offset="1" stop-color="#FEFDFB"/>
</linearGradient>
<radialGradient id="paint31_radial_266_2732" cx="0" cy="0" r="1" gradientUnits="userSpaceOnUse" gradientTransform="translate(467.022 459.07) scale(27.3531 27.3266)">
<stop stop-color="#FFF8AC"/>
<stop offset="0.32" stop-color="#FAAF40"/>
<stop offset="0.44" stop-color="#F9AB3F"/>
<stop offset="0.57" stop-color="#F89E3E"/>
<stop offset="0.7" stop-color="#F68A3C"/>
<stop offset="0.83" stop-color="#F36E3A"/>
<stop offset="0.95" stop-color="#EF4A36"/>
<stop offset="0.99" stop-color="#EE4036"/>
</radialGradient>
<linearGradient id="paint32_linear_266_2732" x1="454.727" y1="460.42" x2="481.173" y2="460.42" gradientUnits="userSpaceOnUse">
<stop stop-color="#CECFC6"/>
<stop offset="1" stop-color="#FEFDFB"/>
</linearGradient>
<radialGradient id="paint33_radial_266_2732" cx="0" cy="0" r="1" gradientUnits="userSpaceOnUse" gradientTransform="translate(299.394 459.07) rotate(180) scale(27.3531 27.3266)">
<stop stop-color="#FFF8AC"/>
<stop offset="0.32" stop-color="#FAAF40"/>
<stop offset="0.44" stop-color="#F9AB3F"/>
<stop offset="0.57" stop-color="#F89E3E"/>
<stop offset="0.7" stop-color="#F68A3C"/>
<stop offset="0.83" stop-color="#F36E3A"/>
<stop offset="0.95" stop-color="#EF4A36"/>
<stop offset="0.99" stop-color="#EE4036"/>
</radialGradient>
<linearGradient id="paint34_linear_266_2732" x1="311.711" y1="460.42" x2="285.265" y2="460.42" gradientUnits="userSpaceOnUse">
<stop stop-color="#CECFC6"/>
<stop offset="1" stop-color="#FEFDFB"/>
</linearGradient>
<linearGradient id="paint35_linear_266_2732" x1="529.689" y1="184.662" x2="621.229" y2="163.086" gradientUnits="userSpaceOnUse">
<stop stop-color="#CECFC6"/>
<stop offset="1" stop-color="#FEFDFB"/>
</linearGradient>
<clipPath id="clip0_266_2732">
<rect width="629" height="943" fill="white" transform="translate(69 33)"/>
</clipPath>
</defs>
</svg>
