<svg width="2951" height="261" viewBox="0 0 2951 261" fill="none" xmlns="http://www.w3.org/2000/svg">
<path d="M1855.01 20.2769L1844.14 4.08201C1842.46 1.55294 1839.57 0 1836.51 0H1757.8C1754.74 0 1751.9 1.50857 1750.17 4.08201L1582.58 254.46C1580.99 256.856 1582.72 260.095 1585.6 260.095H1662.36C1665.42 260.095 1668.31 258.542 1670.04 256.013L1794.05 70.7252C1795.51 68.5511 1798.71 68.5511 1800.17 70.7252L1835.98 124.235C1838.07 127.341 1838.07 131.334 1835.98 134.44L1755.67 254.416C1754.03 256.856 1755.8 260.095 1758.69 260.095H1835.54C1838.55 260.095 1841.35 258.586 1843.03 256.102L1924.41 134.529C1926.49 131.379 1926.49 127.297 1924.41 124.191L1854.93 20.3213L1855.01 20.2769Z" fill="#141F31" fill-opacity="0.6"/>
<path d="M2252.21 5.67932C2253.85 3.23899 2252.12 0 2249.19 0H1969.13C1966.03 0 1963.1 1.55294 1961.37 4.12638L1926.63 56.0389C1924.99 58.4792 1926.76 61.7182 1929.69 61.7182H2018.07C2021 61.7182 2022.73 64.9572 2021.09 67.3975L1896.01 254.327C1894.37 256.767 1896.15 260.051 1899.07 260.051H1975.7C1978.85 260.051 1981.73 258.498 1983.51 255.88L2110.81 65.6671C2112.45 63.1824 2115.24 61.7182 2118.17 61.7182H2209.88C2212.9 61.7182 2215.74 60.2096 2217.43 57.6806L2252.26 5.63495L2252.21 5.67932Z" fill="#141F31" fill-opacity="0.6"/>
<path d="M1668.31 57.7249L1703.18 5.63495C1704.78 3.23899 1703.05 0 1700.16 0H1452.54C1449.48 0 1446.59 1.50857 1444.91 4.08201L1410.08 56.0833C1408.43 58.5236 1410.21 61.7626 1413.09 61.7626H1660.72C1663.74 61.7626 1666.58 60.254 1668.26 57.7249H1668.31Z" fill="#141F31" fill-opacity="0.6"/>
<path d="M1536.71 256.057L1571.49 204.056C1573.13 201.616 1571.36 198.288 1568.43 198.288H1320.94C1317.87 198.288 1315.03 199.797 1313.35 202.326L1278.52 254.371C1276.88 256.812 1278.65 260.051 1281.54 260.051H1529.16C1532.18 260.051 1535.02 258.542 1536.71 256.013V256.057Z" fill="#141F31" fill-opacity="0.6"/>
<path d="M1602.2 156.847L1636.98 104.846C1638.62 102.405 1636.85 99.1663 1633.92 99.1663H1386.34C1383.28 99.1663 1380.44 100.675 1378.75 103.204L1343.96 155.205C1342.32 157.646 1344.1 160.929 1347.03 160.929H1594.56C1597.63 160.929 1600.47 159.42 1602.2 156.847Z" fill="#141F31" fill-opacity="0.6"/>
<path d="M2513.24 0.488066H2473.88C2470.82 0.488066 2467.98 1.99663 2466.29 4.52571L2339.35 194.206C2337.62 196.779 2334.74 198.332 2331.63 198.332H2260.73C2257.85 198.332 2256.12 195.138 2257.71 192.742L2382.84 5.76806C2384.52 3.28335 2382.75 0 2379.82 0H2303.15C2300.09 0 2297.2 1.50857 2295.52 4.08201L2127.98 254.416C2126.33 256.856 2128.11 260.095 2131.04 260.095H2378.89C2381.95 260.095 2384.79 258.586 2386.52 256.013L2553.66 6.21175C2555.3 3.77142 2553.53 0.488066 2550.6 0.488066H2513.24Z" fill="#141F31" fill-opacity="0.6"/>
<path d="M829.143 0H659.828C656.767 0 653.883 1.50857 652.197 4.08201L484.657 254.416C483.015 256.856 484.79 260.095 487.718 260.095H738.762C741.823 260.095 744.663 258.586 746.349 256.057L873.557 66.1552V65.9777L913.845 5.76806C915.442 3.28335 913.667 0 910.739 0H829.143ZM761.346 101.473L703.932 187.284C702.201 189.858 699.317 191.366 696.256 191.366H622.336C619.363 191.366 617.544 188.039 619.23 185.554L694.658 72.8106C696.389 70.2372 699.273 68.7286 702.334 68.7286H776.121C779.094 68.7286 780.913 72.0563 779.227 74.541L761.213 101.473H761.346Z" fill="#141F31" fill-opacity="0.6"/>
<path d="M478.089 190.656L515.671 134.529C517.756 131.423 517.756 127.43 515.671 124.324L435.14 4.08201C433.454 1.50857 430.57 0 427.552 0H348.841C345.779 0 342.939 1.50857 341.253 4.03764L302.119 62.5169C301.898 62.8274 301.409 62.8274 301.232 62.5169L262.054 4.03764C260.368 1.50857 257.528 0 254.466 0H175.71C172.693 0 169.853 1.50857 168.167 4.03764L0.627508 254.371C-1.01417 256.812 0.760617 260.095 3.68902 260.095H80.4485C83.4657 260.095 86.3053 258.586 88.0357 256.057L212.093 70.6365C213.513 68.5068 216.708 68.5068 218.128 70.6365L253.934 124.102C256.064 127.252 256.064 131.379 253.934 134.529L173.714 254.416C172.072 256.856 173.847 260.139 176.775 260.139H253.535C256.596 260.139 259.436 258.631 261.122 256.102L385.179 70.7696C386.644 68.5955 389.838 68.5955 391.302 70.7696L427.064 124.191C429.194 127.341 429.194 131.467 427.064 134.618L346.888 254.46C345.247 256.9 347.021 260.228 349.95 260.228H426.621C429.682 260.228 432.566 258.72 434.252 256.146L474.806 195.581L478.178 190.834L478.089 190.656Z" fill="#141F31" fill-opacity="0.6"/>
<path d="M1274.62 190.656L1312.2 134.529C1314.28 131.423 1314.28 127.43 1312.2 124.324L1231.67 4.08201C1229.94 1.50857 1227.1 0 1224.03 0H1145.32C1142.26 0 1139.42 1.50857 1137.74 4.03764L1098.6 62.5169C1098.38 62.8274 1097.89 62.8274 1097.71 62.5169L1058.58 4.03764C1056.89 1.50857 1054.01 0 1050.99 0H972.237C969.175 0 966.335 1.50857 964.649 4.03764L797.154 254.327C795.512 256.767 797.287 260.051 800.215 260.051H876.975C879.992 260.051 882.832 258.542 884.562 256.013L1008.66 70.5921C1010.08 68.4624 1013.28 68.4624 1014.7 70.5921L1050.5 124.058C1052.63 127.208 1052.63 131.334 1050.5 134.484L970.284 254.371C968.643 256.812 970.417 260.095 973.346 260.095H1050.11C1053.17 260.095 1056.01 258.586 1057.69 256.057L1181.75 70.7252C1183.21 68.5511 1186.41 68.5511 1187.87 70.7252L1223.64 124.146C1225.76 127.297 1225.76 131.423 1223.64 134.573L1143.46 254.416C1141.82 256.856 1143.59 260.184 1146.52 260.184H1223.19C1226.25 260.184 1229.14 258.675 1230.82 256.102L1271.38 195.537L1274.75 190.79L1274.62 190.656Z" fill="#141F31" fill-opacity="0.6"/>
<path d="M2911.86 190.656L2949.44 134.529C2951.52 131.423 2951.52 127.43 2949.44 124.324L2868.91 4.03764C2867.22 1.50857 2864.34 0 2861.27 0H2782.56C2779.5 0 2776.66 1.50857 2774.97 4.03764L2735.84 62.5169C2735.62 62.8274 2735.13 62.8274 2734.95 62.5169L2695.82 4.03764C2694.13 1.50857 2691.29 0 2688.23 0H2609.48C2606.41 0 2603.57 1.50857 2601.89 4.03764L2434.39 254.327C2432.75 256.767 2434.53 260.051 2437.45 260.051H2514.21C2517.23 260.051 2520.07 258.542 2521.8 256.013L2645.9 70.5921C2647.32 68.4624 2650.52 68.4624 2651.94 70.5921L2687.74 124.058C2689.87 127.208 2689.87 131.334 2687.74 134.484L2607.52 254.371C2605.88 256.812 2607.66 260.095 2610.59 260.095H2687.34C2690.41 260.095 2693.25 258.586 2694.93 256.057L2818.99 70.7252C2820.45 68.5511 2823.65 68.5511 2825.11 70.7252L2860.87 124.146C2863 127.297 2863 131.423 2860.87 134.573L2780.7 254.416C2779.06 256.856 2780.83 260.184 2783.76 260.184H2860.43C2863.49 260.184 2866.38 258.675 2868.06 256.102L2908.62 195.537L2911.99 190.79L2911.86 190.656Z" fill="#141F31" fill-opacity="0.6"/>
</svg>
