<svg width="154" height="150" viewBox="0 0 154 150" fill="none" xmlns="http://www.w3.org/2000/svg">
<mask id="mask0_2_25" style="mask-type:luminance" maskUnits="userSpaceOnUse" x="0" y="0" width="154" height="150">
<path d="M40.9202 73.28C40.6444 73.28 40.3712 73.3344 40.1165 73.4399C39.8617 73.5455 39.6303 73.7 39.4353 73.895C39.2403 74.09 39.0855 74.3216 38.98 74.5764C38.8744 74.8312 38.8201 75.1041 38.8201 75.3799C38.8201 75.6557 38.8744 75.9288 38.98 76.1836C39.0855 76.4384 39.2403 76.67 39.4353 76.865C39.6303 77.06 39.8617 77.2145 40.1165 77.3201C40.3712 77.4256 40.6444 77.48 40.9202 77.48H52.6201C53.1771 77.48 53.7112 77.2588 54.105 76.865C54.4988 76.4712 54.7202 75.9368 54.7202 75.3799C54.7202 74.8229 54.4988 74.2888 54.105 73.895C53.7112 73.5012 53.1771 73.28 52.6201 73.28H40.9202ZM101.22 73.28C100.944 73.28 100.671 73.3344 100.417 73.4399C100.162 73.5455 99.9301 73.7 99.7351 73.895C99.5401 74.09 99.3856 74.3216 99.28 74.5764C99.1745 74.8312 99.1201 75.1041 99.1201 75.3799C99.1201 75.6557 99.1745 75.9288 99.28 76.1836C99.3856 76.4384 99.5401 76.67 99.7351 76.865C99.9301 77.06 100.162 77.2145 100.417 77.3201C100.671 77.4256 100.944 77.48 101.22 77.48H112.92C113.196 77.48 113.469 77.4256 113.724 77.3201C113.978 77.2145 114.21 77.06 114.405 76.865C114.6 76.67 114.755 76.4384 114.86 76.1836C114.966 75.9288 115.02 75.6557 115.02 75.3799C115.02 75.1041 114.966 74.8312 114.86 74.5764C114.755 74.3216 114.6 74.09 114.405 73.895C114.21 73.7 113.978 73.5455 113.724 73.4399C113.469 73.3344 113.196 73.28 112.92 73.28H101.22ZM21.9402 0.929932C20.5796 0.929932 19.2748 1.47056 18.3127 2.43262C17.3507 3.39468 16.8101 4.6995 16.8101 6.06006V21.6599C16.8101 23.0205 17.3507 24.3253 18.3127 25.2874C19.2748 26.2494 20.5796 26.79 21.9402 26.79H32.99C33.2366 26.79 33.4733 26.8878 33.6477 27.0623C33.8221 27.2367 33.9202 27.4733 33.9202 27.72V30.47C33.9202 30.7176 33.8226 30.9551 33.6484 31.1311C33.4743 31.3071 33.2376 31.4073 32.99 31.4099H8.37012C7.69644 31.4099 7.02938 31.5427 6.40698 31.8005C5.78458 32.0583 5.21904 32.4362 4.74268 32.9126C4.26631 33.389 3.88842 33.9545 3.63062 34.5769C3.37281 35.1993 3.23999 35.8664 3.23999 36.54V52.4099C3.24263 53.7697 3.78412 55.0729 4.74561 56.0344C5.70709 56.9959 7.01037 57.5374 8.37012 57.54H21.1101C21.3577 57.54 21.5952 57.6376 21.7712 57.8118C21.9472 57.9859 22.0474 58.2224 22.05 58.47V61.1799C22.0474 61.4275 21.9472 61.664 21.7712 61.8381C21.5952 62.0123 21.3577 62.1099 21.1101 62.1099H5.57007C4.21032 62.1125 2.90705 62.654 1.94556 63.6155C0.984067 64.577 0.442828 65.8802 0.440186 67.24V83.5999C0.440186 84.9604 0.980565 86.2655 1.94263 87.2275C2.90469 88.1896 4.20951 88.73 5.57007 88.73H21.1101C21.3594 88.73 21.5986 88.8291 21.7749 89.0054C21.9512 89.1817 22.05 89.4206 22.05 89.6699V92.3699C22.05 92.4933 22.0258 92.6157 21.9785 92.7297C21.9313 92.8438 21.8622 92.9474 21.7749 93.0347C21.6876 93.122 21.5838 93.1913 21.4697 93.2385C21.3557 93.2858 21.2335 93.3101 21.1101 93.3101H8.36011C7.68643 93.3101 7.01937 93.4426 6.39697 93.7004C5.77457 93.9582 5.20903 94.3361 4.73267 94.8125C4.2563 95.2889 3.87841 95.8544 3.62061 96.4768C3.3628 97.0992 3.23022 97.7663 3.23022 98.4399V114.31C3.23022 115.671 3.7706 116.975 4.73267 117.938C5.69473 118.9 6.99955 119.44 8.36011 119.44H32.9802C33.2269 119.44 33.4633 119.538 33.6377 119.712C33.8121 119.887 33.9102 120.123 33.9102 120.37V123.08C33.9102 123.327 33.8121 123.563 33.6377 123.738C33.4633 123.912 33.2269 124.01 32.9802 124.01H21.9302C20.5687 124.013 19.2638 124.555 18.302 125.519C17.3402 126.483 16.8 127.788 16.8 129.15V144.74C16.8 145.414 16.9329 146.081 17.1907 146.703C17.4485 147.326 17.8264 147.891 18.3027 148.367C18.7791 148.844 19.3446 149.222 19.967 149.479C20.5894 149.737 21.2565 149.87 21.9302 149.87H68.8301C69.5038 149.87 70.1708 149.737 70.7932 149.479C71.4156 149.222 71.9812 148.844 72.4575 148.367C72.9339 147.891 73.3118 147.326 73.5696 146.703C73.8274 146.081 73.9602 145.414 73.9602 144.74V81.6799C73.9602 81.123 73.7388 80.5889 73.345 80.1951C72.9511 79.8012 72.4171 79.5801 71.8601 79.5801C71.3032 79.5801 70.7691 79.8012 70.3752 80.1951C69.9814 80.5889 69.76 81.123 69.76 81.6799V112.23L62.6301 102.23C62.0628 101.434 61.3125 100.786 60.4424 100.34C59.5722 99.8946 58.6077 99.6648 57.6301 99.6699H50.1101C49.8343 99.6699 49.5612 99.7243 49.3064 99.8298C49.0516 99.9354 48.8202 100.09 48.6252 100.285C48.4302 100.48 48.2755 100.712 48.1699 100.966C48.0644 101.221 48.01 101.494 48.01 101.77C48.01 102.046 48.0644 102.319 48.1699 102.573C48.2755 102.828 48.4302 103.06 48.6252 103.255C48.8202 103.45 49.0516 103.605 49.3064 103.71C49.5612 103.816 49.8343 103.87 50.1101 103.87H57.6401C57.941 103.87 58.2376 103.942 58.5054 104.079C58.7731 104.217 59.0044 104.416 59.1802 104.66L69.7302 119.5V144.77C69.7302 145.018 69.6324 145.255 69.4583 145.431C69.2841 145.607 69.0476 145.707 68.8 145.71H21.9001C21.7767 145.71 21.6543 145.686 21.5403 145.638C21.4262 145.591 21.3226 145.522 21.2354 145.435C21.1481 145.347 21.079 145.244 21.0317 145.13C20.9845 145.016 20.9602 144.893 20.9602 144.77V129.18C20.9602 129.056 20.9845 128.934 21.0317 128.82C21.079 128.706 21.1481 128.603 21.2354 128.515C21.3226 128.428 21.4262 128.359 21.5403 128.312C21.6543 128.264 21.7767 128.24 21.9001 128.24H32.9502C34.3108 128.24 35.6156 127.7 36.5776 126.738C37.5397 125.775 38.0801 124.47 38.0801 123.11V120.4C38.0801 119.039 37.5397 117.735 36.5776 116.772C35.6156 115.81 34.3108 115.27 32.9502 115.27H8.33008C8.08343 115.27 7.84702 115.172 7.67261 114.998C7.4982 114.823 7.40015 114.587 7.40015 114.34V98.47C7.40013 98.2224 7.49775 97.9848 7.67188 97.8088C7.846 97.6328 8.08251 97.5327 8.33008 97.53H21.1101C22.4716 97.53 23.7776 96.9899 24.7412 96.0281C25.7049 95.0663 26.2474 93.7614 26.25 92.3999V89.7C26.2606 89.0178 26.1358 88.3402 25.8823 87.7068C25.6289 87.0734 25.2519 86.4966 24.7737 86.01C24.2955 85.5234 23.7254 85.1367 23.0964 84.8723C22.4675 84.6079 21.7924 84.4712 21.1101 84.47H5.57007C5.32342 84.47 5.08701 84.3719 4.9126 84.1975C4.73819 84.0231 4.64014 83.7867 4.64014 83.54V67.1799C4.64014 66.9333 4.73819 66.6969 4.9126 66.5225C5.08701 66.3481 5.32342 66.25 5.57007 66.25H21.1101C22.4716 66.25 23.7776 65.7098 24.7412 64.748C25.7049 63.7863 26.2474 62.4814 26.25 61.1199V58.47C26.2474 57.1085 25.7049 55.8036 24.7412 54.8418C23.7776 53.88 22.4716 53.3401 21.1101 53.3401H8.36011C8.11346 53.3401 7.8768 53.242 7.70239 53.0676C7.52798 52.8932 7.43018 52.6566 7.43018 52.4099V36.47C7.43016 36.2224 7.52778 35.9848 7.7019 35.8088C7.87603 35.6328 8.11254 35.5327 8.36011 35.53H32.9802C34.3287 35.5302 35.6229 34.9992 36.583 34.0522C37.5431 33.1053 38.0917 31.8184 38.1101 30.47V27.76C38.1101 27.0863 37.9775 26.4193 37.7197 25.7969C37.4619 25.1745 37.084 24.6089 36.6077 24.1326C36.1313 23.6562 35.5658 23.2783 34.9434 23.0205C34.321 22.7627 33.6539 22.6299 32.9802 22.6299H21.9302C21.8072 22.6312 21.685 22.6082 21.571 22.562C21.4571 22.5159 21.3535 22.4476 21.2661 22.3611C21.1787 22.2746 21.1091 22.1716 21.0618 22.0581C21.0144 21.9446 20.99 21.8229 20.99 21.7V6.09985C20.9926 5.85229 21.093 5.61578 21.269 5.44165C21.445 5.26752 21.6826 5.16991 21.9302 5.16992H68.8301C69.0767 5.16992 69.3134 5.26797 69.4878 5.44238C69.6622 5.61679 69.76 5.8532 69.76 6.09985V31.3699L59.2102 46.21C59.0356 46.4554 58.8044 46.6552 58.5364 46.7927C58.2684 46.9302 57.9714 47.0013 57.6702 47H50.1101C49.5532 47 49.0191 47.2212 48.6252 47.615C48.2314 48.0088 48.01 48.5429 48.01 49.0999C48.01 49.6568 48.2314 50.1911 48.6252 50.585C49.0191 50.9788 49.5532 51.2 50.1101 51.2H57.6401C58.6177 51.2051 59.5822 50.9753 60.4524 50.5298C61.3225 50.0843 62.0728 49.436 62.6401 48.6399L69.77 38.6399V69.2C69.77 69.7569 69.9914 70.291 70.3853 70.6848C70.7791 71.0786 71.3132 71.3 71.8701 71.3C72.4271 71.3 72.9612 71.0786 73.355 70.6848C73.7488 70.291 73.9702 69.7569 73.9702 69.2V6.12988C73.9702 4.76932 73.4296 3.4645 72.4675 2.50244C71.5055 1.54038 70.2006 1 68.8401 1L21.9402 0.929932ZM85 0.929932C83.6394 0.929932 82.3346 1.47056 81.3726 2.43262C80.4105 3.39468 79.8701 4.6995 79.8701 6.06006V69.1299C79.8701 69.6868 80.0913 70.2212 80.4851 70.615C80.8789 71.0088 81.4133 71.23 81.9702 71.23C82.5272 71.23 83.0613 71.0088 83.4551 70.615C83.8489 70.2212 84.0701 69.6868 84.0701 69.1299V38.5701L91.2002 48.5701C91.7675 49.3662 92.5178 50.0142 93.3879 50.4597C94.2581 50.9052 95.2226 51.135 96.2002 51.1299H103.73C104.287 51.1299 104.821 50.9087 105.215 50.5149C105.609 50.1211 105.83 49.587 105.83 49.03C105.83 48.4731 105.609 47.939 105.215 47.5452C104.821 47.1513 104.287 46.9299 103.73 46.9299H96.2002C95.899 46.9312 95.6017 46.8601 95.3337 46.7227C95.0657 46.5852 94.8348 46.3853 94.6602 46.1399L84.1101 31.3301V6.06006C84.1101 5.81341 84.2082 5.57675 84.3826 5.40234C84.557 5.22793 84.7934 5.12988 85.04 5.12988H131.94C132.188 5.12987 132.425 5.22773 132.601 5.40186C132.777 5.57598 132.877 5.81249 132.88 6.06006V21.6599C132.88 21.7829 132.856 21.9048 132.808 22.0183C132.761 22.1318 132.692 22.2346 132.604 22.321C132.517 22.4075 132.413 22.4758 132.299 22.522C132.185 22.5681 132.063 22.5914 131.94 22.5901H120.89C119.53 22.5927 118.227 23.134 117.266 24.0955C116.304 25.0569 115.763 26.3602 115.76 27.72V30.47C115.763 31.8297 116.304 33.133 117.266 34.0945C118.227 35.056 119.53 35.5972 120.89 35.5999H145.51C145.758 35.6025 145.994 35.7029 146.168 35.8789C146.342 36.0549 146.44 36.2925 146.44 36.54V52.4099C146.44 52.6566 146.342 52.8932 146.168 53.0676C145.993 53.242 145.757 53.3401 145.51 53.3401H132.71C132.037 53.3401 131.369 53.4727 130.747 53.7305C130.124 53.9883 129.559 54.3662 129.083 54.8425C128.606 55.3189 128.229 55.8844 127.971 56.5068C127.713 57.1292 127.58 57.7963 127.58 58.47V61.1799C127.58 61.8536 127.713 62.5207 127.971 63.1431C128.229 63.7655 128.606 64.331 129.083 64.8074C129.559 65.2837 130.124 65.6616 130.747 65.9194C131.369 66.1772 132.037 66.3101 132.71 66.3101H148.26C148.507 66.3101 148.743 66.4079 148.918 66.5823C149.092 66.7567 149.19 66.9933 149.19 67.24V83.5999C149.19 83.8465 149.092 84.0832 148.918 84.2576C148.743 84.432 148.507 84.53 148.26 84.53H132.71C131.349 84.5327 130.044 85.0754 129.082 86.0391C128.12 87.0027 127.58 88.3084 127.58 89.6699V92.3699C127.58 93.0436 127.713 93.7109 127.971 94.3333C128.229 94.9557 128.606 95.5209 129.083 95.9973C129.559 96.4737 130.124 96.8516 130.747 97.1094C131.369 97.3672 132.037 97.5 132.71 97.5H145.47C145.718 97.5026 145.954 97.6028 146.128 97.7788C146.303 97.9548 146.4 98.1924 146.4 98.4399V114.31C146.4 114.557 146.302 114.793 146.128 114.968C145.953 115.142 145.717 115.24 145.47 115.24H120.85C119.49 115.243 118.187 115.784 117.226 116.745C116.264 117.707 115.723 119.01 115.72 120.37V123.08C115.723 124.44 116.264 125.743 117.226 126.705C118.187 127.666 119.49 128.207 120.85 128.21H131.9C132.149 128.21 132.388 128.309 132.565 128.485C132.741 128.662 132.84 128.901 132.84 129.15V144.74C132.84 144.989 132.741 145.228 132.565 145.405C132.388 145.581 132.149 145.68 131.9 145.68H85C84.7524 145.677 84.5159 145.577 84.3418 145.401C84.1677 145.225 84.0701 144.988 84.0701 144.74V119.47L94.6201 104.63C94.7959 104.386 95.0272 104.187 95.2949 104.049C95.5627 103.912 95.8592 103.84 96.1602 103.84H103.69C104.247 103.84 104.781 103.619 105.175 103.225C105.569 102.831 105.79 102.297 105.79 101.74C105.79 101.183 105.569 100.649 105.175 100.255C104.781 99.8613 104.247 99.6399 103.69 99.6399H96.1602C95.1826 99.6347 94.2181 99.8648 93.3479 100.31C92.4777 100.756 91.7275 101.404 91.1602 102.2L84.03 112.2V81.6499C84.03 81.0929 83.8089 80.5589 83.415 80.165C83.0212 79.7712 82.4871 79.55 81.9302 79.55C81.3732 79.55 80.8389 79.7712 80.4451 80.165C80.0512 80.5589 79.8301 81.0929 79.8301 81.6499V144.71C79.8301 145.384 79.9629 146.051 80.2207 146.673C80.4785 147.295 80.8564 147.861 81.3328 148.337C81.8091 148.814 82.3744 149.192 82.9968 149.449C83.6192 149.707 84.2865 149.84 84.9602 149.84H131.86C133.221 149.84 134.525 149.299 135.488 148.337C136.45 147.375 136.99 146.071 136.99 144.71V129.12C136.99 127.758 136.45 126.453 135.488 125.489C134.527 124.525 133.222 123.983 131.86 123.98H120.81C120.563 123.98 120.327 123.882 120.153 123.708C119.978 123.533 119.88 123.297 119.88 123.05V120.34C119.88 120.093 119.978 119.857 120.153 119.682C120.327 119.508 120.563 119.41 120.81 119.41H145.43C146.104 119.41 146.771 119.277 147.393 119.02C148.016 118.762 148.581 118.384 149.058 117.907C149.534 117.431 149.912 116.866 150.17 116.243C150.427 115.621 150.56 114.954 150.56 114.28V98.4099C150.56 97.0494 150.02 95.7445 149.058 94.7825C148.096 93.8204 146.791 93.28 145.43 93.28H132.71C132.463 93.2774 132.226 93.1772 132.052 93.0012C131.878 92.8252 131.78 92.5877 131.78 92.3401V89.6399C131.78 89.3923 131.878 89.1548 132.052 88.9788C132.226 88.8028 132.463 88.7026 132.71 88.7H148.26C148.934 88.7 149.601 88.5674 150.223 88.3096C150.846 88.0518 151.411 87.6739 151.887 87.1975C152.364 86.7211 152.742 86.1556 153 85.5332C153.257 84.9108 153.39 84.2437 153.39 83.5701V67.21C153.387 65.8502 152.846 64.5469 151.885 63.5854C150.923 62.624 149.62 62.0827 148.26 62.0801H132.71C132.464 62.0801 132.227 61.982 132.052 61.8076C131.878 61.6332 131.78 61.3966 131.78 61.1499V58.47C131.78 58.2233 131.878 57.9867 132.052 57.8123C132.227 57.6378 132.464 57.54 132.71 57.54H145.47C146.83 57.5374 148.133 56.9959 149.095 56.0344C150.056 55.0729 150.597 53.7697 150.6 52.4099V36.47C150.6 35.1094 150.06 33.8046 149.098 32.8425C148.136 31.8805 146.831 31.3401 145.47 31.3401H120.85C120.603 31.3375 120.366 31.237 120.192 31.061C120.018 30.885 119.92 30.6475 119.92 30.3999V27.6899C119.92 27.4433 120.018 27.2069 120.192 27.0325C120.367 26.8581 120.603 26.76 120.85 26.76H131.9C132.574 26.76 133.241 26.6272 133.863 26.3694C134.486 26.1116 135.051 25.7337 135.528 25.2573C136.004 24.781 136.382 24.2154 136.64 23.593C136.897 22.9706 137.03 22.3036 137.03 21.6299V6.03003C137.03 4.66947 136.49 3.36465 135.528 2.40259C134.566 1.44053 133.261 0.899902 131.9 0.899902L85 0.929932Z" fill="white"/>
</mask>
<g mask="url(#mask0_2_25)">
<path d="M70.9611 -75.1776L-73.7866 81.3L82.8526 226.197L227.6 69.7197L70.9611 -75.1776Z" fill="url(#paint0_linear_2_25)"/>
</g>
<defs>
<linearGradient id="paint0_linear_2_25" x1="125.481" y1="25.799" x2="23.8098" y2="135.709" gradientUnits="userSpaceOnUse">
<stop stop-color="#FF5E48"/>
<stop offset="0.166667" stop-color="#FF684D"/>
<stop offset="0.333333" stop-color="#FF7251"/>
<stop offset="0.5" stop-color="#FF7B56"/>
<stop offset="0.666667" stop-color="#FF845E"/>
<stop offset="0.833333" stop-color="#FF8160"/>
<stop offset="1" stop-color="#FE8163"/>
</linearGradient>
</defs>
</svg>
