<svg width="198" height="205" viewBox="0 0 198 205" fill="none" xmlns="http://www.w3.org/2000/svg">
<mask id="mask0_2_35" style="mask-type:luminance" maskUnits="userSpaceOnUse" x="0" y="0" width="198" height="205">
<path d="M92.5401 184.11C92.5381 182.842 92.9124 181.602 93.6156 180.546C94.3187 179.491 95.3192 178.667 96.4903 178.181C97.6614 177.694 98.9506 177.566 100.195 177.812C101.439 178.058 102.582 178.668 103.479 179.564C104.377 180.46 104.988 181.602 105.236 182.846C105.484 184.089 105.358 185.379 104.873 186.551C104.388 187.722 103.567 188.724 102.513 189.429C101.458 190.134 100.218 190.51 98.9503 190.51C97.252 190.51 95.623 189.836 94.4212 188.636C93.2194 187.436 92.5428 185.808 92.5401 184.11ZM88.3502 184.11C88.3522 186.206 88.9755 188.255 90.1414 189.996C91.3074 191.738 92.9636 193.095 94.9007 193.896C96.8378 194.697 98.9687 194.905 101.024 194.495C103.08 194.085 104.968 193.075 106.449 191.592C107.93 190.109 108.939 188.22 109.347 186.164C109.755 184.108 109.545 181.978 108.742 180.041C107.94 178.105 106.581 176.45 104.838 175.286C103.095 174.121 101.046 173.5 98.9503 173.5C96.1381 173.503 93.4418 174.622 91.4542 176.611C89.4666 178.601 88.3502 181.298 88.3502 184.11ZM82.9002 184.11C82.9002 180.948 83.8374 177.856 85.5933 175.226C87.3492 172.596 89.845 170.545 92.7657 169.333C95.6864 168.12 98.9009 167.801 102.003 168.414C105.106 169.027 107.957 170.546 110.196 172.779C112.436 175.011 113.964 177.858 114.587 180.958C115.21 184.058 114.9 187.274 113.697 190.198C112.493 193.123 110.45 195.625 107.826 197.389C105.201 199.153 102.113 200.1 98.9503 200.11C94.7038 200.105 90.632 198.419 87.6246 195.421C84.6172 192.423 82.9187 188.356 82.9002 184.11ZM96.8502 142.03V163.97C91.689 164.507 86.9309 167.004 83.5577 170.948C80.1845 174.891 78.4537 179.978 78.7225 185.16C78.9913 190.342 81.239 195.223 85.002 198.796C88.7651 202.369 93.7561 204.361 98.9452 204.361C104.134 204.361 109.125 202.369 112.888 198.796C116.651 195.223 118.899 190.342 119.168 185.16C119.437 179.978 117.706 174.891 114.333 170.948C110.96 167.004 106.201 164.507 101.04 163.97V142.03C101.06 141.743 101.021 141.454 100.924 141.183C100.828 140.911 100.677 140.663 100.481 140.452C100.284 140.242 100.046 140.074 99.7821 139.959C99.518 139.844 99.2331 139.785 98.9452 139.785C98.6572 139.785 98.3724 139.844 98.1082 139.959C97.8441 140.074 97.6065 140.242 97.41 140.452C97.2135 140.663 97.0624 140.911 96.9661 141.183C96.8699 141.454 96.8303 141.743 96.8502 142.03ZM92.5401 112.5C92.5381 111.232 92.9124 109.991 93.6156 108.936C94.3187 107.881 95.3192 107.058 96.4903 106.571C97.6614 106.084 98.9506 105.956 100.195 106.202C101.439 106.448 102.582 107.058 103.479 107.954C104.377 108.85 104.988 109.992 105.236 111.236C105.484 112.48 105.358 113.769 104.873 114.941C104.388 116.113 103.567 117.114 102.513 117.819C101.458 118.524 100.218 118.9 98.9503 118.9C97.2528 118.897 95.6254 118.223 94.4242 117.023C93.2229 115.824 92.5454 114.198 92.5401 112.5ZM88.3502 112.5C88.3502 114.597 88.9718 116.646 90.1366 118.389C91.3013 120.132 92.9567 121.491 94.8936 122.293C96.8305 123.096 98.962 123.305 101.018 122.896C103.074 122.487 104.963 121.478 106.446 119.995C107.928 118.513 108.938 116.624 109.347 114.568C109.756 112.512 109.546 110.381 108.743 108.444C107.941 106.507 106.582 104.851 104.839 103.686C103.096 102.522 101.047 101.9 98.9503 101.9C96.1398 101.903 93.4452 103.02 91.4578 105.008C89.4705 106.995 88.3528 109.69 88.3502 112.5ZM82.9002 112.5V112.47C82.9002 108.215 84.5907 104.134 87.5997 101.125C90.6087 98.1155 94.6898 96.4251 98.9452 96.4251C103.201 96.4251 107.282 98.1155 110.291 101.125C113.3 104.134 114.99 108.215 114.99 112.47V112.56C114.99 116.815 113.3 120.897 110.291 123.906C107.282 126.915 103.201 128.605 98.9452 128.605C94.6898 128.605 90.6087 126.915 87.5997 123.906C84.5907 120.897 82.9002 116.815 82.9002 112.56M78.9002 109.64L49.6002 99.47C49.3375 99.3794 49.0596 99.3414 48.7823 99.3582C48.505 99.375 48.2338 99.4463 47.984 99.5679C47.7342 99.6895 47.5107 99.8592 47.3265 100.067C47.1423 100.275 47.0009 100.517 46.9102 100.78C46.8196 101.043 46.7816 101.321 46.7984 101.598C46.8152 101.875 46.8865 102.146 47.0081 102.396C47.1298 102.646 47.2994 102.87 47.5074 103.054C47.7154 103.238 47.9577 103.379 48.2203 103.47L78.7601 114.09C79.1365 119.186 81.4268 123.951 85.1707 127.428C88.9147 130.906 93.8353 132.839 98.9452 132.839C104.055 132.839 108.976 130.906 112.72 127.428C116.464 123.951 118.754 119.186 119.13 114.09L149.67 103.47C149.933 103.38 150.175 103.239 150.383 103.056C150.592 102.872 150.762 102.649 150.884 102.4C151.006 102.151 151.078 101.88 151.095 101.603C151.112 101.325 151.075 101.048 150.985 100.785C150.895 100.522 150.755 100.28 150.571 100.072C150.387 99.8636 150.164 99.6934 149.915 99.5713C149.666 99.4492 149.395 99.3775 149.118 99.3601C148.841 99.3427 148.563 99.38 148.3 99.47L118.98 109.66C118.289 104.839 115.882 100.429 112.202 97.2393C108.522 94.0494 103.815 92.2935 98.9452 92.2935C94.075 92.2935 89.3681 94.0494 85.6881 97.2393C82.008 100.429 79.6016 104.839 78.9102 109.66M14.5001 99.0201C14.4981 97.7518 14.8724 96.5115 15.5755 95.4561C16.2787 94.4007 17.2792 93.5775 18.4503 93.0909C19.6214 92.6042 20.9106 92.4758 22.1546 92.722C23.3987 92.9682 24.5418 93.5779 25.4393 94.4739C26.3368 95.37 26.9482 96.5122 27.1964 97.7559C27.4445 98.9996 27.318 100.289 26.8331 101.461C26.3482 102.633 25.5268 103.634 24.4725 104.339C23.4182 105.044 22.1784 105.42 20.9102 105.42C19.2127 105.417 17.5854 104.743 16.3841 103.543C15.1829 102.344 14.5054 100.718 14.5001 99.0201ZM10.3101 99.0201C10.3121 101.116 10.9355 103.164 12.1014 104.906C13.2674 106.648 14.9236 108.005 16.8607 108.806C18.7978 109.607 20.9287 109.815 22.9842 109.405C25.0398 108.995 26.9276 107.985 28.409 106.502C29.8905 105.019 30.899 103.13 31.3072 101.074C31.7154 99.0183 31.5048 96.8875 30.7022 94.9512C29.8997 93.0149 28.5411 91.3601 26.7982 90.1958C25.0552 89.0315 23.0063 88.4099 20.9102 88.4099C18.098 88.4126 15.4017 89.5316 13.4142 91.521C11.4266 93.5105 10.3101 96.2078 10.3101 99.0201ZM170.58 99.0201C170.578 97.7518 170.952 96.5115 171.656 95.4561C172.359 94.4007 173.359 93.5775 174.53 93.0909C175.701 92.6042 176.99 92.4758 178.234 92.722C179.479 92.9682 180.622 93.5779 181.519 94.4739C182.417 95.37 183.028 96.5122 183.276 97.7559C183.524 98.9996 183.398 100.289 182.913 101.461C182.428 102.633 181.607 103.634 180.552 104.339C179.498 105.044 178.258 105.42 176.99 105.42C175.292 105.42 173.663 104.746 172.461 103.546C171.259 102.346 170.583 100.718 170.58 99.0201ZM166.38 99.0201C166.38 101.119 167.002 103.17 168.168 104.915C169.334 106.659 170.991 108.019 172.93 108.822C174.869 109.625 177.002 109.835 179.06 109.426C181.118 109.017 183.009 108.006 184.493 106.522C185.976 105.039 186.987 103.148 187.396 101.09C187.806 99.0317 187.596 96.8985 186.793 94.9597C185.99 93.021 184.63 91.3639 182.885 90.198C181.14 89.0322 179.089 88.4099 176.99 88.4099C174.177 88.4126 171.48 89.5314 169.491 91.5205C167.502 93.5097 166.383 96.2069 166.38 99.0201ZM160.94 99.0201C160.94 95.8577 161.877 92.7661 163.633 90.136C165.389 87.5059 167.885 85.4552 170.806 84.2427C173.726 83.0302 176.941 82.7104 180.043 83.3238C183.146 83.9371 185.997 85.4561 188.236 87.6888C190.476 89.9214 192.004 92.7676 192.627 95.868C193.25 98.9683 192.94 102.184 191.737 105.108C190.533 108.033 188.49 110.535 185.866 112.299C183.241 114.063 180.152 115.01 176.99 115.02C172.744 115.015 168.672 113.329 165.665 110.331C162.657 107.333 160.959 103.266 160.94 99.0201ZM117.94 38.75C117.746 38.9502 117.593 39.1869 117.491 39.4466C117.388 39.7062 117.338 39.9835 117.344 40.2625C117.35 40.5415 117.41 40.8167 117.523 41.0721C117.636 41.3274 117.798 41.5578 118 41.75L162.75 84.75C160.853 86.6374 159.349 88.8826 158.326 91.3555C157.303 93.8284 156.781 96.4796 156.79 99.1558C156.799 101.832 157.34 104.48 158.38 106.946C159.42 109.411 160.94 111.646 162.85 113.52L117.11 163.03C116.911 163.231 116.754 163.469 116.65 163.732C116.545 163.994 116.494 164.275 116.501 164.558C116.507 164.84 116.571 165.119 116.687 165.376C116.804 165.633 116.971 165.865 117.179 166.056C117.387 166.247 117.632 166.394 117.898 166.489C118.165 166.583 118.447 166.623 118.729 166.606C119.011 166.588 119.287 166.514 119.54 166.388C119.792 166.262 120.017 166.085 120.2 165.87L166.15 116.03C169.212 117.997 172.747 119.102 176.383 119.229C180.02 119.355 183.624 118.5 186.815 116.751C190.006 115.003 192.667 112.427 194.517 109.293C196.368 106.16 197.339 102.586 197.329 98.9473C197.32 95.3085 196.329 91.7396 194.462 88.6162C192.596 85.4929 189.921 82.9307 186.721 81.1992C183.52 79.4678 179.912 78.6312 176.276 78.7774C172.64 78.9236 169.111 80.0472 166.06 82.0301L120.92 38.7C120.721 38.503 120.485 38.3481 120.225 38.2442C119.965 38.1403 119.687 38.0896 119.408 38.0952C119.128 38.1008 118.852 38.1624 118.597 38.2766C118.341 38.3908 118.111 38.5553 117.92 38.76M4.92025 99.0301C4.92027 95.8677 5.85747 92.7761 7.61337 90.146C9.36927 87.5159 11.865 85.4652 14.7857 84.2527C17.7064 83.0403 20.921 82.7204 24.0233 83.3338C27.1256 83.9471 29.9765 85.4661 32.2162 87.6988C34.4558 89.9314 35.9835 92.7776 36.6065 95.878C37.2295 98.9784 36.92 102.194 35.7166 105.118C34.5133 108.043 32.4701 110.545 29.8455 112.309C27.2209 114.073 24.1327 115.02 20.9703 115.03C16.7238 115.025 12.652 113.339 9.64462 110.341C6.63723 107.343 4.93875 103.276 4.92025 99.0301ZM77.0802 38.7L31.9503 82.0301C28.8987 80.0423 25.3674 78.9142 21.7286 78.7647C18.0898 78.6152 14.4781 79.4499 11.2738 81.1807C8.06945 82.9115 5.39115 85.4743 3.52108 88.5994C1.65102 91.7245 0.65826 95.2961 0.647549 98.938C0.636837 102.58 1.60864 106.157 3.46029 109.293C5.31195 112.43 7.97495 115.008 11.169 116.758C14.3631 118.507 17.9701 119.363 21.6097 119.235C25.2493 119.107 28.787 118 31.8502 116.03L77.8502 165.87C78.0449 166.085 78.2826 166.256 78.5479 166.374C78.8132 166.491 79.1002 166.551 79.3902 166.55C79.919 166.558 80.4295 166.357 80.8101 165.99C81.0189 165.803 81.1882 165.577 81.3077 165.323C81.4272 165.07 81.4943 164.795 81.5055 164.515C81.5166 164.236 81.4715 163.956 81.3726 163.694C81.2738 163.432 81.1235 163.193 80.9303 162.99L35.1102 113.41C37.0231 111.537 38.5447 109.303 39.5865 106.837C40.6283 104.371 41.1695 101.723 41.1788 99.0459C41.1881 96.369 40.6654 93.717 39.6407 91.2439C38.6161 88.7708 37.1101 86.5259 35.2103 84.6399L79.9603 41.6399C80.1899 41.4575 80.3788 41.2291 80.5147 40.9693C80.6507 40.7094 80.7306 40.424 80.7496 40.1314C80.7685 39.8387 80.7259 39.5453 80.6246 39.2701C80.5233 38.9948 80.3656 38.744 80.1615 38.5335C79.9573 38.323 79.7113 38.1575 79.4393 38.0479C79.1673 37.9382 78.8752 37.887 78.5821 37.897C78.289 37.907 78.0012 37.9782 77.7374 38.1062C77.4735 38.2342 77.2394 38.416 77.0501 38.6399M92.5702 20.8499C92.5682 19.5817 92.9425 18.3416 93.6456 17.2862C94.3487 16.2307 95.3492 15.4076 96.5203 14.9209C97.6914 14.4342 98.9806 14.3058 100.225 14.552C101.469 14.7982 102.612 15.4079 103.509 16.304C104.407 17.2 105.018 18.342 105.266 19.5857C105.514 20.8294 105.388 22.1189 104.903 23.2908C104.418 24.4627 103.597 25.4642 102.542 26.169C101.488 26.8738 100.249 27.25 98.9803 27.25C97.282 27.25 95.6531 26.576 94.4513 25.376C93.2494 24.1761 92.5728 22.5482 92.5702 20.8499ZM88.3802 20.8499C88.3822 22.9459 89.0055 24.9945 90.1715 26.7364C91.3374 28.4782 92.9937 29.8353 94.9307 30.636C96.8678 31.4368 98.9987 31.6453 101.054 31.2351C103.11 30.825 104.998 29.8147 106.479 28.3318C107.961 26.849 108.969 24.9603 109.377 22.9043C109.785 20.8484 109.575 18.7176 108.772 16.7813C107.97 14.845 106.611 13.19 104.868 12.0257C103.125 10.8614 101.076 10.24 98.9803 10.24C96.1681 10.2427 93.4718 11.3616 91.4842 13.3511C89.4966 15.3406 88.3802 18.0377 88.3802 20.8499ZM82.9303 20.8499C82.9303 17.6875 83.8672 14.5962 85.6231 11.9661C87.379 9.336 89.875 7.28524 92.7957 6.07278C95.7164 4.86033 98.931 4.54052 102.033 5.15384C105.136 5.76716 107.987 7.28619 110.226 9.51883C112.466 11.7515 113.994 14.5976 114.617 17.698C115.24 20.7984 114.93 24.0138 113.727 26.9383C112.523 29.8627 110.48 32.3651 107.856 34.1292C105.231 35.8933 102.143 36.84 98.9803 36.8499C94.7338 36.8446 90.662 35.1589 87.6546 32.1609C84.6472 29.1629 82.9488 25.0963 82.9303 20.8499ZM78.7303 20.8499C78.7374 25.8538 80.5951 30.6785 83.9459 34.3948C87.2967 38.1112 91.9037 40.4567 96.8802 40.98V79.98C96.8604 80.2673 96.8999 80.5555 96.9962 80.8269C97.0925 81.0983 97.2435 81.3471 97.44 81.5576C97.6365 81.7682 97.8742 81.936 98.1383 82.0508C98.4024 82.1656 98.6872 82.2249 98.9752 82.2249C99.2632 82.2249 99.548 82.1656 99.8121 82.0508C100.076 81.936 100.314 81.7682 100.511 81.5576C100.707 81.3471 100.858 81.0983 100.954 80.8269C101.051 80.5555 101.09 80.2673 101.07 79.98V40.98C104.963 40.574 108.654 39.048 111.697 36.5872C114.74 34.1263 117.004 30.8361 118.216 27.1148C119.427 23.3934 119.534 19.4006 118.523 15.6199C117.512 11.8392 115.426 8.43279 112.519 5.81302C109.611 3.19325 106.007 1.47242 102.142 0.859162C98.2764 0.245906 94.3163 0.766494 90.7408 2.3577C87.1653 3.9489 84.1279 6.54267 81.9962 9.82474C79.8645 13.1068 78.7302 16.9363 78.7303 20.8499Z" fill="white"/>
</mask>
<g mask="url(#mask0_2_35)">
<path d="M124.894 -94.0273L-97.6222 75.6691L72.8929 299.259L295.409 129.563L124.894 -94.0273Z" fill="url(#paint0_linear_2_35)"/>
</g>
<defs>
<linearGradient id="paint0_linear_2_35" x1="172.939" y1="49.2976" x2="16.643" y2="168.493" gradientUnits="userSpaceOnUse">
<stop stop-color="#FF5E48"/>
<stop offset="0.166667" stop-color="#FF684D"/>
<stop offset="0.333333" stop-color="#FF7251"/>
<stop offset="0.5" stop-color="#FF7B56"/>
<stop offset="0.666667" stop-color="#FF845E"/>
<stop offset="0.833333" stop-color="#FF8160"/>
<stop offset="1" stop-color="#FE8163"/>
</linearGradient>
</defs>
</svg>
