<svg width="192" height="137" viewBox="0 0 192 137" fill="none" xmlns="http://www.w3.org/2000/svg">
<mask id="mask0_2_30" style="mask-type:luminance" maskUnits="userSpaceOnUse" x="0" y="0" width="192" height="137">
<path d="M48.38 111.47V134.73C48.3602 135.017 48.3996 135.306 48.4959 135.577C48.5922 135.848 48.7432 136.097 48.9397 136.308C49.1362 136.518 49.3738 136.686 49.638 136.801C49.9021 136.916 50.187 136.975 50.475 136.975C50.763 136.975 51.0479 136.916 51.312 136.801C51.5761 136.686 51.8138 136.518 52.0103 136.308C52.2068 136.097 52.3578 135.848 52.4541 135.577C52.5504 135.306 52.5898 135.017 52.57 134.73V111.47C52.5898 111.183 52.5504 110.894 52.4541 110.623C52.3578 110.352 52.2068 110.103 52.0103 109.892C51.8138 109.682 51.5761 109.514 51.312 109.399C51.0479 109.284 50.763 109.225 50.475 109.225C50.187 109.225 49.9021 109.284 49.638 109.399C49.3738 109.514 49.1362 109.682 48.9397 109.892C48.7432 110.103 48.5922 110.352 48.4959 110.623C48.3996 110.894 48.3602 111.183 48.38 111.47ZM62.82 95.9099C62.263 95.9099 61.7289 96.1313 61.3351 96.5252C60.9413 96.919 60.72 97.4531 60.72 98.01C60.72 98.567 60.9413 99.1011 61.3351 99.4949C61.7289 99.8887 62.263 100.11 62.82 100.11H88.1701C88.727 100.11 89.2611 99.8887 89.6549 99.4949C90.0487 99.1011 90.27 98.567 90.27 98.01C90.27 97.4531 90.0487 96.919 89.6549 96.5252C89.2611 96.1313 88.727 95.9099 88.1701 95.9099H62.82ZM102.47 95.9099C101.913 95.9099 101.379 96.1313 100.985 96.5252C100.591 96.919 100.37 97.4531 100.37 98.01C100.37 98.567 100.591 99.1011 100.985 99.4949C101.379 99.8887 101.913 100.11 102.47 100.11H133.01C133.567 100.11 134.101 99.8887 134.495 99.4949C134.889 99.1011 135.11 98.567 135.11 98.01C135.11 97.4531 134.889 96.919 134.495 96.5252C134.101 96.1313 133.567 95.9099 133.01 95.9099H102.47ZM147.31 95.9099C146.753 95.9099 146.219 96.1313 145.825 96.5252C145.431 96.919 145.21 97.4531 145.21 98.01C145.21 98.567 145.431 99.1011 145.825 99.4949C146.219 99.8887 146.753 100.11 147.31 100.11H177.85C178.407 100.11 178.941 99.8887 179.335 99.4949C179.729 99.1011 179.95 98.567 179.95 98.01C179.95 97.4531 179.729 96.919 179.335 96.5252C178.941 96.1313 178.407 95.9099 177.85 95.9099H147.31ZM3.30995 81.52V134.73C3.30995 135.287 3.53124 135.821 3.92507 136.215C4.31889 136.609 4.8531 136.83 5.41005 136.83C5.96701 136.83 6.50109 136.609 6.89492 136.215C7.28874 135.821 7.51003 135.287 7.51003 134.73V81.52C7.51003 80.9631 7.28874 80.429 6.89492 80.0352C6.50109 79.6413 5.96701 79.4199 5.41005 79.4199C4.8531 79.4199 4.31889 79.6413 3.92507 80.0352C3.53124 80.429 3.30995 80.9631 3.30995 81.52ZM93.21 63.52V134.71C93.21 135.267 93.4313 135.801 93.8251 136.195C94.2189 136.589 94.753 136.81 95.31 136.81C95.8669 136.81 96.4011 136.589 96.7949 136.195C97.1888 135.801 97.41 135.267 97.41 134.71V63.52C97.41 62.9631 97.1888 62.429 96.7949 62.0352C96.4011 61.6413 95.8669 61.4199 95.31 61.4199C94.753 61.4199 94.2189 61.6413 93.8251 62.0352C93.4313 62.429 93.21 62.9631 93.21 63.52ZM138.11 29.97V134.74C138.11 135.297 138.331 135.831 138.725 136.225C139.119 136.619 139.653 136.84 140.21 136.84C140.767 136.84 141.301 136.619 141.695 136.225C142.089 135.831 142.31 135.297 142.31 134.74V29.97C142.31 29.413 142.089 28.8789 141.695 28.4851C141.301 28.0913 140.767 27.8699 140.21 27.8699C139.653 27.8699 139.119 28.0913 138.725 28.4851C138.331 28.8789 138.11 29.413 138.11 29.97ZM182.73 18.0901V134.74C182.73 135.297 182.951 135.831 183.345 136.225C183.739 136.619 184.273 136.84 184.83 136.84C185.387 136.84 185.921 136.619 186.315 136.225C186.709 135.831 186.93 135.297 186.93 134.74V18.0901C186.93 17.5331 186.709 16.9988 186.315 16.605C185.921 16.2112 185.387 15.99 184.83 15.99C184.273 15.99 183.739 16.2112 183.345 16.605C182.951 16.9988 182.73 17.5331 182.73 18.0901ZM131 10.1499L41.11 107.01L4.30995 65.75C4.1261 65.5438 3.90344 65.3757 3.65468 65.2556C3.40593 65.1355 3.13604 65.0656 2.86025 65.0498C2.58446 65.034 2.30822 65.0729 2.04738 65.1638C1.78654 65.2548 1.54616 65.3962 1.33998 65.5801C1.13381 65.7639 0.965846 65.9866 0.845721 66.2354C0.725596 66.4841 0.655696 66.754 0.63991 67.0298C0.624124 67.3056 0.662846 67.5817 0.753802 67.8425C0.844758 68.1034 0.986211 68.3439 1.17006 68.5501L38.1701 109.96C38.5491 110.38 39.0117 110.716 39.5283 110.947C40.045 111.178 40.6042 111.298 41.1701 111.3C41.7226 111.3 42.2692 111.185 42.7752 110.963C43.2812 110.741 43.7356 110.416 44.11 110.01L133.97 13.1599L153.76 37.48C154.125 37.9268 154.581 38.2895 155.099 38.5432C155.617 38.7969 156.184 38.9357 156.76 38.95H156.83C157.398 38.9492 157.959 38.8275 158.476 38.593C158.994 38.3585 159.455 38.0168 159.83 37.5901L178.83 15.8899C179.166 15.4671 179.327 14.931 179.278 14.3928C179.23 13.8547 178.975 13.356 178.568 13.0005C178.161 12.645 177.633 12.4603 177.093 12.4844C176.553 12.5085 176.044 12.7396 175.67 13.1299L156.84 34.6499L137.05 10.3401C136.685 9.89331 136.229 9.53059 135.711 9.27686C135.193 9.02314 134.626 8.88419 134.05 8.86988H133.89C133.343 8.87429 132.802 8.99125 132.301 9.21314C131.801 9.43504 131.351 9.75718 130.98 10.1599M182.36 7.36988C182.36 6.88532 182.504 6.4117 182.773 6.0088C183.042 5.6059 183.425 5.29189 183.872 5.10645C184.32 4.92102 184.813 4.87251 185.288 4.96705C185.763 5.06158 186.2 5.29482 186.542 5.63746C186.885 5.9801 187.118 6.41684 187.213 6.8921C187.307 7.36735 187.259 7.85995 187.074 8.30762C186.888 8.7553 186.574 9.13778 186.171 9.40699C185.768 9.6762 185.295 9.82008 184.81 9.82008C184.16 9.82008 183.537 9.56177 183.078 9.1023C182.618 8.64284 182.36 8.01966 182.36 7.36988ZM178.17 7.36988C178.168 8.68598 178.557 9.97325 179.287 11.0684C180.016 12.1635 181.055 13.0172 182.271 13.5217C183.486 14.0263 184.824 14.1589 186.115 13.9026C187.406 13.6463 188.592 13.0129 189.522 12.0823C190.453 11.1517 191.086 9.96572 191.343 8.67481C191.599 7.38391 191.466 6.04611 190.962 4.83057C190.457 3.61504 189.603 2.57639 188.508 1.84644C187.413 1.11649 186.126 0.72801 184.81 0.729988C183.05 0.732633 181.362 1.43307 180.118 2.67774C178.873 3.92241 178.173 5.60966 178.17 7.36988Z" fill="white"/>
</mask>
<g mask="url(#mask0_2_30)">
<path d="M114.027 -93.1436L-66.4296 55.8247L77.8279 230.574L258.284 81.6059L114.027 -93.1436Z" fill="url(#paint0_linear_2_30)"/>
</g>
<defs>
<linearGradient id="paint0_linear_2_30" x1="156.03" y1="21.7179" x2="29.2769" y2="126.353" gradientUnits="userSpaceOnUse">
<stop stop-color="#FF5E48"/>
<stop offset="0.166667" stop-color="#FF684D"/>
<stop offset="0.333333" stop-color="#FF7251"/>
<stop offset="0.5" stop-color="#FF7B56"/>
<stop offset="0.666667" stop-color="#FF845E"/>
<stop offset="0.833333" stop-color="#FF8160"/>
<stop offset="1" stop-color="#FE8163"/>
</linearGradient>
</defs>
</svg>
